<svg xmlns="http://www.w3.org/2000/svg" xmlns:xlink="http://www.w3.org/1999/xlink" width="500" zoomAndPan="magnify" viewBox="0 0 375 374.999991" height="500" preserveAspectRatio="xMidYMid meet" version="1.0"><path fill="#c0b7a8" d="M 19.398438 103.449219 L 355.601562 103.449219 L 355.601562 135.777344 L 19.398438 135.777344 Z M 19.398438 103.449219 " fill-opacity="1" fill-rule="nonzero"/><path fill="#c0b7a8" d="M 103.449219 181.035156 L 103.449219 148.707031 L 38.792969 148.707031 L 38.792969 181.035156 L 51.722656 181.035156 L 51.722656 284.484375 L 38.792969 284.484375 L 38.792969 316.808594 L 103.449219 316.808594 L 103.449219 284.484375 L 90.515625 284.484375 L 90.515625 181.035156 Z M 103.449219 181.035156 " fill-opacity="1" fill-rule="nonzero"/><path fill="#c0b7a8" d="M 336.207031 181.035156 L 336.207031 148.707031 L 271.550781 148.707031 L 271.550781 181.035156 L 284.484375 181.035156 L 284.484375 284.484375 L 271.550781 284.484375 L 271.550781 316.808594 L 336.207031 316.808594 L 336.207031 284.484375 L 323.277344 284.484375 L 323.277344 181.035156 Z M 336.207031 181.035156 " fill-opacity="1" fill-rule="nonzero"/><path fill="#c0b7a8" d="M 200.429688 45.257812 C 200.429688 46.109375 200.347656 46.949219 200.183594 47.78125 C 200.015625 48.613281 199.773438 49.421875 199.445312 50.207031 C 199.121094 50.992188 198.722656 51.738281 198.25 52.441406 C 197.78125 53.148438 197.242188 53.800781 196.644531 54.402344 C 196.042969 55.003906 195.390625 55.539062 194.683594 56.011719 C 193.976562 56.480469 193.234375 56.878906 192.449219 57.207031 C 191.664062 57.53125 190.855469 57.777344 190.023438 57.941406 C 189.191406 58.105469 188.347656 58.191406 187.5 58.191406 C 186.652344 58.191406 185.808594 58.105469 184.976562 57.941406 C 184.144531 57.777344 183.335938 57.53125 182.550781 57.207031 C 181.765625 56.878906 181.023438 56.480469 180.316406 56.011719 C 179.609375 55.539062 178.957031 55.003906 178.355469 54.402344 C 177.757812 53.800781 177.21875 53.148438 176.75 52.441406 C 176.277344 51.738281 175.878906 50.992188 175.554688 50.207031 C 175.226562 49.421875 174.984375 48.613281 174.816406 47.78125 C 174.652344 46.949219 174.570312 46.109375 174.570312 45.257812 C 174.570312 44.410156 174.652344 43.570312 174.816406 42.734375 C 174.984375 41.902344 175.226562 41.09375 175.554688 40.308594 C 175.878906 39.527344 176.277344 38.78125 176.75 38.074219 C 177.21875 37.367188 177.757812 36.714844 178.355469 36.113281 C 178.957031 35.515625 179.609375 34.980469 180.316406 34.507812 C 181.023438 34.035156 181.765625 33.636719 182.550781 33.3125 C 183.335938 32.988281 184.144531 32.742188 184.976562 32.574219 C 185.808594 32.410156 186.652344 32.328125 187.5 32.328125 C 188.347656 32.328125 189.191406 32.410156 190.023438 32.574219 C 190.855469 32.742188 191.664062 32.988281 192.449219 33.3125 C 193.234375 33.636719 193.976562 34.035156 194.683594 34.507812 C 195.390625 34.980469 196.042969 35.515625 196.644531 36.113281 C 197.242188 36.714844 197.78125 37.367188 198.25 38.074219 C 198.722656 38.78125 199.121094 39.527344 199.445312 40.308594 C 199.773438 41.09375 200.015625 41.902344 200.183594 42.734375 C 200.347656 43.570312 200.429688 44.410156 200.429688 45.257812 Z M 200.429688 45.257812 " fill-opacity="1" fill-rule="nonzero"/><path fill="#c0b7a8" d="M 0 90.515625 L 375 90.515625 L 187.5 0 Z M 213.363281 45.257812 C 213.363281 46.105469 213.320312 46.949219 213.238281 47.792969 C 213.15625 48.636719 213.03125 49.472656 212.863281 50.304688 C 212.699219 51.136719 212.496094 51.957031 212.25 52.765625 C 212.003906 53.578125 211.71875 54.375 211.394531 55.15625 C 211.070312 55.9375 210.707031 56.703125 210.308594 57.449219 C 209.910156 58.195312 209.472656 58.921875 209.003906 59.625 C 208.53125 60.332031 208.027344 61.011719 207.492188 61.664062 C 206.953125 62.320312 206.386719 62.945312 205.789062 63.546875 C 205.1875 64.144531 204.5625 64.714844 203.90625 65.25 C 203.25 65.789062 202.574219 66.292969 201.867188 66.761719 C 201.164062 67.234375 200.4375 67.667969 199.691406 68.066406 C 198.945312 68.464844 198.179688 68.828125 197.398438 69.152344 C 196.613281 69.476562 195.816406 69.761719 195.007812 70.007812 C 194.195312 70.253906 193.375 70.457031 192.546875 70.625 C 191.714844 70.789062 190.878906 70.914062 190.035156 70.996094 C 189.191406 71.078125 188.347656 71.121094 187.5 71.121094 C 186.652344 71.121094 185.808594 71.078125 184.964844 70.996094 C 184.121094 70.914062 183.285156 70.789062 182.453125 70.625 C 181.625 70.457031 180.804688 70.253906 179.992188 70.007812 C 179.183594 69.761719 178.386719 69.476562 177.601562 69.152344 C 176.820312 68.828125 176.054688 68.464844 175.308594 68.066406 C 174.5625 67.667969 173.835938 67.234375 173.132812 66.761719 C 172.425781 66.292969 171.746094 65.789062 171.09375 65.25 C 170.4375 64.714844 169.8125 64.144531 169.210938 63.546875 C 168.613281 62.945312 168.046875 62.320312 167.507812 61.664062 C 166.972656 61.011719 166.46875 60.332031 165.996094 59.625 C 165.527344 58.921875 165.089844 58.195312 164.691406 57.449219 C 164.292969 56.703125 163.929688 55.9375 163.605469 55.15625 C 163.28125 54.375 162.996094 53.578125 162.75 52.765625 C 162.503906 51.957031 162.300781 51.136719 162.136719 50.304688 C 161.96875 49.472656 161.84375 48.636719 161.761719 47.792969 C 161.679688 46.949219 161.636719 46.105469 161.636719 45.257812 C 161.636719 44.410156 161.679688 43.566406 161.761719 42.722656 C 161.84375 41.878906 161.96875 41.042969 162.136719 40.214844 C 162.300781 39.382812 162.503906 38.5625 162.75 37.75 C 162.996094 36.941406 163.28125 36.144531 163.605469 35.363281 C 163.929688 34.578125 164.292969 33.8125 164.691406 33.066406 C 165.089844 32.320312 165.527344 31.59375 165.996094 30.890625 C 166.46875 30.1875 166.972656 29.507812 167.507812 28.851562 C 168.046875 28.195312 168.613281 27.570312 169.210938 26.972656 C 169.8125 26.371094 170.4375 25.804688 171.09375 25.265625 C 171.746094 24.730469 172.425781 24.226562 173.132812 23.753906 C 173.835938 23.285156 174.5625 22.847656 175.308594 22.449219 C 176.054688 22.050781 176.820312 21.6875 177.601562 21.363281 C 178.386719 21.042969 179.183594 20.757812 179.992188 20.511719 C 180.804688 20.265625 181.625 20.058594 182.453125 19.894531 C 183.285156 19.726562 184.121094 19.605469 184.964844 19.519531 C 185.808594 19.4375 186.652344 19.398438 187.5 19.398438 C 188.347656 19.398438 189.191406 19.4375 190.035156 19.519531 C 190.878906 19.605469 191.714844 19.726562 192.546875 19.894531 C 193.375 20.058594 194.195312 20.265625 195.007812 20.511719 C 195.816406 20.757812 196.613281 21.042969 197.398438 21.363281 C 198.179688 21.6875 198.945312 22.050781 199.691406 22.449219 C 200.4375 22.847656 201.164062 23.285156 201.867188 23.753906 C 202.574219 24.226562 203.25 24.730469 203.90625 25.265625 C 204.5625 25.804688 205.1875 26.371094 205.789062 26.972656 C 206.386719 27.570312 206.953125 28.195312 207.492188 28.851562 C 208.027344 29.507812 208.53125 30.1875 209.003906 30.890625 C 209.472656 31.59375 209.910156 32.320312 210.308594 33.066406 C 210.707031 33.8125 211.070312 34.578125 211.394531 35.363281 C 211.71875 36.144531 212.003906 36.941406 212.25 37.75 C 212.496094 38.5625 212.699219 39.382812 212.863281 40.214844 C 213.03125 41.042969 213.15625 41.878906 213.238281 42.722656 C 213.320312 43.566406 213.363281 44.410156 213.363281 45.257812 Z M 213.363281 45.257812 " fill-opacity="1" fill-rule="nonzero"/><path fill="#c0b7a8" d="M 355.601562 329.742188 L 19.398438 329.742188 L 19.398438 349.136719 L 0 349.136719 L 0 375 L 375 375 L 375 349.136719 L 355.601562 349.136719 Z M 355.601562 329.742188 " fill-opacity="1" fill-rule="nonzero"/><path fill="#c0b7a8" d="M 116.378906 232.757812 C 116.378906 233.921875 116.40625 235.085938 116.464844 236.25 C 116.523438 237.410156 116.609375 238.570312 116.722656 239.730469 C 116.835938 240.886719 116.976562 242.042969 117.148438 243.195312 C 117.320312 244.34375 117.519531 245.492188 117.746094 246.632812 C 117.972656 247.773438 118.226562 248.910156 118.511719 250.039062 C 118.792969 251.167969 119.105469 252.289062 119.441406 253.402344 C 119.78125 254.519531 120.144531 255.621094 120.535156 256.71875 C 120.929688 257.8125 121.347656 258.898438 121.792969 259.976562 C 122.238281 261.050781 122.710938 262.113281 123.207031 263.167969 C 123.707031 264.21875 124.226562 265.257812 124.777344 266.285156 C 125.324219 267.3125 125.898438 268.324219 126.496094 269.320312 C 127.097656 270.320312 127.71875 271.304688 128.367188 272.269531 C 129.011719 273.238281 129.683594 274.191406 130.375 275.125 C 131.070312 276.058594 131.785156 276.976562 132.523438 277.878906 C 133.261719 278.777344 134.019531 279.65625 134.804688 280.519531 C 135.585938 281.382812 136.386719 282.226562 137.210938 283.046875 C 138.03125 283.871094 138.875 284.675781 139.738281 285.457031 C 140.601562 286.238281 141.480469 286.996094 142.382812 287.734375 C 143.28125 288.472656 144.199219 289.191406 145.132812 289.882812 C 146.066406 290.578125 147.019531 291.246094 147.988281 291.894531 C 148.957031 292.539062 149.9375 293.164062 150.9375 293.761719 C 151.933594 294.359375 152.949219 294.933594 153.972656 295.480469 C 155 296.03125 156.039062 296.554688 157.09375 297.050781 C 158.144531 297.546875 159.207031 298.019531 160.285156 298.464844 C 161.359375 298.910156 162.445312 299.328125 163.539062 299.722656 C 164.636719 300.113281 165.742188 300.480469 166.855469 300.816406 C 167.96875 301.15625 169.089844 301.464844 170.21875 301.746094 C 171.347656 302.03125 172.484375 302.285156 173.625 302.511719 C 174.765625 302.738281 175.914062 302.9375 177.0625 303.109375 C 178.214844 303.28125 179.371094 303.421875 180.527344 303.535156 C 181.6875 303.652344 182.847656 303.738281 184.011719 303.792969 C 185.171875 303.851562 186.335938 303.878906 187.5 303.878906 C 188.664062 303.878906 189.828125 303.851562 190.988281 303.792969 C 192.152344 303.738281 193.3125 303.652344 194.472656 303.535156 C 195.628906 303.421875 196.785156 303.28125 197.9375 303.109375 C 199.085938 302.9375 200.234375 302.738281 201.375 302.511719 C 202.515625 302.285156 203.652344 302.03125 204.78125 301.746094 C 205.910156 301.464844 207.03125 301.15625 208.144531 300.816406 C 209.257812 300.480469 210.363281 300.113281 211.460938 299.722656 C 212.554688 299.328125 213.640625 298.910156 214.714844 298.464844 C 215.792969 298.019531 216.855469 297.546875 217.90625 297.050781 C 218.960938 296.554688 220 296.03125 221.027344 295.480469 C 222.050781 294.933594 223.066406 294.359375 224.0625 293.761719 C 225.0625 293.164062 226.042969 292.539062 227.011719 291.894531 C 227.980469 291.246094 228.929688 290.578125 229.867188 289.882812 C 230.800781 289.191406 231.71875 288.472656 232.617188 287.734375 C 233.519531 286.996094 234.398438 286.238281 235.261719 285.457031 C 236.125 284.675781 236.96875 283.871094 237.789062 283.046875 C 238.613281 282.226562 239.414062 281.382812 240.195312 280.519531 C 240.980469 279.65625 241.738281 278.777344 242.476562 277.878906 C 243.214844 276.976562 243.929688 276.058594 244.625 275.125 C 245.316406 274.191406 245.988281 273.238281 246.632812 272.269531 C 247.28125 271.304688 247.902344 270.320312 248.503906 269.320312 C 249.101562 268.324219 249.675781 267.3125 250.222656 266.285156 C 250.773438 265.257812 251.292969 264.21875 251.792969 263.167969 C 252.289062 262.113281 252.761719 261.050781 253.207031 259.976562 C 253.652344 258.898438 254.070312 257.8125 254.464844 256.71875 C 254.855469 255.621094 255.21875 254.519531 255.558594 253.402344 C 255.894531 252.289062 256.207031 251.167969 256.488281 250.039062 C 256.773438 248.910156 257.027344 247.773438 257.253906 246.632812 C 257.480469 245.492188 257.679688 244.34375 257.851562 243.195312 C 258.023438 242.042969 258.164062 240.886719 258.277344 239.730469 C 258.390625 238.570312 258.476562 237.410156 258.535156 236.25 C 258.59375 235.085938 258.621094 233.921875 258.621094 232.757812 C 258.621094 231.59375 258.59375 230.429688 258.535156 229.269531 C 258.476562 228.105469 258.390625 226.945312 258.277344 225.789062 C 258.164062 224.628906 258.023438 223.472656 257.851562 222.324219 C 257.679688 221.171875 257.480469 220.023438 257.253906 218.882812 C 257.027344 217.742188 256.773438 216.605469 256.488281 215.476562 C 256.207031 214.347656 255.894531 213.226562 255.558594 212.113281 C 255.21875 211 254.855469 209.894531 254.464844 208.796875 C 254.070312 207.703125 253.652344 206.617188 253.207031 205.542969 C 252.761719 204.464844 252.289062 203.402344 251.792969 202.351562 C 251.292969 201.296875 250.773438 200.257812 250.222656 199.234375 C 249.675781 198.207031 249.101562 197.195312 248.503906 196.195312 C 247.902344 195.195312 247.28125 194.214844 246.632812 193.246094 C 245.988281 192.277344 245.316406 191.328125 244.625 190.390625 C 243.929688 189.457031 243.214844 188.539062 242.476562 187.640625 C 241.738281 186.742188 240.980469 185.859375 240.195312 184.996094 C 239.414062 184.132812 238.613281 183.292969 237.789062 182.46875 C 236.96875 181.644531 236.125 180.84375 235.261719 180.0625 C 234.398438 179.28125 233.519531 178.519531 232.617188 177.78125 C 231.71875 177.042969 230.800781 176.328125 229.867188 175.632812 C 228.929688 174.941406 227.980469 174.269531 227.011719 173.625 C 226.042969 172.976562 225.0625 172.355469 224.0625 171.757812 C 223.066406 171.15625 222.050781 170.585938 221.027344 170.035156 C 220 169.488281 218.960938 168.964844 217.90625 168.464844 C 216.855469 167.96875 215.792969 167.496094 214.714844 167.050781 C 213.640625 166.605469 212.554688 166.1875 211.460938 165.796875 C 210.363281 165.402344 209.257812 165.039062 208.144531 164.699219 C 207.03125 164.363281 205.910156 164.050781 204.78125 163.769531 C 203.652344 163.488281 202.515625 163.230469 201.375 163.003906 C 200.234375 162.777344 199.085938 162.578125 197.9375 162.40625 C 196.785156 162.238281 195.628906 162.09375 194.472656 161.980469 C 193.3125 161.867188 192.152344 161.78125 190.988281 161.722656 C 189.828125 161.667969 188.664062 161.636719 187.5 161.636719 C 186.335938 161.636719 185.171875 161.667969 184.011719 161.722656 C 182.847656 161.78125 181.6875 161.867188 180.527344 161.980469 C 179.371094 162.09375 178.214844 162.238281 177.0625 162.40625 C 175.914062 162.578125 174.765625 162.777344 173.625 163.003906 C 172.484375 163.230469 171.347656 163.488281 170.21875 163.769531 C 169.089844 164.050781 167.96875 164.363281 166.855469 164.699219 C 165.742188 165.039062 164.636719 165.402344 163.539062 165.796875 C 162.445312 166.1875 161.359375 166.605469 160.285156 167.050781 C 159.207031 167.496094 158.144531 167.96875 157.09375 168.464844 C 156.039062 168.964844 155 169.488281 153.972656 170.035156 C 152.949219 170.585938 151.933594 171.15625 150.9375 171.757812 C 149.9375 172.355469 148.957031 172.976562 147.988281 173.625 C 147.019531 174.269531 146.066406 174.941406 145.132812 175.632812 C 144.199219 176.328125 143.28125 177.042969 142.382812 177.78125 C 141.480469 178.519531 140.601562 179.28125 139.738281 180.0625 C 138.875 180.84375 138.03125 181.644531 137.210938 182.46875 C 136.386719 183.292969 135.585938 184.132812 134.804688 184.996094 C 134.019531 185.859375 133.261719 186.742188 132.523438 187.640625 C 131.785156 188.539062 131.070312 189.457031 130.375 190.390625 C 129.683594 191.328125 129.011719 192.277344 128.367188 193.246094 C 127.71875 194.214844 127.097656 195.195312 126.496094 196.195312 C 125.898438 197.195312 125.324219 198.207031 124.777344 199.234375 C 124.226562 200.257812 123.707031 201.296875 123.207031 202.351562 C 122.710938 203.402344 122.238281 204.464844 121.792969 205.542969 C 121.347656 206.617188 120.929688 207.703125 120.535156 208.796875 C 120.144531 209.894531 119.78125 211 119.441406 212.113281 C 119.105469 213.226562 118.792969 214.347656 118.511719 215.476562 C 118.226562 216.605469 117.972656 217.742188 117.746094 218.882812 C 117.519531 220.023438 117.320312 221.171875 117.148438 222.324219 C 116.976562 223.472656 116.835938 224.628906 116.722656 225.789062 C 116.609375 226.945312 116.523438 228.105469 116.464844 229.269531 C 116.40625 230.429688 116.378906 231.59375 116.378906 232.757812 Z M 206.898438 193.964844 C 205.367188 194.007812 203.851562 194.15625 202.34375 194.410156 C 200.835938 194.667969 199.355469 195.027344 197.898438 195.496094 C 196.445312 195.960938 195.027344 196.527344 193.652344 197.195312 C 192.277344 197.859375 190.957031 198.621094 189.6875 199.476562 C 188.421875 200.332031 187.21875 201.269531 186.085938 202.296875 C 184.949219 203.320312 183.894531 204.421875 182.917969 205.59375 C 181.9375 206.769531 181.046875 208.007812 180.246094 209.308594 C 179.441406 210.609375 178.734375 211.960938 178.125 213.363281 L 206.898438 213.363281 L 206.898438 226.292969 L 174.570312 226.292969 C 174.570312 227.328125 174.570312 228.425781 174.570312 229.527344 C 174.578125 232.808594 174.988281 236.042969 175.796875 239.222656 L 206.898438 239.222656 L 206.898438 252.15625 L 182.003906 252.15625 C 183.425781 254.132812 185.058594 255.917969 186.902344 257.511719 C 188.746094 259.105469 190.746094 260.464844 192.910156 261.585938 C 195.070312 262.710938 197.335938 263.566406 199.699219 264.15625 C 202.0625 264.75 204.460938 265.058594 206.898438 265.085938 L 206.898438 278.015625 C 204.800781 277.976562 202.722656 277.792969 200.652344 277.460938 C 198.585938 277.132812 196.550781 276.664062 194.546875 276.050781 C 192.542969 275.4375 190.59375 274.691406 188.695312 273.808594 C 186.792969 272.925781 184.964844 271.917969 183.207031 270.78125 C 181.449219 269.644531 179.777344 268.390625 178.191406 267.023438 C 176.605469 265.652344 175.121094 264.179688 173.742188 262.605469 C 172.359375 261.03125 171.09375 259.371094 169.945312 257.617188 C 168.796875 255.867188 167.773438 254.046875 166.875 252.15625 L 148.707031 252.15625 L 148.707031 239.222656 L 162.542969 239.222656 C 161.941406 236.019531 161.640625 232.785156 161.636719 229.527344 C 161.636719 228.425781 161.636719 227.390625 161.636719 226.292969 L 148.707031 226.292969 L 148.707031 213.363281 L 164.289062 213.363281 C 164.628906 212.21875 165.015625 211.089844 165.445312 209.980469 C 165.875 208.867188 166.347656 207.773438 166.863281 206.695312 C 167.378906 205.621094 167.9375 204.570312 168.535156 203.539062 C 169.136719 202.507812 169.777344 201.5 170.453125 200.519531 C 171.132812 199.539062 171.851562 198.585938 172.605469 197.664062 C 173.359375 196.738281 174.148438 195.847656 174.972656 194.984375 C 175.796875 194.125 176.65625 193.296875 177.546875 192.503906 C 178.4375 191.710938 179.355469 190.953125 180.304688 190.230469 C 181.257812 189.511719 182.234375 188.828125 183.238281 188.183594 C 184.242188 187.539062 185.269531 186.9375 186.320312 186.375 C 187.375 185.8125 188.445312 185.292969 189.539062 184.816406 C 190.632812 184.335938 191.742188 183.902344 192.867188 183.515625 C 193.996094 183.125 195.136719 182.78125 196.292969 182.480469 C 197.445312 182.179688 198.609375 181.925781 199.785156 181.71875 C 200.957031 181.511719 202.140625 181.351562 203.328125 181.234375 C 204.515625 181.121094 205.703125 181.054688 206.898438 181.035156 Z M 206.898438 193.964844 " fill-opacity="1" fill-rule="nonzero"/></svg>