<svg xmlns="http://www.w3.org/2000/svg" xmlns:xlink="http://www.w3.org/1999/xlink" width="443" zoomAndPan="magnify" viewBox="0 0 332.25 374.999991" height="500" preserveAspectRatio="xMidYMid meet" version="1.0"><defs><clipPath id="dfd47c3ccd"><path d="M 0 191 L 331.5 191 L 331.5 374.433594 L 0 374.433594 Z M 0 191 " clip-rule="nonzero"/></clipPath><clipPath id="0806ebbc1a"><path d="M 0 0.421875 L 331.5 0.421875 L 331.5 184 L 0 184 Z M 0 0.421875 " clip-rule="nonzero"/></clipPath></defs><g clip-path="url(#dfd47c3ccd)"><path fill="#c0b7a8" d="M 331.152344 191.882812 L 0.136719 191.882812 L 0.136719 360.039062 C 0.136719 364.078125 1.789062 367.75 4.445312 370.40625 C 7.101562 373.0625 10.769531 374.710938 14.808594 374.710938 L 316.480469 374.710938 C 320.519531 374.710938 324.191406 373.0625 326.847656 370.40625 C 329.503906 367.75 331.152344 364.082031 331.152344 360.039062 Z M 105.605469 239.957031 L 70.769531 328.90625 L 58.691406 328.90625 L 24.230469 239.957031 L 36.988281 239.957031 L 60.101562 304.574219 C 61.964844 309.75 63.519531 314.617188 64.761719 319.132812 C 66.148438 314.289062 67.742188 309.441406 69.566406 304.574219 L 93.589844 239.957031 Z M 129.9375 239.957031 L 129.9375 328.90625 L 118.175781 328.90625 L 118.175781 239.957031 Z M 150.089844 262.945312 C 150.089844 258.46875 151.351562 254.265625 153.902344 250.371094 C 156.449219 246.457031 160.175781 243.496094 165.066406 241.46875 C 169.972656 239.457031 175.398438 238.441406 181.382812 238.441406 C 187.992188 238.441406 193.789062 239.5 198.84375 241.632812 C 203.878906 243.746094 207.75 246.871094 210.460938 250.992188 C 213.15625 255.117188 214.625 259.796875 214.835938 265.015625 L 203.546875 265.863281 C 202.925781 260.25 200.875 255.984375 197.375 253.125 C 193.875 250.246094 188.71875 248.820312 181.882812 248.820312 C 174.757812 248.820312 169.578125 250.125 166.308594 252.734375 C 163.054688 255.34375 161.417969 258.492188 161.417969 262.15625 C 161.417969 265.367188 162.578125 267.996094 164.878906 270.046875 C 167.15625 272.117188 173.058594 274.230469 182.628906 276.386719 C 192.195312 278.558594 198.761719 280.445312 202.324219 282.058594 C 207.5 284.460938 211.332031 287.488281 213.796875 291.128906 C 216.261719 294.796875 217.484375 299.023438 217.484375 303.785156 C 217.484375 308.53125 216.136719 312.980469 213.425781 317.164062 C 210.710938 321.347656 206.816406 324.601562 201.742188 326.941406 C 196.667969 329.261719 190.953125 330.421875 184.617188 330.421875 C 176.558594 330.421875 169.808594 329.261719 164.382812 326.898438 C 158.933594 324.558594 154.667969 321.039062 151.5625 316.316406 C 148.476562 311.613281 146.839844 306.269531 146.695312 300.328125 L 157.796875 299.351562 C 158.3125 303.808594 159.535156 307.453125 161.460938 310.308594 C 163.386719 313.167969 166.371094 315.46875 170.40625 317.226562 C 174.445312 318.988281 179.003906 319.855469 184.058594 319.855469 C 188.550781 319.855469 192.507812 319.195312 195.945312 317.871094 C 199.382812 316.523438 201.953125 314.703125 203.628906 312.378906 C 205.308594 310.042969 206.15625 307.515625 206.15625 304.757812 C 206.15625 301.964844 205.347656 299.539062 203.710938 297.449219 C 202.09375 295.355469 199.425781 293.617188 195.714844 292.207031 C 193.3125 291.277344 188.054688 289.828125 179.875 287.859375 C 171.710938 285.890625 165.976562 284.046875 162.703125 282.308594 C 158.457031 280.09375 155.289062 277.316406 153.199219 274.023438 C 151.125 270.730469 150.089844 267.042969 150.089844 262.945312 Z M 223.800781 328.910156 L 257.972656 239.957031 L 270.648438 239.957031 L 307.058594 328.910156 L 293.640625 328.910156 L 283.261719 301.964844 L 246.066406 301.964844 L 236.3125 328.910156 Z M 223.800781 328.910156 " fill-opacity="1" fill-rule="evenodd"/></g><g clip-path="url(#0806ebbc1a)"><path fill="#c0b7a8" d="M 107.386719 27.644531 C 114.453125 34.714844 118.398438 44.230469 118.398438 54.230469 C 118.398438 64.230469 114.453125 73.75 107.386719 80.820312 C 105.859375 82.34375 104.222656 83.722656 102.488281 84.949219 L 104.445312 84.949219 C 115.535156 84.949219 126.089844 89.363281 133.929688 97.195312 C 141.765625 105.03125 146.175781 115.589844 146.175781 126.679688 L 146.175781 152.207031 C 146.175781 158.664062 140.933594 163.90625 134.476562 163.90625 L 27.117188 163.90625 C 20.660156 163.90625 15.417969 158.664062 15.417969 152.207031 L 15.417969 126.679688 C 15.417969 115.589844 19.832031 105.035156 27.667969 97.199219 C 35.503906 89.363281 46.058594 84.949219 57.148438 84.949219 L 59.105469 84.949219 C 57.375 83.722656 55.734375 82.34375 54.210938 80.820312 C 47.140625 73.75 43.195312 64.230469 43.195312 54.230469 C 43.195312 44.234375 47.140625 34.714844 54.210938 27.644531 C 61.277344 20.574219 70.796875 16.632812 80.796875 16.632812 C 90.796875 16.632812 100.316406 20.574219 107.386719 27.644531 Z M 316.480469 0.277344 L 14.8125 0.277344 C 10.773438 0.277344 7.101562 1.925781 4.445312 4.582031 C 1.789062 7.238281 0.140625 10.910156 0.140625 14.949219 L 0.140625 183.105469 L 331.152344 183.105469 L 331.152344 14.949219 C 331.152344 10.910156 329.503906 7.238281 326.847656 4.582031 C 324.191406 1.925781 320.519531 0.277344 316.480469 0.277344 Z M 174.679688 40.660156 C 174.679688 38.234375 176.644531 36.269531 179.070312 36.269531 L 281.910156 36.269531 C 284.332031 36.269531 286.296875 38.234375 286.296875 40.660156 C 286.296875 43.082031 284.332031 45.046875 281.910156 45.046875 L 179.070312 45.046875 C 176.644531 45.046875 174.679688 43.082031 174.679688 40.660156 Z M 174.679688 71.511719 C 174.679688 69.089844 176.644531 67.125 179.070312 67.125 L 281.910156 67.125 C 284.332031 67.125 286.296875 69.089844 286.296875 71.511719 C 286.296875 73.933594 284.332031 75.898438 281.910156 75.898438 L 179.070312 75.898438 C 176.644531 75.898438 174.679688 73.933594 174.679688 71.511719 Z M 174.679688 102.363281 C 174.679688 99.941406 176.644531 97.976562 179.070312 97.976562 L 281.910156 97.976562 C 284.332031 97.976562 286.296875 99.941406 286.296875 102.363281 C 286.296875 104.785156 284.332031 106.75 281.910156 106.75 L 179.070312 106.75 C 176.644531 106.75 174.679688 104.785156 174.679688 102.363281 Z M 174.679688 133.214844 C 174.679688 130.792969 176.644531 128.828125 179.070312 128.828125 L 281.910156 128.828125 C 284.332031 128.828125 286.296875 130.792969 286.296875 133.214844 C 286.296875 135.640625 284.332031 137.605469 281.910156 137.605469 L 179.070312 137.605469 C 176.644531 137.605469 174.679688 135.640625 174.679688 133.214844 Z M 174.679688 133.214844 " fill-opacity="1" fill-rule="evenodd"/></g><path fill="#c0b7a8" d="M 80.796875 23.945312 C 89.160156 23.945312 96.734375 27.335938 102.214844 32.8125 C 107.695312 38.296875 111.085938 45.867188 111.085938 54.230469 C 111.085938 62.59375 107.695312 70.167969 102.214844 75.648438 C 96.734375 81.128906 89.160156 84.519531 80.796875 84.519531 C 72.433594 84.519531 64.863281 81.128906 59.378906 75.648438 C 53.898438 70.167969 50.507812 62.59375 50.507812 54.230469 C 50.507812 45.867188 53.898438 38.296875 59.378906 32.8125 C 64.863281 27.335938 72.433594 23.945312 80.796875 23.945312 Z M 80.796875 23.945312 " fill-opacity="1" fill-rule="nonzero"/><path fill="#c0b7a8" d="M 57.148438 92.261719 L 104.445312 92.261719 C 113.914062 92.261719 122.519531 96.132812 128.757812 102.367188 C 134.992188 108.601562 138.863281 117.210938 138.863281 126.679688 L 138.863281 152.207031 C 138.863281 154.628906 136.898438 156.59375 134.476562 156.59375 L 27.117188 156.59375 C 24.695312 156.59375 22.730469 154.628906 22.730469 152.207031 L 22.730469 126.679688 C 22.730469 117.210938 26.601562 108.601562 32.835938 102.367188 C 39.070312 96.132812 47.679688 92.261719 57.148438 92.261719 Z M 57.148438 92.261719 " fill-opacity="1" fill-rule="nonzero"/><path fill="#c0b7a8" d="M 259.238281 266.300781 L 249.460938 292.375 L 279.640625 292.375 L 270.339844 267.75 C 267.523438 260.273438 265.410156 254.121094 264.042969 249.296875 C 262.90625 255.011719 261.308594 260.664062 259.238281 266.300781 Z M 259.238281 266.300781 " fill-opacity="1" fill-rule="evenodd"/></svg>