<svg xmlns="http://www.w3.org/2000/svg" xmlns:xlink="http://www.w3.org/1999/xlink" width="500" zoomAndPan="magnify" viewBox="0 0 375 374.999991" height="500" preserveAspectRatio="xMidYMid meet" version="1.0"><path fill="#c0b7a8" d="M 251.953125 205.078125 C 251.953125 205.460938 251.914062 205.84375 251.839844 206.222656 C 251.765625 206.597656 251.65625 206.964844 251.507812 207.320312 C 251.359375 207.675781 251.179688 208.011719 250.964844 208.332031 C 250.75 208.652344 250.507812 208.949219 250.238281 209.222656 C 249.964844 209.492188 249.667969 209.734375 249.347656 209.949219 C 249.027344 210.164062 248.691406 210.34375 248.335938 210.492188 C 247.980469 210.636719 247.613281 210.75 247.238281 210.824219 C 246.859375 210.898438 246.476562 210.9375 246.09375 210.9375 C 245.710938 210.9375 245.328125 210.898438 244.949219 210.824219 C 244.574219 210.75 244.207031 210.636719 243.851562 210.492188 C 243.496094 210.34375 243.160156 210.164062 242.839844 209.949219 C 242.519531 209.734375 242.222656 209.492188 241.949219 209.222656 C 241.679688 208.949219 241.4375 208.652344 241.222656 208.332031 C 241.007812 208.011719 240.828125 207.675781 240.679688 207.320312 C 240.53125 206.964844 240.421875 206.597656 240.347656 206.222656 C 240.273438 205.84375 240.234375 205.460938 240.234375 205.078125 C 240.234375 204.695312 240.273438 204.3125 240.347656 203.933594 C 240.421875 203.558594 240.53125 203.191406 240.679688 202.835938 C 240.828125 202.480469 241.007812 202.144531 241.222656 201.824219 C 241.4375 201.503906 241.679688 201.207031 241.949219 200.933594 C 242.222656 200.664062 242.519531 200.421875 242.839844 200.207031 C 243.160156 199.992188 243.496094 199.8125 243.851562 199.664062 C 244.207031 199.515625 244.574219 199.40625 244.949219 199.332031 C 245.328125 199.257812 245.710938 199.21875 246.09375 199.21875 C 246.476562 199.21875 246.859375 199.257812 247.238281 199.332031 C 247.613281 199.40625 247.980469 199.515625 248.335938 199.664062 C 248.691406 199.8125 249.027344 199.992188 249.347656 200.207031 C 249.667969 200.421875 249.964844 200.664062 250.238281 200.933594 C 250.507812 201.207031 250.75 201.503906 250.964844 201.824219 C 251.179688 202.144531 251.359375 202.480469 251.507812 202.835938 C 251.65625 203.191406 251.765625 203.558594 251.839844 203.933594 C 251.914062 204.3125 251.953125 204.695312 251.953125 205.078125 Z M 251.953125 205.078125 " fill-opacity="1" fill-rule="nonzero"/><path fill="#c0b7a8" d="M 117.1875 304.6875 C 117.1875 305.070312 117.148438 305.453125 117.074219 305.832031 C 117 306.207031 116.890625 306.574219 116.742188 306.929688 C 116.59375 307.285156 116.414062 307.621094 116.199219 307.941406 C 115.984375 308.261719 115.742188 308.558594 115.472656 308.832031 C 115.199219 309.101562 114.902344 309.34375 114.582031 309.558594 C 114.261719 309.773438 113.925781 309.953125 113.570312 310.101562 C 113.214844 310.246094 112.847656 310.359375 112.472656 310.433594 C 112.09375 310.507812 111.710938 310.546875 111.328125 310.546875 C 110.945312 310.546875 110.5625 310.507812 110.183594 310.433594 C 109.808594 310.359375 109.441406 310.246094 109.085938 310.101562 C 108.730469 309.953125 108.394531 309.773438 108.074219 309.558594 C 107.753906 309.34375 107.457031 309.101562 107.183594 308.832031 C 106.914062 308.558594 106.671875 308.261719 106.457031 307.941406 C 106.242188 307.621094 106.0625 307.285156 105.914062 306.929688 C 105.765625 306.574219 105.65625 306.207031 105.582031 305.832031 C 105.507812 305.453125 105.46875 305.070312 105.46875 304.6875 C 105.46875 304.304688 105.507812 303.921875 105.582031 303.542969 C 105.65625 303.167969 105.765625 302.800781 105.914062 302.445312 C 106.0625 302.089844 106.242188 301.753906 106.457031 301.433594 C 106.671875 301.113281 106.914062 300.816406 107.183594 300.542969 C 107.457031 300.273438 107.753906 300.03125 108.074219 299.816406 C 108.394531 299.601562 108.730469 299.421875 109.085938 299.273438 C 109.441406 299.125 109.808594 299.015625 110.183594 298.941406 C 110.5625 298.867188 110.945312 298.828125 111.328125 298.828125 C 111.710938 298.828125 112.09375 298.867188 112.472656 298.941406 C 112.847656 299.015625 113.214844 299.125 113.570312 299.273438 C 113.925781 299.421875 114.261719 299.601562 114.582031 299.816406 C 114.902344 300.03125 115.199219 300.273438 115.472656 300.542969 C 115.742188 300.816406 115.984375 301.113281 116.199219 301.433594 C 116.414062 301.753906 116.59375 302.089844 116.742188 302.445312 C 116.890625 302.800781 117 303.167969 117.074219 303.542969 C 117.148438 303.921875 117.1875 304.304688 117.1875 304.6875 Z M 117.1875 304.6875 " fill-opacity="1" fill-rule="nonzero"/><path fill="#c0b7a8" d="M 269.824219 33.691406 C 263.671875 29.296875 256.640625 30.175781 251.367188 32.226562 C 248.730469 26.953125 244.042969 24.023438 237.597656 23.4375 C 234.375 23.4375 231.738281 25.78125 231.445312 29.003906 C 231.152344 32.226562 233.789062 34.863281 237.011719 35.15625 C 239.355469 35.15625 241.40625 35.742188 241.992188 41.308594 C 242.285156 43.652344 243.457031 45.410156 245.507812 46.289062 C 247.558594 47.167969 249.902344 46.582031 251.660156 45.410156 C 251.660156 45.410156 258.105469 39.84375 263.378906 43.359375 C 266.015625 45.117188 269.824219 44.53125 271.582031 41.894531 C 273.339844 39.257812 272.460938 35.742188 269.824219 33.691406 Z M 269.824219 33.691406 " fill-opacity="1" fill-rule="nonzero"/><path fill="#c0b7a8" d="M 70.3125 45.996094 C 71.191406 48.925781 74.707031 50.976562 77.636719 50.097656 C 80.859375 49.21875 82.617188 45.996094 81.738281 42.773438 L 77.929688 29.882812 C 77.050781 26.660156 73.828125 24.902344 70.605469 25.78125 C 67.382812 26.660156 65.625 29.882812 66.503906 33.105469 C 66.503906 33.105469 70.3125 45.996094 70.3125 45.996094 Z M 70.3125 45.996094 " fill-opacity="1" fill-rule="nonzero"/><path fill="#c0b7a8" d="M 50.097656 58.59375 L 39.550781 53.027344 C 36.621094 51.5625 33.105469 52.734375 31.640625 55.664062 C 30.175781 58.59375 31.347656 62.109375 34.277344 63.574219 C 34.277344 63.574219 44.824219 69.140625 44.824219 69.140625 C 47.460938 70.605469 51.269531 69.433594 52.734375 66.503906 C 53.90625 63.574219 53.027344 60.058594 50.097656 58.59375 Z M 50.097656 58.59375 " fill-opacity="1" fill-rule="nonzero"/><path fill="#c0b7a8" d="M 108.398438 50.976562 C 111.035156 52.734375 114.84375 51.5625 116.308594 48.925781 L 122.460938 38.671875 C 124.21875 36.035156 123.339844 32.226562 120.410156 30.761719 C 117.773438 29.003906 113.964844 29.882812 112.5 32.8125 L 106.347656 43.066406 C 104.882812 45.703125 105.761719 49.21875 108.398438 50.976562 Z M 108.398438 50.976562 " fill-opacity="1" fill-rule="nonzero"/><path fill="#c0b7a8" d="M 54.785156 54.199219 C 56.835938 56.542969 60.644531 56.835938 62.988281 54.785156 C 65.332031 52.734375 65.917969 48.925781 63.574219 46.582031 L 55.957031 37.5 C 53.90625 35.15625 50.097656 34.570312 47.753906 36.914062 C 45.410156 39.257812 44.824219 42.773438 47.167969 45.117188 C 47.460938 45.117188 54.785156 54.199219 54.785156 54.199219 Z M 54.785156 54.199219 " fill-opacity="1" fill-rule="nonzero"/><path fill="#c0b7a8" d="M 93.457031 46.582031 C 96.679688 46.875 99.609375 44.824219 99.902344 41.601562 L 101.367188 30.175781 C 101.953125 26.953125 99.609375 24.023438 96.386719 23.4375 C 93.164062 23.144531 90.234375 25.195312 89.941406 28.417969 L 88.476562 39.84375 C 87.890625 43.066406 90.234375 46.289062 93.457031 46.582031 Z M 93.457031 46.582031 " fill-opacity="1" fill-rule="nonzero"/><path fill="#c0b7a8" d="M 131.25 44.824219 L 121.582031 52.148438 C 118.945312 54.199219 118.359375 57.714844 120.410156 60.351562 C 122.167969 62.988281 125.976562 63.28125 128.613281 61.523438 L 138.28125 54.199219 C 140.917969 52.148438 141.503906 48.632812 139.453125 45.996094 C 137.402344 43.359375 133.886719 42.773438 131.25 44.824219 Z M 131.25 44.824219 " fill-opacity="1" fill-rule="nonzero"/><path fill="#c0b7a8" d="M 41.894531 75.292969 L 29.589844 74.414062 C 26.367188 74.121094 23.730469 76.464844 23.4375 79.6875 C 23.144531 82.910156 25.488281 85.839844 28.710938 86.132812 C 28.710938 86.132812 41.308594 87.011719 41.308594 87.011719 C 44.238281 87.011719 46.875 84.667969 47.167969 81.738281 C 47.460938 78.222656 45.117188 75.585938 41.894531 75.292969 Z M 41.894531 75.292969 " fill-opacity="1" fill-rule="nonzero"/><path fill="#c0b7a8" d="M 78.515625 52.441406 C 62.109375 56.835938 51.269531 71.777344 52.148438 88.183594 C 52.441406 91.40625 54.785156 93.75 58.007812 93.75 C 61.230469 93.75 64.160156 90.820312 63.867188 87.597656 C 63.28125 76.464844 70.605469 66.796875 81.738281 63.574219 C 92.578125 60.644531 104.003906 65.039062 109.863281 74.414062 C 111.621094 77.050781 115.136719 77.929688 118.066406 76.171875 C 120.703125 74.414062 121.582031 70.898438 119.824219 67.96875 C 111.328125 54.492188 94.335938 48.046875 78.515625 52.441406 Z M 78.515625 52.441406 " fill-opacity="1" fill-rule="nonzero"/><path fill="#c0b7a8" d="M 351.5625 0 L 23.4375 0 C 10.546875 0 0 10.546875 0 23.4375 L 0 351.5625 C 0 364.453125 10.546875 375 23.4375 375 L 351.5625 375 C 364.453125 375 375 364.453125 375 351.5625 L 375 23.4375 C 375 10.546875 364.453125 0 351.5625 0 Z M 11.71875 155.566406 C 31.640625 153.808594 89.941406 151.757812 160.839844 175.78125 C 170.800781 175.78125 180.761719 176.074219 191.015625 177.246094 C 216.210938 179.882812 241.113281 186.914062 265.722656 192.480469 C 278.613281 195.410156 292.675781 198.632812 307.910156 201.269531 C 285.644531 208.59375 261.914062 217.382812 241.699219 225.585938 L 191.015625 199.21875 C 191.015625 199.21875 190.722656 199.21875 190.722656 198.925781 C 174.023438 191.894531 157.617188 186.328125 142.089844 181.933594 C 142.089844 181.933594 142.089844 181.933594 141.796875 181.933594 C 78.808594 163.769531 28.125 165.820312 11.71875 167.285156 Z M 181.640625 228.515625 C 181.640625 231.738281 179.003906 234.375 175.78125 234.375 C 172.558594 234.375 169.921875 231.738281 169.921875 228.515625 C 169.921875 225.292969 172.558594 222.65625 175.78125 222.65625 C 179.003906 222.65625 181.640625 225.292969 181.640625 228.515625 Z M 93.75 199.21875 C 93.75 202.441406 91.113281 205.078125 87.890625 205.078125 C 84.667969 205.078125 82.03125 202.441406 82.03125 199.21875 C 82.03125 195.996094 84.667969 193.359375 87.890625 193.359375 C 91.113281 193.359375 93.75 195.996094 93.75 199.21875 Z M 52.734375 251.953125 C 52.734375 255.175781 50.097656 257.8125 46.875 257.8125 C 43.652344 257.8125 41.015625 255.175781 41.015625 251.953125 C 41.015625 248.730469 43.652344 246.09375 46.875 246.09375 C 50.097656 246.09375 52.734375 248.730469 52.734375 251.953125 Z M 228.515625 333.984375 C 225.292969 333.984375 222.65625 331.347656 222.65625 328.125 C 222.65625 324.902344 225.292969 322.265625 228.515625 322.265625 C 231.738281 322.265625 234.375 324.902344 234.375 328.125 C 234.375 331.347656 231.738281 333.984375 228.515625 333.984375 Z M 323.4375 337.5 C 326.660156 338.085938 328.710938 341.308594 328.125 344.238281 C 327.539062 347.167969 325.195312 348.925781 322.265625 348.925781 C 321.972656 348.925781 321.679688 348.925781 321.09375 348.925781 C 319.335938 348.632812 317.871094 348.046875 316.40625 347.167969 L 316.40625 363.28125 L 304.6875 363.28125 L 304.6875 347.167969 C 303.222656 348.046875 301.757812 348.632812 300 348.925781 C 296.777344 349.511719 293.847656 347.460938 293.261719 344.238281 C 292.675781 341.015625 294.726562 338.085938 297.949219 337.5 C 301.464844 336.914062 303.222656 332.226562 304.101562 328.417969 C 302.929688 329.003906 301.464844 329.589844 300 329.882812 C 296.777344 330.46875 293.847656 328.417969 293.261719 325.195312 C 292.675781 321.972656 294.726562 319.042969 297.949219 318.457031 C 303.222656 317.578125 304.6875 307.324219 304.980469 304.6875 C 305.273438 301.464844 307.617188 299.121094 310.839844 299.121094 C 314.0625 299.121094 316.40625 301.464844 316.699219 304.6875 C 316.699219 307.324219 318.457031 317.578125 323.730469 318.457031 C 326.953125 319.042969 329.003906 322.265625 328.417969 325.195312 C 327.832031 328.125 325.488281 329.882812 322.558594 329.882812 C 322.265625 329.882812 321.679688 329.882812 321.386719 329.882812 C 319.921875 329.589844 318.457031 329.003906 317.285156 328.417969 C 318.164062 332.226562 319.921875 336.914062 323.4375 337.5 Z M 351.5625 263.671875 C 348.339844 263.671875 345.703125 261.035156 345.703125 257.8125 C 345.703125 254.589844 348.339844 251.953125 351.5625 251.953125 C 354.785156 251.953125 357.421875 254.589844 357.421875 257.8125 C 357.421875 261.035156 354.785156 263.671875 351.5625 263.671875 Z M 363.28125 211.230469 C 306.445312 215.625 199.511719 288.867188 194.824219 291.796875 C 94.921875 355.371094 13.183594 351.5625 12.011719 351.5625 C 12.011719 351.5625 11.71875 351.5625 11.71875 351.5625 L 11.71875 285.644531 C 17.871094 286.523438 27.832031 287.109375 41.015625 287.109375 C 75.585938 287.109375 131.835938 281.835938 198.339844 256.054688 C 199.511719 255.46875 319.042969 203.613281 363.28125 199.511719 Z M 363.28125 132.714844 L 339.84375 116.894531 L 339.84375 95.214844 C 341.308594 96.09375 342.773438 96.679688 344.53125 96.972656 C 347.753906 97.558594 350.683594 95.507812 351.269531 92.285156 C 351.855469 89.0625 349.804688 86.132812 346.582031 85.546875 C 343.066406 84.960938 341.308594 80.273438 340.429688 76.464844 C 341.601562 77.050781 343.066406 77.636719 344.53125 77.929688 C 347.460938 78.515625 350.683594 76.464844 351.269531 73.242188 C 351.855469 70.019531 349.804688 67.089844 346.582031 66.503906 C 341.308594 65.625 339.84375 55.371094 339.550781 52.734375 C 339.257812 49.511719 336.914062 47.167969 333.691406 47.167969 C 330.46875 47.167969 328.125 49.511719 327.832031 52.734375 C 327.539062 55.371094 326.074219 65.625 320.800781 66.503906 C 317.578125 67.089844 315.527344 70.3125 316.113281 73.242188 C 316.699219 76.464844 319.921875 78.515625 322.851562 77.929688 C 324.316406 77.636719 325.78125 77.050781 326.953125 76.464844 C 326.074219 80.273438 324.023438 84.960938 320.800781 85.546875 C 317.578125 86.132812 315.527344 89.355469 316.113281 92.285156 C 316.699219 95.507812 319.921875 97.558594 322.851562 96.972656 C 324.609375 96.679688 326.074219 96.09375 327.539062 95.214844 L 327.539062 108.984375 L 276.269531 74.121094 C 274.21875 72.65625 271.582031 72.949219 269.824219 74.121094 L 224.121094 105.761719 C 222.070312 107.226562 219.433594 107.226562 217.382812 105.761719 L 210.351562 101.074219 C 208.300781 99.609375 205.664062 99.609375 203.90625 101.074219 L 172.558594 122.167969 C 171.679688 122.753906 170.507812 123.046875 169.335938 123.046875 C 167.578125 123.046875 165.527344 122.167969 164.355469 120.410156 C 162.597656 117.773438 163.183594 113.964844 165.820312 112.207031 L 197.167969 91.113281 C 203.027344 87.011719 210.9375 87.011719 216.796875 91.113281 L 220.605469 93.75 L 236.71875 82.617188 L 196.289062 53.90625 C 194.238281 52.441406 191.601562 52.441406 189.550781 53.90625 L 120.410156 99.902344 L 131.542969 108.105469 C 134.179688 109.863281 134.765625 113.671875 132.714844 116.308594 C 131.542969 117.773438 129.785156 118.652344 128.027344 118.652344 C 126.855469 118.652344 125.683594 118.359375 124.511719 117.480469 L 89.355469 92.285156 C 87.597656 90.820312 84.960938 90.820312 82.910156 91.992188 L 11.71875 135.9375 L 11.71875 23.4375 C 11.71875 16.992188 16.992188 11.71875 23.4375 11.71875 L 351.5625 11.71875 C 358.007812 11.71875 363.28125 16.992188 363.28125 23.4375 Z M 363.28125 132.714844 " fill-opacity="1" fill-rule="nonzero"/></svg>