<svg xmlns="http://www.w3.org/2000/svg" xmlns:xlink="http://www.w3.org/1999/xlink" width="412" zoomAndPan="magnify" viewBox="0 0 309 374.999991" height="500" preserveAspectRatio="xMidYMid meet" version="1.0"><defs><clipPath id="8625e986f3"><path d="M 0 0 L 308.871094 0 L 308.871094 375 L 0 375 Z M 0 0 " clip-rule="nonzero"/></clipPath></defs><g clip-path="url(#8625e986f3)"><path fill="#c0b7a8" d="M 93.082031 70.703125 L 95.609375 69.035156 L 96.898438 65.835938 L 98.617188 61.898438 C 98.617188 61.898438 104.488281 56.601562 104.535156 56.21875 C 104.605469 55.835938 104.535156 53.1875 104.535156 53.1875 L 102.816406 49.679688 L 101.695312 48.203125 L 101.933594 45.125 L 100.953125 43.882812 L 99.285156 42.953125 L 98.808594 36.960938 L 94.417969 33.691406 L 94.058594 31.449219 L 93.722656 26.796875 L 89.070312 25.390625 L 86.230469 24.648438 L 84.011719 23.457031 L 84.011719 22.191406 L 85.132812 19.804688 L 85.253906 14.867188 L 80.625 9.6875 L 81.269531 8.898438 L 83.726562 8.734375 L 85.039062 7.96875 L 86.734375 6.25 L 87.59375 4.867188 L 87.925781 4.175781 L 88.59375 0.453125 L 89.714844 0.0703125 L 90.242188 0.691406 L 91.933594 2.265625 L 92.578125 3.722656 L 92.839844 4.773438 L 95.203125 5.296875 L 95.632812 7.15625 L 95.96875 7.371094 L 96.277344 9.617188 L 99.046875 13.125 L 99.402344 13.480469 L 100.359375 13.457031 L 102.578125 11 L 104.867188 10.808594 L 105.273438 10.285156 L 106.394531 10.070312 L 106.632812 9.617188 L 107.253906 8.972656 L 108.398438 8.875 L 108.613281 8.28125 L 109.523438 8.304688 L 110.261719 8.921875 L 110.546875 9.257812 C 110.546875 9.257812 110.953125 9.304688 110.976562 9.210938 C 111 9.136719 111.238281 8.28125 111.238281 8.28125 L 112.335938 8.066406 L 112.625 7.5625 L 113.125 7.277344 L 113.363281 6.894531 L 113.769531 6.25 L 114.269531 6.109375 L 114.507812 5.605469 L 115.226562 5.582031 C 115.226562 5.582031 115.628906 6.035156 115.679688 6.058594 C 115.726562 6.082031 116.539062 6.25 116.539062 6.25 L 117.0625 6.800781 L 118.851562 7.039062 L 119.1875 7.347656 L 124.625 7.5625 L 125.152344 8.230469 L 125.699219 11.382812 L 125.9375 16.726562 L 127.109375 18.109375 L 129.589844 20.019531 L 132.574219 22.335938 L 133.097656 23.503906 L 134.21875 24.386719 L 135.769531 25.652344 L 138.65625 27.011719 L 139.136719 27.488281 L 142.617188 27.609375 L 143.714844 28.417969 L 144.503906 28.847656 L 144.742188 29.96875 L 145.125 30.183594 L 145.410156 31.402344 L 145.839844 31.640625 L 146.367188 32.546875 L 147.941406 32.929688 L 148.441406 33.453125 L 151.425781 33.527344 L 153.597656 35.246094 L 154.644531 36.199219 L 155.148438 36.484375 L 156.601562 36.867188 L 158.082031 36.507812 L 158.511719 36.222656 L 159.179688 36.199219 L 159.417969 36.53125 L 160.398438 36.84375 L 160.800781 40.949219 L 161.253906 41.328125 L 161.253906 43.667969 L 161.757812 44.074219 L 162.066406 45.957031 L 162.519531 46.078125 L 163.378906 47.320312 L 166.003906 48.820312 L 167.507812 49.5625 L 168.652344 50.398438 L 169.082031 51.351562 L 169.417969 52.542969 L 170.179688 53.402344 L 170.609375 53.808594 L 171.566406 54.121094 L 172.710938 54.144531 L 173.210938 54.070312 L 173.664062 53.855469 L 174 53.425781 L 175.3125 53.5 L 175.621094 55.574219 L 175.167969 56.125 L 175.3125 61.136719 C 175.3125 61.136719 177.53125 66.480469 181.539062 69.199219 L 184.855469 70.394531 L 187.457031 71.585938 L 189.460938 73.160156 L 191.226562 75.785156 C 191.226562 75.785156 193.136719 83.160156 200.988281 84.878906 L 205.925781 85.164062 L 207.5 85.738281 L 208.625 86.523438 L 209.53125 87.265625 L 214.636719 87.480469 L 215.257812 88.003906 L 215.664062 89.199219 L 215.949219 92.324219 L 216.355469 92.632812 L 216.902344 94.183594 L 217.667969 94.734375 L 219.003906 95.402344 L 219.386719 95.832031 L 223.800781 96.140625 L 224.539062 100.792969 L 224.945312 101.128906 L 225.921875 101.4375 L 226.378906 100.792969 L 227.1875 100.605469 L 228.359375 99.648438 L 229.3125 98.695312 L 230.289062 98.695312 L 231.171875 98.839844 L 231.699219 99.484375 L 231.9375 99.863281 L 232.222656 100.03125 L 232.605469 100.4375 L 233.441406 100.652344 L 234.179688 100.652344 L 234.5625 100.554688 L 234.800781 100.054688 L 235.707031 100.078125 L 235.875 101.128906 L 236.566406 102.105469 L 237.066406 102.632812 L 237.734375 102.632812 L 238.1875 102.226562 L 239 102.011719 L 239.929688 101.464844 C 239.929688 101.464844 240.597656 101.035156 240.671875 100.984375 C 240.742188 100.9375 241.339844 100.605469 241.339844 100.605469 L 241.695312 100.199219 L 242.4375 100.125 L 243.558594 100.03125 L 244.132812 100.101562 L 244.800781 100.960938 L 245.253906 102.132812 L 245.847656 102.964844 L 246.230469 103.96875 L 246.730469 104.996094 L 247.234375 105.613281 L 247.449219 106.140625 L 247.449219 106.953125 L 254.84375 113.273438 L 257.898438 116.566406 L 258.113281 117.476562 L 259.808594 119.050781 L 260.785156 120.457031 L 262.363281 122.222656 L 262.863281 123.128906 L 266.15625 125.683594 L 267.921875 126.660156 L 268.78125 127.234375 L 269.785156 128.1875 L 270.355469 128.714844 L 270.640625 129.214844 L 272.671875 129.214844 L 273.316406 128.476562 L 274.199219 127.378906 L 274.84375 126.566406 L 275.199219 126.160156 L 275.675781 125.898438 L 275.75 127.304688 L 276.371094 127.332031 L 276.464844 127.925781 L 279.113281 128.046875 L 279.304688 128.570312 L 281 128.859375 L 281.785156 129.527344 L 282.765625 130.074219 L 283.050781 130.742188 L 283.71875 130.910156 L 284.054688 130.71875 L 287.132812 130.695312 L 290.617188 134.105469 L 291.714844 134.988281 L 293.621094 135.203125 L 296.128906 135.394531 L 296.507812 135.824219 L 297.511719 136.136719 L 298.300781 136.707031 L 298.992188 137.425781 L 302.378906 137.425781 L 303.238281 137.925781 L 303.859375 138.472656 L 304.382812 139.929688 L 305.101562 140.980469 L 305.910156 141.648438 L 307.675781 142.601562 L 307.605469 151.859375 L 308.128906 152.578125 L 308.34375 153.839844 L 308.988281 154.222656 L 308.988281 159.332031 L 305.601562 159.332031 L 305.386719 158.78125 L 304.097656 158.660156 L 303.761719 158.066406 L 300.207031 157.992188 L 299.921875 158.613281 L 299.445312 158.757812 L 298.730469 158.113281 L 298.179688 157.921875 L 297.773438 157.324219 L 297.390625 157.039062 L 296.628906 157.207031 L 296.054688 157.613281 L 295.625 158.089844 L 295.554688 159.878906 L 294.816406 160.546875 L 293.527344 161.214844 L 292.476562 161.738281 L 291.832031 161.90625 L 292.785156 163.839844 L 293.429688 164.9375 L 294.171875 165.75 L 294.289062 169.589844 L 293.214844 170.855469 L 292.546875 171.761719 L 292.191406 172.453125 L 291.617188 172.859375 L 291.234375 173.289062 L 291.617188 173.765625 L 291.570312 174.722656 L 286.941406 174.722656 L 286.628906 175.34375 L 285.554688 175.34375 L 285.152344 174.625 L 283.863281 174.699219 L 283.648438 175.53125 L 282.765625 175.4375 L 282.335938 174.648438 L 281.402344 173.097656 L 281.070312 172.050781 L 280.664062 171.644531 L 280.234375 171.164062 L 280.09375 170.570312 L 278.398438 170.570312 L 276.679688 172.214844 L 275.820312 172.8125 L 275.058594 172.933594 L 274.769531 173.335938 L 274.054688 173.335938 L 271.597656 171.761719 L 268.925781 170.117188 L 267.207031 169.351562 L 266.25 169.019531 L 265.417969 168.636719 L 261.980469 168.613281 L 260.070312 169.496094 L 257.328125 172.023438 L 255.726562 174.269531 L 255.058594 174.984375 L 254.941406 176.273438 L 254.390625 176.679688 L 254.535156 180.042969 L 254.75 180.328125 L 254.34375 182.453125 L 253.769531 182.835938 L 253.796875 184.695312 L 254.894531 185.769531 L 256.0625 186.128906 L 259.929688 189.800781 L 262.363281 189.800781 L 262.480469 190.351562 L 264.34375 190.519531 L 264.4375 191.089844 L 265.632812 191.472656 L 265.703125 194.050781 L 267.207031 195.21875 L 267.875 196.101562 L 268.398438 196.484375 L 268.375 198.609375 L 267.375 199.609375 L 266.488281 200.96875 L 265.726562 201.636719 L 265.105469 202.210938 L 264.988281 204.8125 L 264.34375 205.144531 L 264.535156 208.390625 L 265.488281 209.964844 L 266.109375 211.542969 L 266.441406 213.1875 L 266.441406 215.859375 L 265.65625 216.480469 L 264.535156 217.148438 L 261.789062 217.363281 L 260.597656 217.984375 L 260.359375 219.226562 L 259.832031 220.0625 L 256.371094 220.0625 L 255.324219 220.917969 L 255.082031 223.449219 L 254.65625 223.832031 L 254.34375 226.863281 L 253.890625 227.410156 L 253.769531 228.484375 L 252.410156 229.152344 L 251.601562 228.652344 L 247.398438 228.578125 L 246.898438 229.320312 L 244.847656 229.152344 L 244.632812 228.699219 L 244.511719 228.386719 L 243.988281 227.363281 L 242.84375 227.265625 L 241.601562 227.339844 L 241.21875 227.839844 L 240.910156 228.484375 L 240.167969 228.867188 L 239.574219 229.535156 L 239.191406 229.914062 L 237.257812 230.296875 L 236.660156 231.324219 L 236.542969 232.589844 L 236.445312 234.472656 L 236.207031 234.59375 L 235.828125 233.949219 L 235.160156 233.851562 L 234.753906 233.304688 L 233.105469 233.234375 L 233.035156 233.6875 L 232.535156 233.996094 L 232.390625 235.261719 L 229.289062 235.429688 L 229.121094 235.90625 L 226.542969 236.023438 L 226.425781 236.527344 L 225.921875 236.765625 L 225.78125 238.699219 L 225.28125 238.984375 L 224.421875 239.292969 L 223.5625 239.292969 L 221.675781 237.121094 L 220.125 236.167969 L 218.933594 235.09375 L 217.667969 233.160156 L 216.59375 231.992188 C 216.59375 231.992188 215.019531 230.535156 214.945312 230.394531 C 214.875 230.25 214.328125 228.816406 214.328125 228.816406 L 213.800781 227.886719 L 213.660156 226.480469 L 213.039062 225.691406 L 212.800781 224.476562 L 212.132812 223.972656 L 211.675781 223.59375 L 211.605469 222.328125 L 212.058594 221.96875 L 212.296875 221.277344 L 212.800781 220.945312 L 212.800781 217.316406 L 212.320312 216.71875 L 212.25 215.074219 L 212.800781 214.691406 L 213.324219 214.023438 L 213.707031 213.664062 L 214.828125 213.164062 L 214.898438 210.15625 L 214.375 209.726562 L 214.136719 208.703125 L 213.632812 208.488281 L 213.132812 207.4375 L 212.703125 206.269531 L 212.320312 205.910156 L 212.371094 203.429688 L 212.894531 203.046875 L 212.964844 200.492188 L 209.695312 196.984375 L 209.433594 196.554688 L 207.214844 196.484375 L 206.667969 197.34375 L 205.878906 198.824219 L 205.210938 199.777344 L 204.234375 200.660156 L 203.0625 201.160156 L 201.128906 201.304688 L 200.511719 201.664062 L 198.957031 203.285156 L 189.914062 215.621094 L 189.722656 223.832031 L 188.578125 224.378906 L 188.433594 225.238281 L 183.996094 228.414062 L 181.921875 230.511719 L 182.0625 232.851562 L 181.753906 234.1875 L 179.25 237.433594 L 177.746094 240.679688 L 176.410156 243.277344 L 175.742188 244.542969 L 174.882812 245.6875 L 174.355469 246.023438 L 172.972656 246.023438 L 171.898438 247.144531 L 171.085938 248.648438 L 170.441406 250.152344 L 170.394531 251.464844 C 170.394531 251.464844 169.488281 256.355469 165.097656 257.789062 L 162.496094 259.265625 L 160.46875 260.4375 L 159.011719 262.34375 L 158.605469 264.875 L 158.511719 269.742188 L 157.988281 270.386719 L 157.746094 272.414062 L 157.320312 273.058594 L 156.9375 273.988281 L 155.550781 275.875 L 154.265625 277.425781 L 153.191406 278.929688 L 153.308594 281.648438 L 152.640625 283.25 L 137.703125 302.863281 L 153.929688 319.59375 L 153.953125 321.285156 L 152.070312 327.394531 L 151.042969 332.238281 L 150.542969 334.242188 L 150.492188 338.609375 L 151.113281 338.609375 L 151.1875 347.582031 L 151.855469 348.992188 L 152.332031 349.730469 L 152.855469 350.398438 L 153.308594 350.519531 L 153.308594 350.972656 L 150.757812 351.113281 L 150.542969 351.472656 L 148.75 351.734375 L 147.941406 352.664062 L 147.296875 353.214844 L 147.273438 354.457031 L 147.941406 355.769531 L 148.585938 356.746094 L 149.0625 357.628906 L 149.921875 358.558594 L 150.375 359.226562 L 150.398438 359.753906 L 149.992188 360.398438 L 149.324219 360.921875 L 148.273438 361.257812 L 147.175781 361.757812 L 146.605469 361.996094 L 145.9375 362.355469 L 145.910156 363.90625 L 146.796875 364.597656 L 148.15625 365.21875 L 148.992188 365.597656 L 149.824219 366.195312 L 150.46875 366.648438 L 151.042969 366.769531 L 151.710938 367.390625 L 151.855469 369.394531 L 151.28125 369.941406 L 151.160156 372.710938 L 150.589844 373.066406 L 150.542969 374.164062 L 149.945312 374.429688 L 149.96875 374.929688 L 148.992188 374.929688 L 148.488281 374.355469 L 148.179688 373.617188 L 147.796875 373.332031 L 146.414062 373.019531 L 146.484375 372.757812 L 147.152344 372.160156 L 148.488281 372.183594 L 148.511719 370.945312 L 148.511719 370.226562 L 147.628906 370.15625 L 146.605469 370.132812 L 146.53125 370.898438 L 144.457031 370.824219 L 143.40625 369.703125 C 143.40625 369.703125 138.945312 364.691406 131.570312 362.832031 L 131.1875 362.304688 L 128.183594 362.234375 L 126.464844 360.585938 L 125.054688 360.109375 L 122.742188 358.511719 L 121.144531 357.75 L 119.425781 356.914062 L 115.820312 353.570312 L 116.585938 353.5 L 117.515625 353.785156 L 117.875 353.070312 L 117.707031 352.09375 L 116.992188 351.160156 L 115.773438 350.039062 L 114.582031 348.992188 L 114.339844 347.894531 L 113.816406 347.652344 L 113.769531 346.890625 L 115.652344 346.84375 L 115.628906 345.078125 L 114.484375 344.789062 L 114.4375 344.148438 L 115.105469 343.90625 L 115.082031 343.214844 L 114.53125 343.074219 L 114.460938 340.996094 L 115.105469 340.878906 L 115.128906 338.585938 L 114.484375 338.371094 L 114.460938 337.585938 L 115.128906 337.511719 L 115.152344 335.722656 L 114.628906 335.605469 L 113.9375 334.933594 L 113.722656 333.074219 L 113.195312 332.953125 L 111.742188 330.972656 L 109.1875 329.257812 L 106.800781 327.730469 L 105.082031 326.320312 L 103.890625 324.339844 L 103.148438 323.769531 L 105.609375 323.480469 L 105.847656 322.886719 L 106.515625 322.597656 L 106.441406 319.402344 L 103.699219 316.753906 L 102.363281 316.058594 L 99.761719 312.550781 L 95.324219 312.386719 L 95.179688 311.214844 L 93.675781 311.121094 L 93.4375 311.957031 L 92.53125 311.90625 L 92.386719 310.332031 L 92.078125 308.878906 L 91.695312 307.230469 L 89.285156 307.085938 L 88.285156 305.824219 L 87.640625 305.25 L 86.921875 305.035156 L 86.566406 304.628906 L 85.96875 304.25 L 85.945312 303.03125 L 86.613281 302.839844 L 86.542969 300.429688 L 85.753906 299.808594 L 84.25 299.761719 L 83.414062 299 L 80.816406 297.472656 L 79.453125 296.636719 L 78.523438 295.371094 C 78.523438 295.371094 77.472656 295.0625 77.378906 295.035156 C 77.28125 295.011719 76.398438 293.652344 76.398438 293.652344 L 76.019531 293.246094 L 76.019531 291.578125 L 75.445312 291.003906 L 74.96875 290.335938 L 74.109375 289.761719 L 74.632812 289.167969 L 74.492188 285.898438 L 73.417969 284.726562 L 73.105469 282.722656 L 71.914062 281.746094 L 70.984375 281.148438 L 69.433594 281.125 L 68.980469 281.410156 L 68.667969 282.746094 L 67.90625 282.507812 L 67.761719 280.910156 L 66.925781 279.765625 L 65.804688 279.621094 L 64.96875 280.335938 L 63.609375 281.839844 L 62.417969 281.507812 L 61.269531 280.765625 L 60.816406 280.027344 L 60.101562 279.90625 L 59.503906 280.148438 L 59.503906 281.269531 L 58.789062 281.554688 L 57.738281 281.316406 L 57.117188 280.816406 L 56.59375 280.601562 L 56.09375 280.792969 L 56.09375 281.410156 L 55.425781 281.746094 L 54.683594 281.960938 L 53.753906 282.054688 L 50.628906 279.191406 L 49.675781 277.710938 L 48.3125 276.542969 L 47.597656 274.96875 L 46.882812 274.632812 L 46.070312 273.226562 L 45.332031 272.558594 L 44.664062 272.152344 L 44.160156 271.722656 L 44.042969 271.339844 L 44.855469 270.960938 C 44.855469 270.960938 44.828125 268.90625 44.78125 268.859375 C 44.734375 268.8125 44.042969 268.476562 44.042969 268.476562 C 44.042969 268.476562 43.921875 267.453125 43.921875 267.402344 C 43.921875 267.355469 42.992188 266.734375 42.921875 266.664062 C 42.847656 266.59375 41.941406 265.875 41.941406 265.875 L 41.226562 265.257812 L 41.226562 264.613281 L 43.351562 264.539062 L 43.277344 263.417969 L 43.230469 262.558594 L 40.988281 260.363281 L 40.988281 259.769531 L 41.105469 258.789062 L 40.296875 257.714844 L 39.914062 257.359375 L 36.261719 257.429688 L 36.023438 257.882812 L 34.925781 258.265625 L 34.664062 259.265625 L 34.949219 260.078125 L 35.261719 260.578125 L 34.734375 260.960938 L 34.761719 262.105469 L 33.972656 262.035156 L 33.449219 261.222656 L 32.851562 260.890625 L 32.183594 261.054688 L 31.65625 261.414062 L 31.300781 262.179688 L 27.957031 262.011719 L 21.421875 257 C 21.421875 257 17.601562 252.894531 17.722656 250.867188 C 17.839844 248.839844 19.367188 248.195312 19.367188 248.195312 L 20.632812 247.882812 L 24.332031 248.074219 L 27.003906 249.101562 L 33.019531 251.84375 L 36.097656 253.707031 L 38.480469 254.398438 L 40.941406 254.28125 L 42.585938 255.257812 L 44.351562 256.570312 L 45.332031 257.308594 L 45.570312 255.664062 L 45.234375 254.636719 L 43.660156 253.683594 L 41.105469 252.417969 L 39.792969 251.964844 L 40.582031 251.632812 L 43.421875 252.585938 L 45.140625 252.203125 L 44.519531 250.03125 L 43.085938 249.292969 C 43.085938 249.292969 41.941406 248.550781 41.847656 248.21875 C 41.777344 247.882812 41.511719 246.117188 41.511719 246.117188 L 40.558594 245.953125 L 40.511719 240.511719 L 41.082031 239.722656 L 41.296875 238.484375 L 43.636719 238.410156 L 45.640625 239.101562 L 47.527344 240.175781 L 49.21875 241.320312 L 50.628906 243.566406 L 51.035156 245.257812 C 51.035156 245.257812 51.582031 247.144531 51.628906 247.265625 C 51.65625 247.382812 51.941406 248.671875 51.941406 248.671875 L 52.894531 249.101562 L 54.28125 248.980469 L 54.46875 246.953125 L 53.324219 246.214844 L 53.085938 234.761719 L 51.488281 234.734375 L 51.152344 235.140625 L 49.054688 235.570312 C 49.054688 235.570312 48.601562 236 48.503906 236 C 48.410156 236 44.160156 236.191406 43.898438 236.023438 C 43.660156 235.882812 41.777344 234.976562 41.777344 234.976562 L 41.226562 233.804688 L 41.441406 232.996094 C 41.441406 232.996094 41.917969 232.828125 41.917969 232.753906 C 41.917969 232.683594 41.824219 229.4375 41.824219 229.4375 L 41.464844 229.03125 L 39.960938 229.367188 L 38.53125 230.941406 L 35.523438 233.136719 L 34.546875 233.851562 L 34.6875 236.074219 L 38.003906 236.144531 L 38.386719 236.644531 L 39.890625 236.882812 L 39.960938 238.101562 L 39.199219 239.605469 L 38.457031 241.011719 L 36.765625 241.75 L 36.023438 242.5625 L 35.378906 243.828125 L 33.351562 244.402344 L 31.945312 245.257812 C 31.945312 245.257812 30.796875 245.664062 30.726562 245.6875 C 30.65625 245.714844 28.53125 246.167969 28.53125 246.167969 L 27.933594 246.667969 L 25.859375 246.714844 C 25.859375 246.714844 24.546875 246.070312 24.449219 245.929688 C 24.355469 245.785156 21.851562 243.351562 21.851562 243.351562 L 21.730469 242.683594 L 19.558594 242.707031 L 19.34375 243.113281 L 18.484375 243.421875 L 16.480469 243.566406 L 15.335938 243.253906 L 14.09375 242.300781 L 13.570312 241.296875 L 13.234375 240.867188 L 11.972656 241.824219 L 11.039062 242.324219 L 10.800781 243.328125 L 10.800781 243.945312 L 13.257812 247.453125 L 14.070312 248.074219 L 14.167969 248.957031 L 11.921875 248.886719 L 8.582031 243.875 C 8.582031 243.875 5.242188 238.886719 0.351562 235.570312 L -0.128906 235.261719 L -0.0078125 233.972656 L 0.875 233.207031 L 1.519531 231.96875 L 2.019531 231.824219 L 1.972656 228.890625 L 1.519531 228.53125 L 1.207031 226.910156 L 0.660156 226.695312 L 0.660156 220.539062 L 1.972656 219.417969 L 3.667969 219.226562 L 4.859375 218.773438 L 6.148438 218.390625 L 7.9375 217.484375 L 9.25 216.289062 C 9.25 216.289062 10.585938 214.882812 10.632812 214.882812 C 10.683594 214.882812 11.351562 214 11.351562 214 L 14.738281 214.046875 L 15.050781 214.570312 L 15.480469 214.859375 L 15.910156 215.265625 L 16.933594 215.8125 L 17.746094 216.027344 L 18.414062 215.8125 L 18.675781 215.238281 L 19.152344 215.167969 L 19.226562 212.1875 L 18.699219 211.945312 L 18.320312 210.632812 L 17.792969 209.65625 L 17.125 209.179688 L 16.457031 208.582031 L 15.859375 208.082031 L 15.074219 207.675781 L 14.40625 207.152344 L 13.878906 206.410156 L 13.925781 205.910156 L 14.738281 204.621094 L 15.980469 203.667969 L 16.792969 203.140625 L 17.484375 202.855469 L 17.984375 202.042969 L 18.507812 201.664062 L 18.820312 200.300781 L 19.320312 199.539062 L 19.367188 196.246094 L 19.582031 195.671875 L 19.917969 189.46875 L 20.488281 188.65625 L 20.65625 184.410156 L 17.769531 183.214844 L 13.976562 182.070312 L 11.46875 180.996094 L 8.679688 179.46875 L 6.671875 177.992188 L 6.003906 176.535156 L 5.886719 171.808594 L 5.359375 171.140625 L 5.359375 169.398438 L 4.929688 168.875 L 5.359375 167.46875 L 6.410156 167.085938 L 7.53125 166.585938 L 8.34375 166.488281 L 8.628906 166.128906 L 9.25 165.75 L 9.296875 162.835938 C 9.296875 162.835938 8.773438 162.144531 8.773438 162.050781 C 8.773438 161.980469 8.152344 160.785156 8.152344 160.785156 L 7.390625 159.519531 L 7.199219 158.257812 L 6.601562 157.777344 L 6.671875 155.796875 L 10.515625 152.363281 L 10.585938 148.164062 L 10.96875 147.660156 L 11.421875 146.921875 L 12.328125 146.324219 L 12.472656 145.941406 L 11.972656 145.203125 L 11.113281 144.414062 L 9.894531 143.699219 C 9.894531 143.699219 8.917969 142.746094 8.917969 142.675781 C 8.894531 142.601562 7.4375 140.742188 7.4375 140.742188 L 7.367188 138.617188 L 7.769531 138.425781 L 8.058594 134.917969 L 8.582031 134.273438 L 8.726562 130.050781 L 9.226562 129.550781 L 9.394531 127.640625 L 9.847656 127.304688 L 10.179688 126.78125 L 10.96875 126.542969 L 11.589844 126.019531 C 11.589844 126.019531 11.945312 125.398438 11.996094 125.375 C 12.042969 125.347656 12.449219 125.085938 12.519531 124.992188 C 12.589844 124.894531 12.78125 123.988281 12.78125 123.988281 L 13.210938 123.796875 L 13.425781 120.695312 L 13.878906 120.503906 L 14.046875 118.789062 L 14.570312 118.691406 L 14.738281 117.523438 L 16.480469 117.402344 L 17.316406 116.902344 L 34.808594 116.664062 L 35.929688 115.542969 L 35.953125 106.808594 L 35.546875 106.070312 L 35.046875 102.417969 L 34.710938 102.035156 L 34.640625 98.765625 L 33.925781 98.335938 L 33.949219 89.722656 L 34.449219 89.199219 L 34.59375 87.191406 L 35.09375 86.738281 L 35.378906 84.925781 L 43.828125 74.902344 L 43.945312 73.734375 L 44.496094 73.402344 L 44.519531 70.585938 L 44.019531 70.417969 L 43.875 69.199219 L 43.351562 69.105469 L 43.230469 67.722656 L 44.472656 66.433594 L 47.980469 63.617188 L 52.371094 60.871094 L 55.089844 59.585938 L 57.117188 58.867188 L 60.171875 58.199219 L 61.867188 57.601562 L 65.042969 56.101562 L 67.046875 54.953125 L 67.476562 53.976562 L 67.261719 53.308594 L 66.949219 52.164062 L 66.617188 51.925781 L 66.449219 50.46875 L 65.804688 49.824219 L 65.875 47.722656 L 66.664062 47.078125 L 68 46.4375 L 72.128906 46.292969 L 72.628906 45.792969 L 74.777344 45.648438 L 75.039062 45.097656 L 77.117188 44.957031 C 77.117188 44.957031 79.667969 50.347656 83.34375 51.78125 C 83.34375 51.78125 83.441406 52.210938 83.535156 52.210938 C 83.628906 52.210938 83.964844 52.378906 83.964844 52.378906 L 83.988281 53.332031 L 83.25 54.285156 L 82.628906 55.121094 L 82.675781 58.75 L 83.34375 59.105469 L 83.894531 59.632812 L 84.679688 59.894531 L 86.136719 60.441406 L 87.066406 61.492188 L 87.832031 62.878906 L 87.949219 66.171875 L 88.761719 66.886719 L 90 67.699219 L 90.886719 68.222656 L 91.816406 69.007812 L 92.4375 69.703125 L 92.601562 70.488281 Z M 93.082031 70.703125 " fill-opacity="1" fill-rule="nonzero"/></g></svg>