<svg xmlns="http://www.w3.org/2000/svg" xmlns:xlink="http://www.w3.org/1999/xlink" width="467" zoomAndPan="magnify" viewBox="0 0 350.25 374.999991" height="500" preserveAspectRatio="xMidYMid meet" version="1.0"><defs><clipPath id="8d63fd20be"><path d="M 35 254 L 307 254 L 307 374.597656 L 35 374.597656 Z M 35 254 " clip-rule="nonzero"/></clipPath></defs><path fill="#c0b7a8" d="M 0.109375 252.847656 L 26.394531 252.847656 L 26.394531 357.988281 L 0.109375 357.988281 Z M 0.109375 252.847656 " fill-opacity="1" fill-rule="nonzero"/><g clip-path="url(#8d63fd20be)"><path fill="#c0b7a8" d="M 285.605469 299.003906 L 195.136719 311.933594 L 189.304688 315.679688 C 181.042969 320.984375 171.511719 323.53125 161.984375 323.207031 C 156.203125 323.011719 150.425781 321.75 144.941406 319.40625 L 121.164062 309.265625 L 124.597656 301.199219 L 148.382812 311.347656 C 160.226562 316.421875 174.953125 314.457031 185.027344 308.019531 C 185.414062 307.09375 184.855469 304.070312 184.34375 302.136719 C 182.773438 296.226562 178.730469 291.265625 173.261719 288.527344 L 112.617188 258.207031 C 105.394531 254.609375 97.386719 253.3125 89.417969 254.441406 L 35.164062 262.191406 L 35.164062 348.476562 L 169.601562 373.683594 C 172 374.132812 174.421875 374.363281 176.847656 374.363281 C 181.351562 374.363281 185.851562 373.589844 190.128906 372.058594 L 294.46875 334.792969 C 301.824219 332.164062 306.769531 325.15625 306.769531 317.34375 C 306.769531 311.964844 304.441406 306.867188 300.378906 303.339844 C 296.296875 299.828125 290.910156 298.214844 285.605469 299.003906 Z M 285.605469 299.003906 " fill-opacity="1" fill-rule="nonzero"/></g><path fill="#c0b7a8" d="M 236.90625 68.859375 L 148.808594 68.859375 C 146.820312 86.773438 132.78125 101.105469 115 103.542969 C 125.882812 150.273438 150.496094 189.394531 190.128906 222.996094 C 191.730469 224.351562 194.152344 224.40625 195.761719 223.105469 C 232.734375 193.203125 257.890625 152.980469 270.589844 103.527344 C 252.871094 101.039062 238.886719 86.734375 236.90625 68.859375 Z M 227.902344 156.46875 L 210.382812 156.46875 L 210.382812 173.988281 L 175.339844 173.988281 L 175.339844 156.46875 L 157.820312 156.46875 L 157.820312 121.425781 L 175.339844 121.425781 L 175.339844 103.90625 L 210.382812 103.90625 L 210.382812 121.425781 L 227.902344 121.425781 Z M 227.902344 156.46875 " fill-opacity="1" fill-rule="nonzero"/><path fill="#c0b7a8" d="M 201.617188 112.664062 L 184.097656 112.664062 L 184.097656 130.191406 L 166.570312 130.191406 L 166.570312 147.710938 L 184.097656 147.710938 L 184.097656 165.238281 L 201.617188 165.238281 L 201.617188 147.710938 L 219.144531 147.710938 L 219.144531 130.191406 L 201.617188 130.191406 Z M 201.617188 112.664062 " fill-opacity="1" fill-rule="nonzero"/><path fill="#c0b7a8" d="M 315.554688 34.222656 C 281.722656 0.394531 226.695312 0.378906 192.859375 34.191406 C 159.011719 0.386719 103.984375 0.386719 70.160156 34.222656 C 36.332031 68.054688 36.332031 123.113281 70.160156 156.953125 L 177.492188 264.285156 C 181.730469 268.519531 187.285156 270.628906 192.859375 270.628906 C 198.421875 270.628906 203.984375 268.511719 208.222656 264.285156 L 315.554688 156.953125 C 349.382812 123.121094 349.382812 68.0625 315.554688 34.222656 Z M 280.351562 100.535156 C 267.636719 154.230469 241.027344 197.765625 201.269531 229.914062 C 198.871094 231.855469 195.949219 232.828125 193.023438 232.828125 C 189.96875 232.828125 186.921875 231.777344 184.453125 229.679688 C 141.902344 193.605469 116.011719 151.324219 105.332031 100.425781 L 104.226562 95.144531 L 109.625 95.144531 C 126.53125 95.144531 140.292969 81.390625 140.292969 64.480469 L 140.292969 60.097656 L 245.429688 60.097656 L 245.429688 64.480469 C 245.429688 81.382812 259.183594 95.144531 276.097656 95.144531 L 281.636719 95.144531 Z M 280.351562 100.535156 " fill-opacity="1" fill-rule="nonzero"/></svg>