<svg xmlns="http://www.w3.org/2000/svg" xmlns:xlink="http://www.w3.org/1999/xlink" width="500" zoomAndPan="magnify" viewBox="0 0 375 370.499989" height="494" preserveAspectRatio="xMidYMid meet" version="1.0"><defs><clipPath id="cd50cb9f25"><path d="M 0.253906 0 L 373 0 L 373 370 L 0.253906 370 Z M 0.253906 0 " clip-rule="nonzero"/></clipPath></defs><g clip-path="url(#cd50cb9f25)"><path fill="#c0b7a8" d="M 311.773438 132.710938 L 329.085938 114.628906 C 337.628906 105.703125 351.878906 105.40625 360.808594 113.953125 L 365.90625 118.84375 L 365.929688 118.84375 C 374.8125 127.722656 375.019531 141.589844 366.410156 150.566406 L 366.433594 150.589844 C 366.347656 150.65625 366.273438 150.726562 366.1875 150.816406 L 306.578125 213.03125 L 306.578125 314.199219 C 306.578125 317.730469 303.722656 320.609375 300.191406 320.609375 L 139.484375 320.609375 C 130.085938 349.589844 102.941406 369.90625 71.601562 369.90625 C 32.203125 369.90625 0.257812 337.984375 0.257812 298.5625 C 0.257812 269.8125 17.386719 244.507812 42.828125 233.269531 L 42.828125 6.550781 C 42.828125 3.019531 45.679688 0.164062 49.210938 0.164062 L 300.164062 0.164062 C 303.699219 0.164062 306.550781 3.019531 306.550781 6.550781 L 306.550781 138.144531 Z M 325.640625 136.675781 L 344.238281 155.273438 L 356.972656 141.972656 C 357.082031 141.816406 357.21875 141.679688 357.355469 141.542969 L 357.378906 141.542969 C 360.984375 137.691406 360.6875 131.464844 357.242188 128.21875 C 357.105469 128.105469 356.996094 127.996094 356.882812 127.875 L 356.882812 127.851562 L 351.96875 123.136719 C 348.140625 119.464844 342 119.578125 338.285156 123.453125 Z M 335.375 164.523438 L 316.773438 145.921875 L 306.871094 156.257812 L 325.472656 174.855469 Z M 316.617188 184.097656 L 298.015625 165.496094 L 227.351562 239.273438 C 234.601562 244.347656 240.785156 250.871094 245.476562 258.375 Z M 293.011719 152.285156 L 293.78125 151.492188 L 293.78125 12.945312 L 55.605469 12.945312 L 55.605469 229.023438 C 103.957031 217.945312 148.75 258.457031 142.363281 307.804688 L 293.78125 307.804688 L 293.78125 226.371094 L 248.9375 273.179688 C 248.125 274.015625 247.148438 274.585938 246.085938 274.898438 L 246.109375 274.898438 L 205.898438 286.429688 C 204.195312 286.910156 202.476562 286.652344 201.046875 285.886719 L 163.390625 285.886719 C 159.859375 285.886719 157.003906 283.007812 157.003906 279.5 C 157.003906 275.96875 159.859375 273.089844 163.390625 273.089844 L 199.6875 273.089844 L 210.0625 239.855469 C 210.558594 238.25 211.765625 237.027344 212.9375 235.867188 Z M 234.527344 264.9375 C 230.835938 259.046875 225.960938 253.921875 220.277344 249.917969 L 213.753906 270.898438 Z M 99.769531 262.53125 C 102.285156 260.015625 106.3125 260.015625 108.808594 262.53125 C 111.324219 265.023438 111.324219 269.078125 108.808594 271.570312 L 47.292969 333.109375 C 44.777344 335.601562 40.75 335.601562 38.230469 333.109375 C 35.738281 330.589844 35.738281 326.5625 38.230469 324.070312 Z M 97.347656 312.832031 C 93.445312 308.929688 86.738281 311.695312 86.738281 317.226562 C 86.738281 322.757812 93.445312 325.515625 97.347656 321.621094 C 99.769531 319.199219 99.769531 315.277344 97.347656 312.832031 Z M 92.949219 298.242188 C 109.832031 298.242188 118.328125 318.746094 106.386719 330.664062 C 94.445312 342.605469 73.941406 334.109375 73.941406 317.226562 C 73.941406 306.738281 82.457031 298.242188 92.949219 298.242188 Z M 58.507812 274 C 54.609375 270.101562 47.886719 272.867188 47.886719 278.398438 C 47.886719 283.929688 54.617188 286.6875 58.507812 282.792969 C 60.929688 280.363281 60.929688 276.421875 58.507812 274 Z M 54.113281 259.382812 C 70.992188 259.382812 79.464844 279.882812 67.546875 291.824219 C 55.605469 303.765625 35.105469 295.269531 35.105469 278.390625 C 35.105469 267.902344 43.625 259.382812 54.113281 259.382812 Z M 113.019531 257.160156 C 90.136719 234.300781 53.074219 234.300781 30.191406 257.160156 C 7.328125 280.019531 7.328125 317.105469 30.214844 339.976562 C 53.074219 362.835938 90.144531 362.835938 113.027344 339.976562 C 135.878906 317.113281 135.878906 280.027344 113.019531 257.160156 Z M 80.121094 191.84375 C 76.589844 191.84375 73.710938 188.988281 73.710938 185.457031 C 73.710938 181.921875 76.589844 179.070312 80.121094 179.070312 L 170.027344 179.070312 C 173.558594 179.070312 176.410156 181.921875 176.410156 185.457031 C 176.410156 188.988281 173.558594 191.84375 170.027344 191.84375 Z M 134.25 253.789062 C 130.714844 253.789062 127.863281 250.933594 127.863281 247.402344 C 127.863281 243.867188 130.714844 241.015625 134.25 241.015625 L 195.082031 241.015625 C 198.617188 241.015625 201.46875 243.867188 201.46875 247.402344 C 201.46875 250.933594 198.617188 253.789062 195.082031 253.789062 Z M 80.121094 218.515625 C 76.589844 218.515625 73.710938 215.636719 73.710938 212.105469 C 73.710938 208.59375 76.589844 205.71875 80.121094 205.71875 L 102.117188 205.71875 C 105.652344 205.71875 108.503906 208.59375 108.503906 212.105469 C 108.503906 215.636719 105.652344 218.515625 102.117188 218.515625 Z M 124.28125 218.515625 C 120.75 218.515625 117.894531 215.636719 117.894531 212.105469 C 117.894531 208.59375 120.75 205.71875 124.28125 205.71875 L 208.496094 205.71875 C 212.027344 205.71875 214.882812 208.59375 214.882812 212.105469 C 214.882812 215.636719 212.027344 218.515625 208.496094 218.515625 Z M 193.09375 191.84375 C 189.558594 191.84375 186.707031 188.988281 186.707031 185.457031 C 186.707031 181.921875 189.558594 179.070312 193.09375 179.070312 L 225.335938 179.070312 C 228.871094 179.070312 231.722656 181.921875 231.722656 185.457031 C 231.722656 188.988281 228.871094 191.84375 225.335938 191.84375 Z M 145.375 95.480469 C 143.289062 92.648438 143.90625 88.660156 146.757812 86.574219 C 149.585938 84.488281 153.574219 85.105469 155.664062 87.933594 L 166.355469 102.570312 L 194.15625 72.078125 C 196.515625 69.472656 200.566406 69.285156 203.171875 71.644531 C 205.777344 74.027344 205.960938 78.054688 203.578125 80.660156 L 170.519531 116.933594 C 167.828125 119.882812 163.046875 119.675781 160.664062 116.414062 Z M 171.792969 169.710938 C 149.316406 161.300781 133.074219 145.417969 122.515625 126.933594 C 110.007812 105.070312 105.433594 79.421875 107.808594 58.28125 C 108.03125 56.289062 109.167969 54.589844 110.757812 53.589844 C 120.253906 46.746094 130.148438 40.472656 140.347656 34.78125 C 150.683594 29.027344 161.328125 23.886719 172.296875 19.371094 C 173.902344 18.714844 175.644531 18.757812 177.148438 19.371094 C 199.078125 28.386719 219.742188 39.945312 239.003906 53.8125 C 240.523438 54.898438 241.425781 56.554688 241.609375 58.273438 L 241.632812 58.273438 C 243.992188 79.34375 239.050781 104.855469 226.320312 126.652344 C 215.441406 145.25 198.855469 161.253906 176.269531 169.726562 C 174.765625 170.277344 173.175781 170.230469 171.792969 169.710938 Z M 133.59375 120.585938 C 142.472656 136.082031 155.796875 149.449219 174.039062 156.90625 C 192.4375 149.40625 206.097656 135.875 215.25 120.226562 C 226.03125 101.785156 230.539062 80.484375 229.179688 62.46875 C 212.164062 50.441406 193.898438 40.289062 174.710938 32.175781 C 155.519531 40.289062 137.238281 50.464844 120.222656 62.46875 C 118.824219 80.621094 123.035156 102.074219 133.59375 120.585938 Z M 133.59375 120.585938 " fill-opacity="1" fill-rule="nonzero"/></g></svg>