<svg xmlns="http://www.w3.org/2000/svg" xmlns:xlink="http://www.w3.org/1999/xlink" width="500" zoomAndPan="magnify" viewBox="0 0 375 310.499991" height="414" preserveAspectRatio="xMidYMid meet" version="1.0"><defs><clipPath id="d0dca1cd3a"><path d="M 112 0 L 373.949219 0 L 373.949219 273 L 112 273 Z M 112 0 " clip-rule="nonzero"/></clipPath><clipPath id="cf6ccb7530"><path d="M 0.300781 204 L 173 204 L 173 310 L 0.300781 310 Z M 0.300781 204 " clip-rule="nonzero"/></clipPath></defs><path fill="#bbb5a2" d="M 318.789062 135.992188 C 318.789062 91.570312 282.78125 55.523438 238.359375 55.523438 C 193.9375 55.523438 157.925781 91.53125 157.925781 135.953125 C 157.925781 180.375 193.9375 216.386719 238.359375 216.386719 C 282.78125 216.425781 318.789062 180.414062 318.789062 135.992188 Z M 226.957031 172.75 C 223.695312 172.75 220.433594 171.492188 217.914062 169.015625 L 196.570312 147.667969 C 191.578125 142.675781 191.578125 134.578125 196.570312 129.625 C 201.5625 124.632812 209.621094 124.632812 214.613281 129.625 L 226.957031 141.929688 L 260.882812 108.003906 C 265.875 103.011719 273.972656 103.011719 278.925781 108.003906 C 283.917969 112.996094 283.917969 121.09375 278.925781 126.046875 L 236 169.015625 C 233.523438 171.53125 230.21875 172.75 226.957031 172.75 Z M 226.957031 172.75 " fill-opacity="1" fill-rule="nonzero"/><g clip-path="url(#d0dca1cd3a)"><path fill="#bbb5a2" d="M 238.320312 0.015625 C 181.632812 0.015625 132.925781 34.882812 112.601562 84.378906 C 120.738281 87.523438 128.207031 92.121094 134.613281 98.019531 C 150.105469 55.796875 190.789062 25.527344 238.320312 25.527344 C 299.210938 25.527344 348.824219 75.019531 348.824219 135.953125 C 348.824219 196.847656 299.210938 246.457031 238.320312 246.457031 C 220.824219 246.457031 204.234375 242.332031 189.492188 235.058594 C 191.460938 240.640625 192.835938 246.457031 193.503906 252.550781 L 193.621094 253.339844 L 194.605469 264.738281 C 208.363281 269.457031 222.988281 272.011719 238.320312 272.011719 C 313.363281 272.011719 374.375 211 374.375 135.953125 C 374.375 60.988281 313.363281 0.015625 238.320312 0.015625 Z M 238.320312 0.015625 " fill-opacity="1" fill-rule="nonzero"/></g><g clip-path="url(#cf6ccb7530)"><path fill="#bbb5a2" d="M 126.398438 204.277344 C 124.199219 203.609375 121.800781 204.90625 121.050781 207.109375 L 98.015625 272.992188 L 92.75 229.949219 L 96.285156 229.949219 C 98.410156 229.949219 100.140625 228.21875 100.140625 226.09375 L 100.140625 214.261719 C 100.140625 212.140625 98.410156 210.410156 96.285156 210.410156 L 76.984375 210.410156 C 74.863281 210.410156 73.132812 212.140625 73.132812 214.261719 L 73.132812 226.09375 C 73.132812 228.21875 74.863281 229.949219 76.984375 229.949219 L 80.484375 229.949219 L 75.214844 272.992188 L 52.179688 207.109375 C 51.433594 204.90625 49.035156 203.609375 46.832031 204.277344 C 24.1875 211.3125 6.929688 230.890625 3.984375 255.460938 L 0.996094 290.761719 C 0.128906 300.984375 8.1875 309.789062 18.488281 309.828125 L 154.703125 309.984375 C 165.003906 309.984375 173.101562 301.179688 172.234375 290.917969 L 169.210938 255.5 C 166.222656 230.890625 148.964844 211.3125 126.398438 204.277344 Z M 126.398438 204.277344 " fill-opacity="1" fill-rule="nonzero"/></g><path fill="#bbb5a2" d="M 133.476562 150.734375 C 133.476562 152.265625 133.398438 153.792969 133.25 155.316406 C 133.101562 156.839844 132.875 158.351562 132.578125 159.855469 C 132.277344 161.355469 131.90625 162.839844 131.460938 164.304688 C 131.019531 165.769531 130.503906 167.207031 129.917969 168.621094 C 129.332031 170.035156 128.675781 171.417969 127.957031 172.769531 C 127.234375 174.117188 126.449219 175.429688 125.597656 176.703125 C 124.746094 177.976562 123.835938 179.203125 122.863281 180.386719 C 121.894531 181.570312 120.867188 182.703125 119.785156 183.785156 C 118.703125 184.867188 117.570312 185.894531 116.386719 186.867188 C 115.203125 187.835938 113.972656 188.75 112.703125 189.597656 C 111.429688 190.449219 110.117188 191.234375 108.765625 191.957031 C 107.417969 192.679688 106.035156 193.332031 104.621094 193.917969 C 103.207031 194.503906 101.765625 195.019531 100.300781 195.464844 C 98.835938 195.90625 97.355469 196.28125 95.851562 196.578125 C 94.351562 196.875 92.839844 197.101562 91.316406 197.25 C 89.792969 197.402344 88.265625 197.476562 86.734375 197.476562 C 85.203125 197.476562 83.675781 197.402344 82.152344 197.25 C 80.628906 197.101562 79.117188 196.875 77.613281 196.578125 C 76.113281 196.28125 74.628906 195.90625 73.164062 195.464844 C 71.699219 195.019531 70.261719 194.503906 68.847656 193.917969 C 67.433594 193.332031 66.050781 192.679688 64.699219 191.957031 C 63.351562 191.234375 62.039062 190.449219 60.765625 189.597656 C 59.492188 188.75 58.265625 187.835938 57.082031 186.867188 C 55.898438 185.894531 54.765625 184.867188 53.683594 183.785156 C 52.601562 182.703125 51.574219 181.570312 50.601562 180.386719 C 49.632812 179.203125 48.71875 177.976562 47.871094 176.703125 C 47.019531 175.429688 46.234375 174.117188 45.511719 172.769531 C 44.789062 171.417969 44.136719 170.035156 43.550781 168.621094 C 42.964844 167.207031 42.449219 165.769531 42.003906 164.304688 C 41.5625 162.839844 41.1875 161.355469 40.890625 159.855469 C 40.589844 158.351562 40.367188 156.839844 40.21875 155.316406 C 40.066406 153.792969 39.992188 152.265625 39.992188 150.734375 C 39.992188 149.203125 40.066406 147.675781 40.21875 146.152344 C 40.367188 144.628906 40.589844 143.117188 40.890625 141.617188 C 41.1875 140.113281 41.5625 138.632812 42.003906 137.167969 C 42.449219 135.703125 42.964844 134.261719 43.550781 132.847656 C 44.136719 131.433594 44.789062 130.050781 45.511719 128.703125 C 46.234375 127.351562 47.019531 126.039062 47.871094 124.765625 C 48.71875 123.496094 49.632812 122.265625 50.601562 121.082031 C 51.574219 119.898438 52.601562 118.765625 53.683594 117.683594 C 54.765625 116.601562 55.898438 115.574219 57.082031 114.605469 C 58.265625 113.632812 59.492188 112.722656 60.765625 111.871094 C 62.039062 111.019531 63.351562 110.234375 64.699219 109.511719 C 66.050781 108.792969 67.433594 108.136719 68.847656 107.550781 C 70.261719 106.964844 71.699219 106.449219 73.164062 106.007812 C 74.628906 105.5625 76.113281 105.191406 77.613281 104.890625 C 79.117188 104.59375 80.628906 104.367188 82.152344 104.21875 C 83.675781 104.070312 85.203125 103.992188 86.734375 103.992188 C 88.265625 103.992188 89.792969 104.070312 91.316406 104.21875 C 92.839844 104.367188 94.351562 104.59375 95.851562 104.890625 C 97.355469 105.191406 98.835938 105.5625 100.300781 106.007812 C 101.765625 106.449219 103.207031 106.964844 104.621094 107.550781 C 106.035156 108.136719 107.417969 108.792969 108.765625 109.511719 C 110.117188 110.234375 111.429688 111.019531 112.703125 111.871094 C 113.972656 112.722656 115.203125 113.632812 116.386719 114.605469 C 117.570312 115.574219 118.703125 116.601562 119.785156 117.683594 C 120.867188 118.765625 121.894531 119.898438 122.863281 121.082031 C 123.835938 122.265625 124.746094 123.496094 125.597656 124.765625 C 126.449219 126.039062 127.234375 127.351562 127.957031 128.703125 C 128.675781 130.050781 129.332031 131.433594 129.917969 132.847656 C 130.503906 134.261719 131.019531 135.703125 131.460938 137.167969 C 131.90625 138.632812 132.277344 140.113281 132.578125 141.617188 C 132.875 143.117188 133.101562 144.628906 133.25 146.152344 C 133.398438 147.675781 133.476562 149.203125 133.476562 150.734375 Z M 133.476562 150.734375 " fill-opacity="1" fill-rule="nonzero"/></svg>