<svg xmlns="http://www.w3.org/2000/svg" xmlns:xlink="http://www.w3.org/1999/xlink" width="500" zoomAndPan="magnify" viewBox="0 0 375 374.999991" height="500" preserveAspectRatio="xMidYMid meet" version="1.0"><defs><clipPath id="f16783c983"><path d="M 137 15 L 374.984375 15 L 374.984375 246 L 137 246 Z M 137 15 " clip-rule="nonzero"/></clipPath><clipPath id="ab8ce6313a"><path d="M 47 79 L 327.667969 79 L 327.667969 374.949219 L 47 374.949219 Z M 47 79 " clip-rule="nonzero"/></clipPath></defs><path fill="#bbb5a2" d="M 54.765625 182.382812 L 56.128906 179.808594 L 54.546875 177.835938 C 53.558594 176.699219 52.949219 175.257812 52.878906 173.746094 L 52.347656 168.296875 C 52.195312 166.550781 52.652344 164.882812 53.558594 163.519531 C 52.421875 162.230469 51.742188 160.640625 51.585938 158.972656 L 50.984375 152.308594 L 0 203.589844 L 0 245.488281 L 55.296875 190.183594 C 53.714844 187.914062 53.480469 184.960938 54.765625 182.382812 " fill-opacity="1" fill-rule="nonzero"/><g clip-path="url(#f16783c983)"><path fill="#bbb5a2" d="M 187.496094 15.113281 L 137.195312 65.71875 C 140.90625 73.675781 142.191406 82.6875 140.523438 91.550781 L 147.265625 98.296875 L 187.496094 57.992188 L 374.988281 245.488281 L 374.988281 203.589844 L 187.496094 15.113281 " fill-opacity="1" fill-rule="nonzero"/></g><path fill="#bbb5a2" d="M 117.777344 181.355469 L 119.683594 185.21875 L 124.214844 187.683594 L 126.132812 188.75 L 127.164062 190.832031 L 129.554688 195.679688 L 141.300781 203.074219 L 141.886719 203.441406 L 141.921875 203.460938 L 144.539062 202.351562 L 145.753906 201.851562 L 146.75 199.316406 L 150.390625 190.121094 L 113.003906 114.292969 C 120.832031 103.296875 122.046875 88.164062 114.367188 75.535156 C 106.40625 62.433594 86.945312 55.554688 72.53125 60.785156 C 69.316406 61.949219 66.429688 63.546875 63.824219 65.425781 C 63.945312 65.425781 64.070312 65.425781 64.191406 65.433594 C 81.363281 65.828125 98.402344 80.46875 101.402344 97.398438 C 103.316406 108.234375 100.554688 119.101562 94.21875 127.570312 C 94.730469 127.414062 95.246094 127.292969 95.75 127.117188 L 98.933594 133.570312 L 97.167969 139.542969 L 100.207031 145.707031 L 106.101562 148.101562 L 104.335938 154.085938 L 106.753906 158.988281 L 107.511719 159.414062 L 107.496094 159.425781 L 113.25 162.683594 L 112.417969 170.488281 L 112.441406 170.5 L 112.4375 170.519531 L 114.859375 171.800781 L 118.785156 173.898438 L 117.496094 180.792969 L 117.777344 181.355469 " fill-opacity="1" fill-rule="nonzero"/><g clip-path="url(#ab8ce6313a)"><path fill="#bbb5a2" d="M 214.003906 246.167969 L 282.1875 246.167969 L 282.1875 306.769531 L 214.003906 306.769531 Z M 157.953125 108.976562 L 197.339844 148.367188 C 198.851562 149.882812 199.617188 151.925781 199.539062 154.046875 L 198.929688 166.699219 C 198.78125 168.671875 197.871094 170.5625 196.359375 171.929688 L 193.25 174.734375 C 191.882812 175.941406 190.066406 176.628906 188.25 176.628906 C 187.644531 176.628906 187.042969 176.550781 186.503906 176.394531 L 172.265625 173.066406 C 170.902344 172.683594 169.691406 172.007812 168.703125 171.015625 L 164.921875 167.234375 L 159.996094 166.402344 C 158.480469 166.167969 157.039062 165.414062 155.980469 164.273438 L 152.496094 160.789062 C 151.28125 159.660156 150.523438 158.140625 150.296875 156.550781 L 150.144531 155.113281 L 148.554688 154.8125 C 145.449219 154.351562 143.027344 152.082031 142.339844 149.050781 L 141.660156 146.167969 L 139.238281 145.714844 C 138.175781 145.488281 137.195312 144.957031 136.285156 144.351562 L 157.191406 186.777344 C 158.101562 188.671875 158.25 190.941406 157.414062 192.910156 L 152.800781 204.652344 C 152.039062 206.472656 150.601562 207.988281 148.707031 208.820312 L 144.921875 210.410156 C 143.929688 210.863281 142.949219 211.019531 141.886719 211.019531 C 140.523438 211.019531 139.082031 210.636719 137.875 209.882812 L 125.527344 202.078125 C 124.3125 201.320312 123.40625 200.261719 122.722656 199.046875 L 120.375 194.199219 L 116.054688 191.851562 C 114.691406 191.09375 113.554688 189.957031 112.875 188.59375 L 110.679688 184.125 C 110 182.683594 109.765625 181.015625 110.070312 179.425781 L 110.296875 177.992188 L 108.9375 177.230469 C 106.132812 175.792969 104.542969 172.839844 104.917969 169.730469 L 105.222656 166.777344 L 103.023438 165.566406 C 102.648438 165.335938 102.34375 165.109375 102.042969 164.882812 L 93.480469 173.441406 L 97.347656 217.230469 C 97.496094 219.351562 96.816406 221.472656 95.375 223.0625 L 86.738281 232.304688 C 85.375 233.742188 83.480469 234.652344 81.4375 234.730469 L 77.269531 234.808594 L 77.042969 234.808594 C 74.695312 234.808594 72.421875 233.671875 70.980469 231.777344 L 62.273438 220.03125 C 61.4375 218.898438 60.90625 217.605469 60.832031 216.171875 L 60.378906 210.863281 L 58.40625 208.515625 L 47.34375 219.578125 L 47.34375 374.949219 L 92.796875 374.949219 L 92.796875 246.167969 L 160.976562 246.167969 L 160.976562 374.949219 L 327.636719 374.949219 L 327.636719 219.578125 L 187.496094 79.429688 L 157.953125 108.976562 " fill-opacity="1" fill-rule="nonzero"/></g><path fill="#bbb5a2" d="M 83.015625 55.324219 C 97.011719 55.324219 110.882812 62.671875 117.535156 73.609375 C 124.914062 85.75 125.003906 100.730469 118.171875 112.886719 C 118.777344 112.476562 119.390625 112.074219 119.972656 111.621094 L 125.0625 116.710938 L 125.308594 122.933594 L 130.167969 127.796875 L 136.515625 128.164062 L 136.605469 130.316406 L 136.585938 130.34375 L 136.734375 134.429688 L 140.601562 138.292969 L 147.992188 139.652344 L 149.730469 147.355469 L 149.761719 147.363281 L 149.769531 147.382812 L 152.542969 147.804688 L 156.816406 148.476562 L 157.796875 155.488281 L 161.28125 158.972656 L 167.429688 160 L 168.546875 160.1875 L 174.023438 165.671875 L 188.238281 169.066406 L 188.722656 168.632812 L 191.355469 166.324219 L 191.863281 155.820312 L 191.96875 153.710938 L 132.183594 93.933594 C 136.0625 81 132.339844 66.28125 121.015625 56.789062 C 109.480469 47.132812 89.421875 46.730469 77.367188 55.769531 C 79.195312 55.484375 81.078125 55.324219 83.015625 55.324219 " fill-opacity="1" fill-rule="nonzero"/><path fill="#bbb5a2" d="M 97.753906 98.046875 C 95.078125 82.945312 79.441406 69.488281 64.109375 69.128906 C 51.953125 68.851562 41.398438 74.601562 34.886719 83.410156 C 38.523438 84.515625 42.363281 85.105469 46.316406 85.105469 C 50.390625 85.105469 54.390625 84.433594 58.265625 83.171875 C 59.414062 82.128906 60.882812 81.417969 62.550781 81.277344 C 66.628906 80.921875 70.210938 83.933594 70.574219 88.007812 C 70.921875 92.078125 67.910156 95.667969 63.84375 96.023438 C 61.960938 96.183594 60.195312 95.609375 58.792969 94.5625 C 54.722656 95.621094 50.550781 96.210938 46.316406 96.210938 C 40.550781 96.210938 34.980469 95.203125 29.753906 93.386719 C 28.328125 97.753906 27.707031 102.46875 28.132812 107.335938 C 29.691406 125.15625 44.292969 138.667969 61.703125 139.375 L 62.332031 146.535156 L 58.515625 151.460938 L 59.109375 158.3125 L 63.738281 162.683594 L 59.925781 167.617188 L 60.398438 173.058594 L 65.148438 178.839844 L 61.515625 185.871094 L 66.234375 191.296875 L 62.519531 197.28125 L 62.945312 202.203125 L 67.652344 207.765625 L 68.328125 215.484375 L 68.347656 215.511719 L 68.347656 215.519531 L 77.054688 227.257812 L 79.53125 227.179688 L 81.210938 227.152344 L 89.765625 217.910156 L 89.785156 217.898438 L 82.433594 133.671875 C 93.714844 126.261719 100.328125 112.597656 97.753906 98.046875 " fill-opacity="1" fill-rule="nonzero"/><path fill="#bbb5a2" d="M 0.226562 50.519531 C 0.289062 51.242188 0.40625 51.941406 0.503906 52.652344 C 0.613281 53.453125 0.71875 54.242188 0.871094 55.042969 C 1.027344 55.851562 1.234375 56.648438 1.433594 57.441406 C 1.601562 58.121094 1.757812 58.800781 1.957031 59.480469 C 2.21875 60.351562 2.535156 61.191406 2.84375 62.039062 C 3.019531 62.535156 3.15625 63.042969 3.355469 63.53125 C 3.398438 63.648438 3.464844 63.753906 3.511719 63.867188 C 3.820312 64.613281 4.175781 65.328125 4.523438 66.054688 C 4.855469 66.75 5.171875 67.464844 5.527344 68.136719 C 5.742188 68.523438 5.980469 68.890625 6.199219 69.265625 C 9.789062 75.523438 14.660156 80.714844 20.394531 84.574219 C 26.070312 88.421875 32.660156 90.980469 39.742188 91.988281 C 40.226562 92.058594 40.707031 92.15625 41.199219 92.214844 C 41.914062 92.292969 42.652344 92.3125 43.382812 92.359375 C 44.222656 92.410156 45.0625 92.480469 45.910156 92.488281 C 46.027344 92.488281 46.144531 92.507812 46.257812 92.507812 C 47.183594 92.507812 48.089844 92.449219 48.992188 92.390625 C 50.410156 92.304688 51.820312 92.152344 53.234375 91.9375 C 53.285156 91.925781 53.34375 91.925781 53.402344 91.910156 C 56.808594 91.382812 60.210938 90.496094 63.546875 89.15625 L 62.15625 85.726562 C 61.378906 86.035156 60.585938 86.273438 59.796875 86.539062 L 59.796875 86.527344 C 56.144531 87.75 52.316406 88.5 48.378906 88.710938 C 47.566406 88.75 46.75 88.796875 45.9375 88.78125 C 45.152344 88.78125 44.390625 88.71875 43.621094 88.667969 C 42.949219 88.628906 42.269531 88.609375 41.597656 88.53125 C 41.152344 88.484375 40.71875 88.394531 40.28125 88.335938 C 33.898438 87.414062 27.796875 85.097656 22.464844 81.511719 C 17.09375 77.871094 12.625 73.023438 9.378906 67.386719 C 9.1875 67.050781 8.972656 66.734375 8.792969 66.390625 C 8.449219 65.757812 8.164062 65.097656 7.855469 64.445312 C 7.539062 63.792969 7.214844 63.136719 6.929688 62.460938 C 6.703125 61.910156 6.515625 61.335938 6.308594 60.765625 C 6.03125 59.984375 5.742188 59.207031 5.5 58.425781 C 5.320312 57.804688 5.179688 57.171875 5.015625 56.542969 C 4.835938 55.808594 4.640625 55.078125 4.5 54.339844 C 4.363281 53.617188 4.265625 52.871094 4.164062 52.140625 C 4.074219 51.484375 3.96875 50.835938 3.90625 50.175781 C 3.832031 49.375 3.8125 48.554688 3.78125 47.738281 C 3.761719 47.125 3.71875 46.511719 3.722656 45.898438 C 3.730469 45.179688 3.792969 44.46875 3.832031 43.757812 C 3.878906 43.019531 3.898438 42.289062 3.980469 41.558594 C 4.019531 41.199219 4.097656 40.84375 4.148438 40.472656 C 5.042969 34.015625 7.382812 27.828125 11.015625 22.429688 C 14.617188 17.117188 19.414062 12.691406 24.980469 9.457031 C 25.371094 9.230469 25.742188 8.984375 26.140625 8.773438 C 26.730469 8.449219 27.351562 8.183594 27.957031 7.894531 C 28.65625 7.558594 29.347656 7.214844 30.066406 6.917969 C 30.589844 6.703125 31.125 6.523438 31.65625 6.328125 C 32.472656 6.039062 33.285156 5.734375 34.105469 5.488281 C 34.695312 5.3125 35.300781 5.179688 35.898438 5.023438 C 36.660156 4.835938 37.421875 4.636719 38.183594 4.484375 C 38.882812 4.351562 39.601562 4.261719 40.3125 4.164062 C 40.992188 4.066406 41.667969 3.957031 42.347656 3.898438 C 43.125 3.828125 43.917969 3.800781 44.714844 3.773438 C 45.355469 3.753906 45.988281 3.710938 46.621094 3.710938 C 47.328125 3.71875 48.011719 3.78125 48.703125 3.820312 C 49.460938 3.867188 50.210938 3.886719 50.960938 3.96875 C 51.308594 4.007812 51.644531 4.085938 51.988281 4.125 C 58.472656 5.023438 64.671875 7.363281 70.074219 11.003906 C 75.421875 14.628906 79.875 19.457031 83.113281 25.070312 C 83.3125 25.417969 83.539062 25.753906 83.734375 26.117188 C 84.070312 26.738281 84.355469 27.394531 84.660156 28.035156 C 84.976562 28.703125 85.304688 29.355469 85.589844 30.039062 C 87.65625 35.042969 88.816406 40.511719 88.816406 46.246094 C 88.816406 46.375 88.800781 46.5 88.800781 46.621094 C 90.011719 46.351562 91.246094 46.136719 92.5 45.960938 C 92.460938 39.964844 91.246094 34.242188 89.117188 28.988281 L 89.164062 28.972656 C 89.085938 28.773438 88.984375 28.597656 88.90625 28.40625 C 88.6875 27.882812 88.425781 27.382812 88.1875 26.867188 C 87.769531 25.953125 87.347656 25.042969 86.875 24.171875 C 86.753906 23.945312 86.609375 23.730469 86.488281 23.503906 C 82.875 17.113281 77.910156 11.808594 72.070312 7.894531 C 66.351562 4.027344 59.699219 1.453125 52.550781 0.472656 C 52.148438 0.421875 51.753906 0.335938 51.355469 0.289062 C 50.550781 0.199219 49.730469 0.175781 48.921875 0.128906 C 48.167969 0.0859375 47.410156 0.0273438 46.652344 0.0195312 C 46.519531 0.0117188 46.390625 -0.0078125 46.257812 -0.0078125 C 45.695312 -0.0078125 45.152344 0.0585938 44.605469 0.078125 C 43.730469 0.109375 42.871094 0.128906 42.007812 0.214844 C 41.261719 0.285156 40.53125 0.394531 39.800781 0.503906 C 39.03125 0.609375 38.257812 0.703125 37.488281 0.851562 C 36.648438 1.015625 35.824219 1.226562 35.003906 1.433594 C 34.351562 1.601562 33.699219 1.75 33.046875 1.945312 C 32.140625 2.210938 31.269531 2.535156 30.390625 2.863281 C 29.917969 3.03125 29.445312 3.160156 28.980469 3.347656 C 28.871094 3.394531 28.773438 3.453125 28.664062 3.492188 C 27.875 3.820312 27.117188 4.195312 26.347656 4.5625 C 25.695312 4.875 25.023438 5.164062 24.390625 5.507812 C 23.949219 5.746094 23.53125 6.023438 23.105469 6.277344 C 16.917969 9.851562 11.773438 14.679688 7.953125 20.363281 C 4.066406 26.097656 1.472656 32.769531 0.492188 39.9375 C 0.433594 40.34375 0.347656 40.746094 0.304688 41.160156 C 0.214844 41.933594 0.195312 42.730469 0.140625 43.519531 C 0.0976562 44.300781 0.03125 45.082031 0.0273438 45.871094 C 0.0273438 46 0.0078125 46.125 0.0078125 46.246094 C 0.0078125 46.789062 0.0703125 47.320312 0.0898438 47.855469 C 0.117188 48.75 0.140625 49.632812 0.226562 50.519531 " fill-opacity="1" fill-rule="nonzero"/></svg>