<svg xmlns="http://www.w3.org/2000/svg" xmlns:xlink="http://www.w3.org/1999/xlink" width="455" zoomAndPan="magnify" viewBox="0 0 341.25 374.999991" height="500" preserveAspectRatio="xMidYMid meet" version="1.0"><defs><clipPath id="f8d673bd95"><path d="M 190 0.410156 L 340.5 0.410156 L 340.5 152 L 190 152 Z M 190 0.410156 " clip-rule="nonzero"/></clipPath><clipPath id="f8add00e94"><path d="M 0 98 L 194 98 L 194 374.585938 L 0 374.585938 Z M 0 98 " clip-rule="nonzero"/></clipPath></defs><g clip-path="url(#f8d673bd95)"><path fill="#bbb5a2" d="M 307.835938 61.894531 L 260.898438 108.839844 C 258.351562 111.375 254.96875 112.777344 251.375 112.777344 C 247.777344 112.777344 244.394531 111.375 241.863281 108.839844 L 223.6875 90.664062 C 221.152344 88.121094 219.75 84.738281 219.75 81.152344 C 219.75 77.546875 221.152344 74.175781 223.6875 71.628906 C 226.230469 69.082031 229.613281 67.679688 233.210938 67.679688 C 236.804688 67.679688 240.1875 69.082031 242.734375 71.628906 L 251.375 80.269531 L 288.796875 42.855469 C 291.332031 40.308594 294.714844 38.917969 298.3125 38.917969 C 301.90625 38.917969 305.289062 40.308594 307.835938 42.855469 C 313.082031 48.113281 313.082031 56.648438 307.835938 61.894531 Z M 265.765625 0.695312 C 224.25 0.695312 190.597656 34.335938 190.597656 75.847656 C 190.597656 117.351562 224.25 151.003906 265.765625 151.003906 C 307.269531 151.003906 340.910156 117.351562 340.910156 75.847656 C 340.910156 34.335938 307.269531 0.695312 265.765625 0.695312 " fill-opacity="1" fill-rule="nonzero"/></g><path fill="#bbb5a2" d="M 106.273438 105.058594 C 103.761719 105.058594 101.710938 107.097656 101.710938 109.621094 L 101.710938 111.515625 C 101.710938 114.027344 103.761719 116.066406 106.273438 116.066406 L 121.253906 116.066406 C 123.765625 116.066406 125.816406 114.027344 125.816406 111.515625 L 125.816406 109.621094 C 125.816406 107.097656 123.765625 105.058594 121.253906 105.058594 L 106.273438 105.058594 " fill-opacity="1" fill-rule="nonzero"/><path fill="#bbb5a2" d="M 113.769531 95.710938 C 130.789062 95.710938 144.957031 74.304688 147.386719 56.328125 C 147.65625 54.480469 147.789062 52.722656 147.789062 50.988281 L 147.789062 46.308594 C 147.789062 30.089844 134.644531 16.972656 118.425781 16.972656 L 109.101562 16.972656 C 92.882812 16.972656 79.738281 30.089844 79.738281 46.308594 L 79.738281 50.988281 C 79.738281 52.722656 79.871094 54.480469 80.140625 56.328125 C 82.570312 74.304688 96.738281 95.710938 113.769531 95.710938 " fill-opacity="1" fill-rule="nonzero"/><g clip-path="url(#f8add00e94)"><path fill="#bbb5a2" d="M 69.226562 210.777344 L 57.0625 210.777344 L 57.15625 168.96875 L 57.15625 168.851562 L 69.226562 141.042969 Z M 172.175781 115.617188 C 170.113281 113.167969 167.742188 110.976562 165.078125 109.136719 C 158.539062 104.644531 151.582031 101.039062 144.335938 98.398438 L 121.054688 133.394531 L 121.054688 120.617188 L 106.472656 120.617188 L 106.472656 133.394531 L 83.195312 98.398438 C 75.945312 101.039062 68.988281 104.644531 62.449219 109.136719 C 59.785156 110.976562 57.414062 113.167969 55.351562 115.617188 C 49.070312 123.046875 34.335938 157.335938 33.59375 158.605469 L 33.546875 210.777344 L 14.015625 210.777344 C 6.234375 210.777344 -0.0703125 217.082031 -0.0703125 224.863281 L -0.0703125 273.402344 C -0.0703125 281.183594 6.234375 287.488281 14.015625 287.488281 L 69.226562 287.488281 L 69.226562 357.328125 C 69.226562 366.558594 76.476562 374.394531 85.703125 374.609375 C 90.347656 374.714844 94.617188 372.945312 97.738281 369.988281 C 100.757812 367.089844 102.726562 363.09375 102.960938 358.601562 L 108.488281 252.433594 C 108.652344 249.535156 110.941406 247.246094 113.757812 246.988281 C 116.585938 247.246094 118.863281 249.535156 119.039062 252.433594 L 124.566406 358.601562 C 124.8125 363.09375 126.757812 367.089844 129.777344 369.988281 C 132.925781 372.945312 137.179688 374.714844 141.824219 374.609375 C 151.054688 374.394531 158.300781 366.558594 158.300781 357.328125 L 158.300781 141.042969 L 170.371094 168.851562 L 170.371094 168.96875 L 170.464844 211.070312 C 170.488281 214.207031 171.738281 217.105469 173.742188 219.207031 C 175.78125 221.304688 178.597656 222.671875 181.769531 222.789062 C 188.453125 223.046875 194.015625 217.695312 193.980469 211.011719 L 193.921875 158.605469 C 193.191406 157.335938 178.445312 123.046875 172.175781 115.617188 " fill-opacity="1" fill-rule="nonzero"/></g></svg>