<svg xmlns="http://www.w3.org/2000/svg" xmlns:xlink="http://www.w3.org/1999/xlink" width="450" zoomAndPan="magnify" viewBox="0 0 337.5 341.249999" height="455" preserveAspectRatio="xMidYMid meet" version="1.0"><defs><clipPath id="70ab8ba83c"><path d="M 196 206 L 332 206 L 332 340.5 L 196 340.5 Z M 196 206 " clip-rule="nonzero"/></clipPath><clipPath id="13673b00c9"><path d="M 90 288 L 220 288 L 220 340.5 L 90 340.5 Z M 90 288 " clip-rule="nonzero"/></clipPath><clipPath id="bb8fa76002"><path d="M 289 212 L 336.878906 212 L 336.878906 248 L 289 248 Z M 289 212 " clip-rule="nonzero"/></clipPath><clipPath id="b42a3fdec6"><path d="M 0.121094 75 L 232 75 L 232 340.5 L 0.121094 340.5 Z M 0.121094 75 " clip-rule="nonzero"/></clipPath></defs><path fill="#bbb5a2" d="M 152.1875 159.246094 C 137.734375 159.246094 127.148438 165.1875 120.71875 176.910156 C 114.570312 188.121094 113.652344 202.089844 113.652344 209.417969 C 113.652344 217.929688 114.878906 226.167969 117.273438 233.917969 C 127.304688 242.734375 134.84375 250.320312 137.5625 253.117188 C 142.964844 252.199219 161.707031 249.167969 181.265625 247.714844 C 185.746094 239.671875 190.722656 226.820312 190.722656 209.417969 C 190.722656 202.089844 189.804688 188.121094 183.65625 176.910156 C 177.230469 165.1875 166.640625 159.246094 152.1875 159.246094 Z M 152.1875 159.246094 " fill-opacity="1" fill-rule="nonzero"/><path fill="#bbb5a2" d="M 130.382812 113.449219 C 137.984375 121.785156 146.808594 126.5625 154.675781 126.5625 C 164.402344 126.5625 175.273438 119.441406 183.753906 107.511719 C 193.40625 93.933594 198.71875 76.078125 198.71875 57.242188 C 198.71875 48.898438 197.671875 32.996094 190.664062 20.214844 C 183.3125 6.800781 171.199219 0 154.675781 0 C 138.148438 0 126.039062 6.800781 118.683594 20.214844 C 111.675781 32.996094 110.628906 48.898438 110.628906 57.242188 C 110.628906 66.578125 111.925781 75.640625 114.460938 84.195312 C 122.25 91.867188 127.742188 102.023438 130.382812 113.449219 Z M 130.382812 113.449219 " fill-opacity="1" fill-rule="nonzero"/><path fill="#bbb5a2" d="M 173.738281 131.191406 L 173.738281 125.515625 C 167.5625 129.792969 161.015625 132.144531 154.675781 132.144531 C 147.203125 132.144531 139.171875 128.722656 131.847656 122.585938 C 132.304688 127.457031 132.269531 132.484375 131.699219 137.585938 C 130.714844 146.398438 129.171875 154.242188 127.097656 161.070312 C 133.828125 156.148438 142.214844 153.660156 152.1875 153.660156 C 168.835938 153.660156 181.070312 160.578125 188.550781 174.222656 C 194.960938 185.910156 196.304688 199.816406 196.304688 209.417969 C 196.304688 223.066406 193.371094 236.046875 187.792969 247.292969 C 188.121094 247.273438 188.449219 247.257812 188.773438 247.242188 C 196.472656 237.6875 208.394531 231.859375 218.050781 227.148438 C 227.109375 222.734375 234.929688 218.917969 234.929688 214.386719 L 234.929688 201.976562 C 225.328125 192.933594 217.4375 178.503906 214.464844 161.027344 C 208.164062 156.019531 200.53125 152.273438 193.753906 148.96875 C 183.015625 143.734375 173.738281 139.210938 173.738281 131.191406 Z M 173.738281 131.191406 " fill-opacity="1" fill-rule="nonzero"/><path fill="#bbb5a2" d="M 257.3125 206.691406 C 275.132812 206.691406 295.847656 180.117188 295.847656 145.855469 C 295.847656 138.527344 294.929688 124.558594 288.78125 113.347656 C 282.351562 101.625 271.765625 95.683594 257.3125 95.683594 C 242.859375 95.683594 232.273438 101.625 225.84375 113.347656 C 219.695312 124.558594 218.777344 138.527344 218.777344 145.855469 C 218.777344 180.117188 239.492188 206.691406 257.3125 206.691406 Z M 257.3125 206.691406 " fill-opacity="1" fill-rule="nonzero"/><path fill="#bbb5a2" d="M 19.613281 208.351562 C 29.832031 185.730469 40.003906 173.613281 43.667969 169.667969 C 43.273438 168.761719 42.753906 167.527344 42.160156 166.023438 C 26.0625 174.097656 15.898438 184.757812 13.429688 196.246094 C 12.023438 202.796875 13.191406 209.34375 16.71875 215.089844 C 17.691406 212.71875 18.660156 210.464844 19.613281 208.351562 Z M 19.613281 208.351562 " fill-opacity="1" fill-rule="nonzero"/><g clip-path="url(#70ab8ba83c)"><path fill="#bbb5a2" d="M 294.125 232.167969 C 283.386719 226.929688 274.109375 222.410156 274.109375 214.390625 L 274.109375 206.5 C 268.664062 210.226562 262.898438 212.273438 257.3125 212.273438 C 251.726562 212.273438 245.960938 210.226562 240.515625 206.5 L 240.515625 214.390625 C 240.515625 222.410156 231.238281 226.929688 220.496094 232.167969 C 212.367188 236.132812 203.355469 240.53125 196.597656 246.960938 C 206.285156 246.773438 215.34375 247.234375 222.144531 248.832031 C 230.898438 250.890625 236.496094 256.382812 236.75 263.167969 C 236.988281 269.433594 232.335938 277.675781 218.566406 282.03125 C 213.136719 283.75 205.183594 285.675781 196.128906 287.546875 C 220.09375 306.996094 224.640625 332.21875 225.496094 340.5 L 299.355469 340.5 L 299.355469 285.828125 C 299.355469 284.289062 300.605469 283.039062 302.148438 283.039062 C 303.6875 283.039062 304.9375 284.289062 304.9375 285.828125 L 304.9375 340.5 L 330.714844 340.5 C 331.339844 329.199219 333.359375 284.003906 327.277344 261.855469 C 322.988281 246.242188 306.984375 238.4375 294.125 232.167969 Z M 294.125 232.167969 " fill-opacity="1" fill-rule="nonzero"/></g><g clip-path="url(#13673b00c9)"><path fill="#bbb5a2" d="M 188.832031 288.996094 C 167.984375 292.980469 143.625 296.363281 130.546875 296.363281 C 126.730469 296.363281 120.769531 294.050781 113.699219 290.367188 C 103.742188 297.964844 96.066406 307.488281 90.863281 318.707031 C 90.640625 328.773438 90.355469 336.535156 90.195312 340.5 L 219.855469 340.5 C 218.808594 332.082031 213.652344 306.851562 188.832031 288.996094 Z M 188.832031 288.996094 " fill-opacity="1" fill-rule="nonzero"/></g><g clip-path="url(#bb8fa76002)"><path fill="#bbb5a2" d="M 321.539062 214.347656 C 310.546875 210.273438 299.265625 213.566406 289.476562 223.59375 C 291.65625 224.753906 294.066406 225.929688 296.574219 227.152344 C 306.78125 232.128906 318.816406 238.007812 326.441406 247.953125 C 330.464844 247.070312 340.613281 244.128906 340.613281 236.941406 C 340.613281 229.445312 332.949219 218.574219 321.539062 214.347656 Z M 321.539062 214.347656 " fill-opacity="1" fill-rule="nonzero"/></g><g clip-path="url(#b42a3fdec6)"><path fill="#bbb5a2" d="M 41.535156 240.757812 C 40.324219 239.804688 40.113281 238.050781 41.066406 236.835938 C 42.019531 235.625 43.769531 235.414062 44.984375 236.367188 C 64.246094 251.503906 117.160156 290.78125 130.546875 290.78125 C 150.75 290.78125 198.503906 282.523438 216.882812 276.710938 C 225.765625 273.902344 231.371094 268.667969 231.171875 263.378906 C 231.015625 259.214844 227.066406 255.722656 220.867188 254.265625 C 196.285156 248.492188 137.652344 258.761719 137.066406 258.867188 C 136.136719 259.03125 135.199219 258.71875 134.554688 258.042969 C 134.082031 257.542969 86.683594 208.078125 54.027344 201.183594 C 52.519531 200.867188 51.554688 199.382812 51.871094 197.875 C 52.191406 196.367188 53.667969 195.402344 55.179688 195.722656 C 63.21875 197.417969 71.957031 201.414062 80.648438 206.558594 C 79.4375 199.328125 78.011719 193.363281 76.390625 188.761719 C 72.246094 186.699219 67.941406 183.960938 63.488281 180.546875 C 62.265625 179.605469 62.035156 177.855469 62.972656 176.632812 C 63.910156 175.410156 65.664062 175.179688 66.886719 176.117188 C 80.953125 186.90625 92.972656 190.292969 102.605469 186.191406 C 114.824219 180.988281 123.183594 163.503906 126.148438 136.964844 C 128.820312 113.054688 118.921875 91.042969 100.929688 80.894531 C 86.691406 72.863281 70.867188 74.136719 57.515625 84.390625 C 42.878906 95.628906 37.027344 113.15625 40.125 136.484375 C 42.484375 154.28125 49.4375 168.894531 49.507812 169.039062 C 50.035156 170.132812 49.792969 171.441406 48.914062 172.277344 C 48.792969 172.390625 36.585938 184.1875 24.53125 211.023438 C 13.554688 235.46875 0.5 277.664062 0.121094 340.5 L 84.609375 340.5 C 84.960938 331.890625 85.976562 303.535156 85.449219 272.980469 C 65.09375 259.15625 45.367188 243.769531 41.535156 240.757812 Z M 41.535156 240.757812 " fill-opacity="1" fill-rule="nonzero"/></g><path fill="#bbb5a2" d="M 104.796875 191.328125 C 98.265625 194.109375 91.011719 194.179688 83.113281 191.5625 C 84.570312 196.765625 85.839844 203.085938 86.902344 210.453125 C 94.96875 215.71875 102.835938 221.753906 109.90625 227.625 C 108.699219 221.734375 108.074219 215.644531 108.074219 209.417969 C 108.074219 203.425781 108.597656 195.761719 110.546875 188.003906 C 108.730469 189.351562 106.816406 190.464844 104.796875 191.328125 Z M 104.796875 191.328125 " fill-opacity="1" fill-rule="nonzero"/><path fill="#bbb5a2" d="M 108.367188 287.460938 C 102.929688 284.371094 97.042969 280.6875 91.089844 276.761719 C 91.230469 287.355469 91.191406 297.59375 91.074219 306.738281 C 95.726562 299.460938 101.511719 293.011719 108.367188 287.460938 Z M 108.367188 287.460938 " fill-opacity="1" fill-rule="nonzero"/></svg>