<svg xmlns="http://www.w3.org/2000/svg" xmlns:xlink="http://www.w3.org/1999/xlink" width="500" zoomAndPan="magnify" viewBox="0 0 375 320.250004" height="427" preserveAspectRatio="xMidYMid meet" version="1.0"><defs><clipPath id="86c98df3e5"><path d="M 0.4375 43 L 277 43 L 277 319.417969 L 0.4375 319.417969 Z M 0.4375 43 " clip-rule="nonzero"/></clipPath><clipPath id="d93ac95a27"><path d="M 48 0 L 374.5625 0 L 374.5625 262 L 48 262 Z M 48 0 " clip-rule="nonzero"/></clipPath></defs><g clip-path="url(#86c98df3e5)"><path fill="#000000" d="M 251.164062 161.230469 L 251.164062 294.523438 L 25.652344 294.523438 L 25.652344 69.011719 L 251.164062 69.011719 L 251.164062 89.386719 L 276.222656 67.464844 L 276.222656 43.953125 L 0.59375 43.953125 L 0.59375 319.582031 L 276.222656 319.582031 L 276.222656 132.585938 L 251.164062 161.230469 " fill-opacity="1" fill-rule="nonzero"/></g><g clip-path="url(#d93ac95a27)"><path fill="#000000" d="M 145.238281 200.164062 L 48.207031 129.492188 C 49.847656 131.675781 143.324219 259.070312 145.238281 261.613281 C 149.324219 256.945312 370.285156 4.339844 374.160156 -0.0859375 L 145.238281 200.164062 " fill-opacity="1" fill-rule="nonzero"/></g></svg>