<svg xmlns="http://www.w3.org/2000/svg" xmlns:xlink="http://www.w3.org/1999/xlink" width="500" zoomAndPan="magnify" viewBox="0 0 375 303.749993" height="405" preserveAspectRatio="xMidYMid meet" version="1.0"><defs><clipPath id="0a63b24369"><path d="M 155 280 L 220 280 L 220 298.160156 L 155 298.160156 Z M 155 280 " clip-rule="nonzero"/></clipPath><clipPath id="3e763f099e"><path d="M 0.152344 233 L 374.84375 233 L 374.84375 298.160156 L 0.152344 298.160156 Z M 0.152344 233 " clip-rule="nonzero"/></clipPath></defs><g clip-path="url(#0a63b24369)"><path fill="#2d4b61" d="M 220 298.367188 L 155 298.367188 L 160.363281 280.40625 L 214.636719 280.40625 Z M 220 298.367188 " fill-opacity="1" fill-rule="nonzero"/></g><g clip-path="url(#3e763f099e)"><path fill="#2d4b61" d="M 341.042969 233.128906 L 33.957031 233.128906 L 0.152344 291.308594 C 0.226562 291.792969 0.339844 292.269531 0.5 292.734375 C 0.65625 293.199219 0.851562 293.648438 1.089844 294.078125 C 1.328125 294.511719 1.601562 294.917969 1.910156 295.300781 C 2.21875 295.679688 2.558594 296.03125 2.933594 296.355469 C 3.304688 296.675781 3.703125 296.960938 4.125 297.210938 C 4.546875 297.460938 4.988281 297.675781 5.449219 297.847656 C 5.910156 298.019531 6.382812 298.148438 6.867188 298.234375 C 7.351562 298.324219 7.835938 298.367188 8.328125 298.371094 L 144.515625 298.371094 L 151.8125 273.945312 C 151.96875 273.425781 152.199219 272.945312 152.511719 272.503906 C 152.820312 272.0625 153.191406 271.679688 153.625 271.355469 C 154.058594 271.035156 154.53125 270.789062 155.042969 270.617188 C 155.558594 270.449219 156.085938 270.363281 156.625 270.363281 L 218.375 270.363281 C 218.914062 270.363281 219.441406 270.449219 219.957031 270.617188 C 220.46875 270.789062 220.941406 271.035156 221.375 271.355469 C 221.808594 271.679688 222.179688 272.0625 222.488281 272.503906 C 222.800781 272.945312 223.03125 273.425781 223.1875 273.945312 L 230.484375 298.371094 L 366.671875 298.371094 C 367.164062 298.367188 367.648438 298.324219 368.132812 298.234375 C 368.617188 298.148438 369.089844 298.019531 369.550781 297.847656 C 370.011719 297.675781 370.453125 297.460938 370.875 297.210938 C 371.296875 296.960938 371.695312 296.675781 372.066406 296.355469 C 372.441406 296.03125 372.78125 295.679688 373.089844 295.300781 C 373.398438 294.917969 373.671875 294.511719 373.910156 294.078125 C 374.148438 293.648438 374.34375 293.199219 374.5 292.734375 C 374.660156 292.269531 374.773438 291.792969 374.847656 291.308594 Z M 68.089844 280.40625 L 48.109375 280.40625 C 47.777344 280.40625 47.453125 280.371094 47.128906 280.308594 C 46.804688 280.242188 46.492188 280.148438 46.1875 280.023438 C 45.882812 279.894531 45.59375 279.742188 45.320312 279.558594 C 45.042969 279.375 44.789062 279.167969 44.558594 278.933594 C 44.324219 278.699219 44.117188 278.445312 43.933594 278.171875 C 43.75 277.898438 43.59375 277.609375 43.46875 277.304688 C 43.34375 277 43.246094 276.6875 43.183594 276.363281 C 43.121094 276.039062 43.085938 275.714844 43.085938 275.382812 C 43.085938 275.054688 43.121094 274.726562 43.183594 274.40625 C 43.246094 274.082031 43.34375 273.765625 43.46875 273.460938 C 43.59375 273.15625 43.75 272.867188 43.933594 272.59375 C 44.117188 272.320312 44.324219 272.066406 44.558594 271.832031 C 44.789062 271.601562 45.042969 271.394531 45.320312 271.210938 C 45.59375 271.027344 45.882812 270.871094 46.1875 270.746094 C 46.492188 270.621094 46.804688 270.523438 47.128906 270.460938 C 47.453125 270.394531 47.777344 270.363281 48.109375 270.363281 L 68.089844 270.363281 C 68.417969 270.363281 68.746094 270.394531 69.070312 270.460938 C 69.390625 270.523438 69.707031 270.621094 70.011719 270.746094 C 70.316406 270.871094 70.605469 271.027344 70.878906 271.210938 C 71.152344 271.394531 71.40625 271.601562 71.640625 271.832031 C 71.871094 272.066406 72.082031 272.320312 72.261719 272.59375 C 72.445312 272.867188 72.601562 273.15625 72.726562 273.460938 C 72.851562 273.765625 72.949219 274.082031 73.011719 274.40625 C 73.078125 274.726562 73.109375 275.054688 73.109375 275.382812 C 73.109375 275.714844 73.078125 276.039062 73.011719 276.363281 C 72.949219 276.6875 72.851562 277 72.726562 277.304688 C 72.601562 277.609375 72.445312 277.898438 72.261719 278.171875 C 72.082031 278.445312 71.871094 278.699219 71.640625 278.933594 C 71.40625 279.167969 71.152344 279.375 70.878906 279.558594 C 70.605469 279.742188 70.316406 279.894531 70.011719 280.023438 C 69.707031 280.148438 69.390625 280.242188 69.070312 280.308594 C 68.746094 280.371094 68.417969 280.40625 68.089844 280.40625 Z M 68.089844 253.371094 L 48.109375 253.371094 C 47.777344 253.371094 47.453125 253.335938 47.128906 253.273438 C 46.804688 253.207031 46.492188 253.113281 46.1875 252.988281 C 45.882812 252.859375 45.59375 252.707031 45.320312 252.523438 C 45.042969 252.339844 44.789062 252.132812 44.558594 251.898438 C 44.324219 251.664062 44.117188 251.414062 43.933594 251.136719 C 43.75 250.863281 43.59375 250.574219 43.46875 250.269531 C 43.34375 249.964844 43.246094 249.652344 43.183594 249.328125 C 43.121094 249.003906 43.085938 248.679688 43.085938 248.347656 C 43.085938 248.019531 43.121094 247.691406 43.183594 247.371094 C 43.246094 247.046875 43.34375 246.730469 43.46875 246.425781 C 43.59375 246.125 43.75 245.832031 43.933594 245.558594 C 44.117188 245.285156 44.324219 245.03125 44.558594 244.800781 C 44.789062 244.566406 45.042969 244.359375 45.320312 244.175781 C 45.59375 243.992188 45.882812 243.835938 46.1875 243.710938 C 46.492188 243.585938 46.804688 243.488281 47.128906 243.425781 C 47.453125 243.359375 47.777344 243.328125 48.109375 243.328125 L 68.089844 243.328125 C 68.417969 243.328125 68.746094 243.359375 69.070312 243.425781 C 69.390625 243.488281 69.707031 243.585938 70.011719 243.710938 C 70.316406 243.835938 70.605469 243.992188 70.878906 244.175781 C 71.152344 244.359375 71.40625 244.566406 71.640625 244.800781 C 71.871094 245.03125 72.082031 245.285156 72.261719 245.558594 C 72.445312 245.832031 72.601562 246.125 72.726562 246.425781 C 72.851562 246.730469 72.949219 247.046875 73.011719 247.371094 C 73.078125 247.691406 73.109375 248.019531 73.109375 248.347656 C 73.109375 248.679688 73.078125 249.003906 73.011719 249.328125 C 72.949219 249.652344 72.851562 249.964844 72.726562 250.269531 C 72.601562 250.574219 72.445312 250.863281 72.261719 251.136719 C 72.082031 251.414062 71.871094 251.664062 71.640625 251.898438 C 71.40625 252.132812 71.152344 252.339844 70.878906 252.523438 C 70.605469 252.707031 70.316406 252.859375 70.011719 252.988281 C 69.707031 253.113281 69.390625 253.207031 69.070312 253.273438 C 68.746094 253.335938 68.417969 253.371094 68.089844 253.371094 Z M 119.851562 280.40625 L 99.867188 280.40625 C 99.539062 280.40625 99.210938 280.371094 98.890625 280.308594 C 98.566406 280.242188 98.25 280.148438 97.945312 280.023438 C 97.640625 279.894531 97.351562 279.742188 97.078125 279.558594 C 96.804688 279.375 96.550781 279.167969 96.320312 278.933594 C 96.085938 278.699219 95.878906 278.445312 95.695312 278.171875 C 95.511719 277.898438 95.355469 277.609375 95.230469 277.304688 C 95.105469 277 95.007812 276.6875 94.945312 276.363281 C 94.878906 276.039062 94.847656 275.714844 94.847656 275.382812 C 94.847656 275.054688 94.878906 274.726562 94.945312 274.40625 C 95.007812 274.082031 95.105469 273.765625 95.230469 273.460938 C 95.355469 273.15625 95.511719 272.867188 95.695312 272.59375 C 95.878906 272.320312 96.085938 272.066406 96.320312 271.832031 C 96.550781 271.601562 96.804688 271.394531 97.078125 271.210938 C 97.351562 271.027344 97.640625 270.871094 97.945312 270.746094 C 98.25 270.621094 98.566406 270.523438 98.890625 270.460938 C 99.210938 270.394531 99.539062 270.363281 99.867188 270.363281 L 119.851562 270.363281 C 120.179688 270.363281 120.503906 270.394531 120.828125 270.460938 C 121.152344 270.523438 121.464844 270.621094 121.769531 270.746094 C 122.074219 270.871094 122.363281 271.027344 122.640625 271.210938 C 122.914062 271.394531 123.167969 271.601562 123.398438 271.832031 C 123.632812 272.066406 123.839844 272.320312 124.023438 272.59375 C 124.207031 272.867188 124.363281 273.15625 124.488281 273.460938 C 124.613281 273.765625 124.710938 274.082031 124.773438 274.40625 C 124.839844 274.726562 124.871094 275.054688 124.871094 275.382812 C 124.871094 275.714844 124.839844 276.039062 124.773438 276.363281 C 124.710938 276.6875 124.613281 277 124.488281 277.304688 C 124.363281 277.609375 124.207031 277.898438 124.023438 278.171875 C 123.839844 278.445312 123.632812 278.699219 123.398438 278.933594 C 123.167969 279.167969 122.914062 279.375 122.640625 279.558594 C 122.363281 279.742188 122.074219 279.894531 121.769531 280.023438 C 121.464844 280.148438 121.152344 280.242188 120.828125 280.308594 C 120.503906 280.371094 120.179688 280.40625 119.851562 280.40625 Z M 119.851562 253.371094 L 99.867188 253.371094 C 99.539062 253.371094 99.210938 253.335938 98.890625 253.273438 C 98.566406 253.207031 98.25 253.113281 97.945312 252.988281 C 97.640625 252.859375 97.351562 252.707031 97.078125 252.523438 C 96.804688 252.339844 96.550781 252.132812 96.320312 251.898438 C 96.085938 251.664062 95.878906 251.414062 95.695312 251.136719 C 95.511719 250.863281 95.355469 250.574219 95.230469 250.269531 C 95.105469 249.964844 95.007812 249.652344 94.945312 249.328125 C 94.878906 249.003906 94.847656 248.679688 94.847656 248.347656 C 94.847656 248.019531 94.878906 247.691406 94.945312 247.371094 C 95.007812 247.046875 95.105469 246.730469 95.230469 246.425781 C 95.355469 246.125 95.511719 245.832031 95.695312 245.558594 C 95.878906 245.285156 96.085938 245.03125 96.320312 244.800781 C 96.550781 244.566406 96.804688 244.359375 97.078125 244.175781 C 97.351562 243.992188 97.640625 243.835938 97.945312 243.710938 C 98.25 243.585938 98.566406 243.488281 98.890625 243.425781 C 99.210938 243.359375 99.539062 243.328125 99.867188 243.328125 L 119.851562 243.328125 C 120.179688 243.328125 120.503906 243.359375 120.828125 243.425781 C 121.152344 243.488281 121.464844 243.585938 121.769531 243.710938 C 122.074219 243.835938 122.363281 243.992188 122.640625 244.175781 C 122.914062 244.359375 123.167969 244.566406 123.398438 244.800781 C 123.632812 245.03125 123.839844 245.285156 124.023438 245.558594 C 124.207031 245.832031 124.363281 246.125 124.488281 246.425781 C 124.613281 246.730469 124.710938 247.046875 124.773438 247.371094 C 124.839844 247.691406 124.871094 248.019531 124.871094 248.347656 C 124.871094 248.679688 124.839844 249.003906 124.773438 249.328125 C 124.710938 249.652344 124.613281 249.964844 124.488281 250.269531 C 124.363281 250.574219 124.207031 250.863281 124.023438 251.136719 C 123.839844 251.414062 123.632812 251.664062 123.398438 251.898438 C 123.167969 252.132812 122.914062 252.339844 122.640625 252.523438 C 122.363281 252.707031 122.074219 252.859375 121.769531 252.988281 C 121.464844 253.113281 121.152344 253.207031 120.828125 253.273438 C 120.503906 253.335938 120.179688 253.371094 119.851562 253.371094 Z M 171.609375 253.371094 L 151.628906 253.371094 C 151.300781 253.371094 150.972656 253.335938 150.648438 253.273438 C 150.328125 253.207031 150.011719 253.113281 149.707031 252.988281 C 149.402344 252.859375 149.113281 252.707031 148.839844 252.523438 C 148.566406 252.339844 148.3125 252.132812 148.078125 251.898438 C 147.847656 251.664062 147.636719 251.414062 147.453125 251.136719 C 147.273438 250.863281 147.117188 250.574219 146.992188 250.269531 C 146.863281 249.964844 146.769531 249.652344 146.703125 249.328125 C 146.640625 249.003906 146.609375 248.679688 146.609375 248.347656 C 146.609375 248.019531 146.640625 247.691406 146.703125 247.371094 C 146.769531 247.046875 146.863281 246.730469 146.992188 246.425781 C 147.117188 246.125 147.273438 245.832031 147.453125 245.558594 C 147.636719 245.285156 147.847656 245.03125 148.078125 244.800781 C 148.3125 244.566406 148.566406 244.359375 148.839844 244.175781 C 149.113281 243.992188 149.402344 243.835938 149.707031 243.710938 C 150.011719 243.585938 150.328125 243.488281 150.648438 243.425781 C 150.972656 243.359375 151.300781 243.328125 151.628906 243.328125 L 171.601562 243.328125 C 171.929688 243.328125 172.257812 243.359375 172.582031 243.425781 C 172.90625 243.488281 173.21875 243.585938 173.523438 243.710938 C 173.828125 243.835938 174.117188 243.992188 174.390625 244.175781 C 174.664062 244.359375 174.917969 244.566406 175.152344 244.800781 C 175.386719 245.03125 175.59375 245.285156 175.777344 245.558594 C 175.960938 245.832031 176.113281 246.125 176.238281 246.425781 C 176.367188 246.730469 176.460938 247.046875 176.527344 247.371094 C 176.589844 247.691406 176.621094 248.019531 176.621094 248.347656 C 176.621094 248.679688 176.589844 249.003906 176.527344 249.328125 C 176.460938 249.652344 176.367188 249.964844 176.238281 250.269531 C 176.113281 250.574219 175.960938 250.863281 175.777344 251.136719 C 175.59375 251.414062 175.386719 251.664062 175.152344 251.898438 C 174.917969 252.132812 174.664062 252.339844 174.390625 252.523438 C 174.117188 252.707031 173.828125 252.859375 173.523438 252.988281 C 173.21875 253.113281 172.90625 253.207031 172.582031 253.273438 C 172.257812 253.335938 171.929688 253.371094 171.601562 253.371094 Z M 223.371094 253.371094 L 203.398438 253.371094 C 203.070312 253.371094 202.742188 253.335938 202.417969 253.273438 C 202.09375 253.207031 201.78125 253.113281 201.476562 252.988281 C 201.171875 252.859375 200.882812 252.707031 200.609375 252.523438 C 200.335938 252.339844 200.082031 252.132812 199.847656 251.898438 C 199.613281 251.664062 199.40625 251.414062 199.222656 251.136719 C 199.039062 250.863281 198.886719 250.574219 198.757812 250.269531 C 198.632812 249.964844 198.539062 249.652344 198.472656 249.328125 C 198.410156 249.003906 198.378906 248.679688 198.378906 248.347656 C 198.378906 248.019531 198.410156 247.691406 198.472656 247.371094 C 198.539062 247.046875 198.632812 246.730469 198.757812 246.425781 C 198.886719 246.125 199.039062 245.832031 199.222656 245.558594 C 199.40625 245.285156 199.613281 245.03125 199.847656 244.800781 C 200.082031 244.566406 200.335938 244.359375 200.609375 244.175781 C 200.882812 243.992188 201.171875 243.835938 201.476562 243.710938 C 201.78125 243.585938 202.09375 243.488281 202.417969 243.425781 C 202.742188 243.359375 203.070312 243.328125 203.398438 243.328125 L 223.378906 243.328125 C 223.710938 243.328125 224.035156 243.359375 224.359375 243.425781 C 224.683594 243.488281 224.996094 243.585938 225.300781 243.710938 C 225.605469 243.835938 225.894531 243.992188 226.167969 244.175781 C 226.441406 244.359375 226.695312 244.566406 226.929688 244.800781 C 227.164062 245.03125 227.371094 245.285156 227.554688 245.558594 C 227.738281 245.832031 227.890625 246.125 228.019531 246.425781 C 228.144531 246.730469 228.238281 247.046875 228.304688 247.371094 C 228.367188 247.691406 228.398438 248.019531 228.398438 248.347656 C 228.398438 248.679688 228.367188 249.003906 228.304688 249.328125 C 228.238281 249.652344 228.144531 249.964844 228.019531 250.269531 C 227.890625 250.574219 227.738281 250.863281 227.554688 251.136719 C 227.371094 251.414062 227.164062 251.664062 226.929688 251.898438 C 226.695312 252.132812 226.441406 252.339844 226.167969 252.523438 C 225.894531 252.707031 225.605469 252.859375 225.300781 252.988281 C 224.996094 253.113281 224.683594 253.207031 224.359375 253.273438 C 224.035156 253.335938 223.710938 253.371094 223.378906 253.371094 Z M 275.132812 280.40625 L 255.148438 280.40625 C 254.820312 280.40625 254.496094 280.371094 254.171875 280.308594 C 253.847656 280.242188 253.535156 280.148438 253.230469 280.023438 C 252.925781 279.894531 252.636719 279.742188 252.359375 279.558594 C 252.085938 279.375 251.832031 279.167969 251.601562 278.933594 C 251.367188 278.699219 251.160156 278.445312 250.976562 278.171875 C 250.792969 277.898438 250.636719 277.609375 250.511719 277.304688 C 250.386719 277 250.289062 276.6875 250.226562 276.363281 C 250.160156 276.039062 250.128906 275.714844 250.128906 275.382812 C 250.128906 275.054688 250.160156 274.726562 250.226562 274.40625 C 250.289062 274.082031 250.386719 273.765625 250.511719 273.460938 C 250.636719 273.15625 250.792969 272.867188 250.976562 272.59375 C 251.160156 272.320312 251.367188 272.066406 251.601562 271.832031 C 251.832031 271.601562 252.085938 271.394531 252.359375 271.210938 C 252.636719 271.027344 252.925781 270.871094 253.230469 270.746094 C 253.535156 270.621094 253.847656 270.523438 254.171875 270.460938 C 254.496094 270.394531 254.820312 270.363281 255.148438 270.363281 L 275.132812 270.363281 C 275.460938 270.363281 275.789062 270.394531 276.109375 270.460938 C 276.433594 270.523438 276.75 270.621094 277.054688 270.746094 C 277.355469 270.871094 277.648438 271.027344 277.921875 271.210938 C 278.195312 271.394531 278.449219 271.601562 278.679688 271.832031 C 278.914062 272.066406 279.121094 272.320312 279.304688 272.59375 C 279.488281 272.867188 279.644531 273.15625 279.769531 273.460938 C 279.894531 273.765625 279.992188 274.082031 280.054688 274.40625 C 280.121094 274.726562 280.152344 275.054688 280.152344 275.382812 C 280.152344 275.714844 280.121094 276.039062 280.054688 276.363281 C 279.992188 276.6875 279.894531 277 279.769531 277.304688 C 279.644531 277.609375 279.488281 277.898438 279.304688 278.171875 C 279.121094 278.445312 278.914062 278.699219 278.679688 278.933594 C 278.449219 279.167969 278.195312 279.375 277.921875 279.558594 C 277.648438 279.742188 277.355469 279.894531 277.054688 280.023438 C 276.75 280.148438 276.433594 280.242188 276.109375 280.308594 C 275.789062 280.371094 275.460938 280.40625 275.132812 280.40625 Z M 275.132812 253.371094 L 255.148438 253.371094 C 254.820312 253.371094 254.496094 253.335938 254.171875 253.273438 C 253.847656 253.207031 253.535156 253.113281 253.230469 252.988281 C 252.925781 252.859375 252.636719 252.707031 252.359375 252.523438 C 252.085938 252.339844 251.832031 252.132812 251.601562 251.898438 C 251.367188 251.664062 251.160156 251.414062 250.976562 251.136719 C 250.792969 250.863281 250.636719 250.574219 250.511719 250.269531 C 250.386719 249.964844 250.289062 249.652344 250.226562 249.328125 C 250.160156 249.003906 250.128906 248.679688 250.128906 248.347656 C 250.128906 248.019531 250.160156 247.691406 250.226562 247.371094 C 250.289062 247.046875 250.386719 246.730469 250.511719 246.425781 C 250.636719 246.125 250.792969 245.832031 250.976562 245.558594 C 251.160156 245.285156 251.367188 245.03125 251.601562 244.800781 C 251.832031 244.566406 252.085938 244.359375 252.359375 244.175781 C 252.636719 243.992188 252.925781 243.835938 253.230469 243.710938 C 253.535156 243.585938 253.847656 243.488281 254.171875 243.425781 C 254.496094 243.359375 254.820312 243.328125 255.148438 243.328125 L 275.132812 243.328125 C 275.460938 243.328125 275.789062 243.359375 276.109375 243.425781 C 276.433594 243.488281 276.75 243.585938 277.054688 243.710938 C 277.355469 243.835938 277.648438 243.992188 277.921875 244.175781 C 278.195312 244.359375 278.449219 244.566406 278.679688 244.800781 C 278.914062 245.03125 279.121094 245.285156 279.304688 245.558594 C 279.488281 245.832031 279.644531 246.125 279.769531 246.425781 C 279.894531 246.730469 279.992188 247.046875 280.054688 247.371094 C 280.121094 247.691406 280.152344 248.019531 280.152344 248.347656 C 280.152344 248.679688 280.121094 249.003906 280.054688 249.328125 C 279.992188 249.652344 279.894531 249.964844 279.769531 250.269531 C 279.644531 250.574219 279.488281 250.863281 279.304688 251.136719 C 279.121094 251.414062 278.914062 251.664062 278.679688 251.898438 C 278.449219 252.132812 278.195312 252.339844 277.921875 252.523438 C 277.648438 252.707031 277.355469 252.859375 277.054688 252.988281 C 276.75 253.113281 276.433594 253.207031 276.109375 253.273438 C 275.789062 253.335938 275.460938 253.371094 275.132812 253.371094 Z M 326.890625 280.40625 L 306.910156 280.40625 C 306.582031 280.40625 306.253906 280.371094 305.929688 280.308594 C 305.609375 280.242188 305.292969 280.148438 304.988281 280.023438 C 304.683594 279.894531 304.394531 279.742188 304.121094 279.558594 C 303.847656 279.375 303.59375 279.167969 303.359375 278.933594 C 303.128906 278.699219 302.917969 278.445312 302.738281 278.171875 C 302.554688 277.898438 302.398438 277.609375 302.273438 277.304688 C 302.148438 277 302.050781 276.6875 301.988281 276.363281 C 301.921875 276.039062 301.890625 275.714844 301.890625 275.382812 C 301.890625 275.054688 301.921875 274.726562 301.988281 274.40625 C 302.050781 274.082031 302.148438 273.765625 302.273438 273.460938 C 302.398438 273.15625 302.554688 272.867188 302.738281 272.59375 C 302.917969 272.320312 303.128906 272.066406 303.359375 271.832031 C 303.59375 271.601562 303.847656 271.394531 304.121094 271.210938 C 304.394531 271.027344 304.683594 270.871094 304.988281 270.746094 C 305.292969 270.621094 305.609375 270.523438 305.929688 270.460938 C 306.253906 270.394531 306.582031 270.363281 306.910156 270.363281 L 326.890625 270.363281 C 327.222656 270.363281 327.546875 270.394531 327.871094 270.460938 C 328.195312 270.523438 328.507812 270.621094 328.8125 270.746094 C 329.117188 270.871094 329.40625 271.027344 329.679688 271.210938 C 329.957031 271.394531 330.210938 271.601562 330.441406 271.832031 C 330.675781 272.066406 330.882812 272.320312 331.066406 272.59375 C 331.25 272.867188 331.40625 273.15625 331.53125 273.460938 C 331.65625 273.765625 331.75 274.082031 331.816406 274.40625 C 331.878906 274.726562 331.914062 275.054688 331.914062 275.382812 C 331.914062 275.714844 331.878906 276.039062 331.816406 276.363281 C 331.75 276.6875 331.65625 277 331.53125 277.304688 C 331.40625 277.609375 331.25 277.898438 331.066406 278.171875 C 330.882812 278.445312 330.675781 278.699219 330.441406 278.933594 C 330.210938 279.167969 329.957031 279.375 329.679688 279.558594 C 329.40625 279.742188 329.117188 279.894531 328.8125 280.023438 C 328.507812 280.148438 328.195312 280.242188 327.871094 280.308594 C 327.546875 280.371094 327.222656 280.40625 326.890625 280.40625 Z M 326.890625 253.371094 L 306.910156 253.371094 C 306.582031 253.371094 306.253906 253.335938 305.929688 253.273438 C 305.609375 253.207031 305.292969 253.113281 304.988281 252.988281 C 304.683594 252.859375 304.394531 252.707031 304.121094 252.523438 C 303.847656 252.339844 303.59375 252.132812 303.359375 251.898438 C 303.128906 251.664062 302.917969 251.414062 302.738281 251.136719 C 302.554688 250.863281 302.398438 250.574219 302.273438 250.269531 C 302.148438 249.964844 302.050781 249.652344 301.988281 249.328125 C 301.921875 249.003906 301.890625 248.679688 301.890625 248.347656 C 301.890625 248.019531 301.921875 247.691406 301.988281 247.371094 C 302.050781 247.046875 302.148438 246.730469 302.273438 246.425781 C 302.398438 246.125 302.554688 245.832031 302.738281 245.558594 C 302.917969 245.285156 303.128906 245.03125 303.359375 244.800781 C 303.59375 244.566406 303.847656 244.359375 304.121094 244.175781 C 304.394531 243.992188 304.683594 243.835938 304.988281 243.710938 C 305.292969 243.585938 305.609375 243.488281 305.929688 243.425781 C 306.253906 243.359375 306.582031 243.328125 306.910156 243.328125 L 326.890625 243.328125 C 327.222656 243.328125 327.546875 243.359375 327.871094 243.425781 C 328.195312 243.488281 328.507812 243.585938 328.8125 243.710938 C 329.117188 243.835938 329.40625 243.992188 329.679688 244.175781 C 329.957031 244.359375 330.210938 244.566406 330.441406 244.800781 C 330.675781 245.03125 330.882812 245.285156 331.066406 245.558594 C 331.25 245.832031 331.40625 246.125 331.53125 246.425781 C 331.65625 246.730469 331.75 247.046875 331.816406 247.371094 C 331.878906 247.691406 331.914062 248.019531 331.914062 248.347656 C 331.914062 248.679688 331.878906 249.003906 331.816406 249.328125 C 331.75 249.652344 331.65625 249.964844 331.53125 250.269531 C 331.40625 250.574219 331.25 250.863281 331.066406 251.136719 C 330.882812 251.414062 330.675781 251.664062 330.441406 251.898438 C 330.210938 252.132812 329.957031 252.339844 329.679688 252.523438 C 329.40625 252.707031 329.117188 252.859375 328.8125 252.988281 C 328.507812 253.113281 328.195312 253.207031 327.871094 253.273438 C 327.546875 253.335938 327.222656 253.371094 326.890625 253.371094 Z M 326.890625 253.371094 " fill-opacity="1" fill-rule="nonzero"/></g><path fill="#2d4b61" d="M 325.300781 -0.0625 L 49.699219 -0.0625 C 48.804688 -0.0625 47.917969 0.0273438 47.042969 0.203125 C 46.167969 0.378906 45.316406 0.636719 44.492188 0.980469 C 43.667969 1.320312 42.882812 1.742188 42.140625 2.238281 C 41.398438 2.734375 40.710938 3.296875 40.078125 3.929688 C 39.449219 4.5625 38.882812 5.25 38.386719 5.992188 C 37.890625 6.734375 37.472656 7.519531 37.128906 8.34375 C 36.789062 9.171875 36.53125 10.019531 36.355469 10.898438 C 36.179688 11.773438 36.09375 12.660156 36.09375 13.550781 L 36.09375 223.085938 L 338.949219 223.085938 L 338.949219 13.550781 C 338.949219 12.65625 338.859375 11.769531 338.6875 10.890625 C 338.511719 10.015625 338.25 9.164062 337.90625 8.335938 C 337.566406 7.507812 337.144531 6.722656 336.644531 5.980469 C 336.148438 5.234375 335.582031 4.546875 334.949219 3.914062 C 334.3125 3.285156 333.625 2.71875 332.878906 2.222656 C 332.136719 1.726562 331.347656 1.308594 330.519531 0.96875 C 329.695312 0.625 328.839844 0.367188 327.960938 0.195312 C 327.085938 0.0234375 326.199219 -0.0625 325.300781 -0.0625 Z M 326.398438 105.9375 C 326.210938 106.574219 325.910156 107.152344 325.496094 107.671875 C 325.078125 108.191406 324.578125 108.609375 323.996094 108.929688 L 295.429688 124.652344 C 294.675781 125.070312 293.867188 125.273438 293.003906 125.273438 C 292.515625 125.273438 292.039062 125.203125 291.574219 125.0625 C 290.929688 124.871094 290.34375 124.5625 289.824219 124.136719 C 289.304688 123.710938 288.886719 123.199219 288.570312 122.605469 L 288.132812 121.765625 L 277.523438 130.777344 C 283.816406 137.070312 284.476562 147.429688 278.722656 154.894531 C 277.25 156.8125 275.476562 158.390625 273.394531 159.625 C 271.316406 160.859375 269.078125 161.660156 266.6875 162.03125 C 265.769531 162.171875 264.847656 162.242188 263.917969 162.238281 C 262.046875 162.242188 260.222656 161.949219 258.445312 161.363281 C 256.667969 160.773438 255.027344 159.921875 253.527344 158.800781 C 252.886719 161.746094 251.640625 164.40625 249.785156 166.785156 C 248.914062 167.945312 247.921875 168.992188 246.808594 169.925781 C 245.695312 170.859375 244.492188 171.652344 243.199219 172.3125 C 241.90625 172.972656 240.554688 173.476562 239.144531 173.824219 C 237.734375 174.171875 236.304688 174.359375 234.851562 174.382812 C 233.09375 174.394531 231.378906 174.121094 229.714844 173.5625 C 228.046875 173.003906 226.515625 172.1875 225.121094 171.117188 L 223.8125 170.113281 C 223.628906 171.175781 223.351562 172.214844 222.988281 173.226562 C 222.621094 174.242188 222.167969 175.214844 221.632812 176.152344 C 221.09375 177.085938 220.480469 177.96875 219.789062 178.796875 C 219.097656 179.621094 218.339844 180.382812 217.515625 181.078125 C 216.695312 181.773438 215.816406 182.394531 214.882812 182.933594 C 213.953125 183.476562 212.980469 183.933594 211.96875 184.304688 C 210.957031 184.679688 209.917969 184.960938 208.859375 185.152344 C 207.796875 185.339844 206.726562 185.4375 205.648438 185.441406 C 203.867188 185.4375 202.121094 185.1875 200.410156 184.691406 L 199.933594 184.523438 C 199.757812 186.15625 199.371094 187.738281 198.773438 189.273438 C 198.175781 190.804688 197.386719 192.230469 196.410156 193.550781 C 195.429688 194.871094 194.296875 196.042969 193.003906 197.058594 C 191.714844 198.078125 190.3125 198.910156 188.800781 199.554688 C 187.289062 200.199219 185.71875 200.636719 184.089844 200.863281 C 182.460938 201.089844 180.832031 201.097656 179.203125 200.886719 C 177.570312 200.679688 175.996094 200.261719 174.476562 199.632812 C 172.957031 199.003906 171.546875 198.1875 170.246094 197.183594 L 163.191406 191.761719 L 154.773438 199.816406 C 153.296875 201.242188 151.605469 202.335938 149.699219 203.101562 C 147.796875 203.867188 145.816406 204.25 143.761719 204.246094 L 143.414062 204.246094 C 142.519531 204.226562 141.632812 204.132812 140.753906 203.964844 C 139.875 203.796875 139.019531 203.554688 138.179688 203.242188 C 137.34375 202.929688 136.539062 202.546875 135.765625 202.097656 C 134.992188 201.652344 134.261719 201.140625 133.574219 200.566406 C 132.886719 199.996094 132.253906 199.371094 131.671875 198.691406 C 131.089844 198.011719 130.570312 197.289062 130.109375 196.523438 C 129.648438 195.753906 129.257812 194.957031 128.933594 194.121094 C 128.609375 193.289062 128.355469 192.433594 128.175781 191.558594 C 127.410156 191.675781 126.640625 191.738281 125.867188 191.742188 L 125.515625 191.742188 C 124.992188 191.734375 124.472656 191.699219 123.953125 191.636719 C 123.4375 191.574219 122.921875 191.488281 122.414062 191.375 C 121.902344 191.261719 121.398438 191.125 120.902344 190.964844 C 120.40625 190.804688 119.921875 190.617188 119.441406 190.40625 C 118.964844 190.199219 118.496094 189.964844 118.042969 189.710938 C 117.585938 189.453125 117.144531 189.175781 116.71875 188.878906 C 116.292969 188.578125 115.878906 188.261719 115.484375 187.921875 C 115.085938 187.582031 114.707031 187.222656 114.347656 186.84375 C 113.984375 186.46875 113.644531 186.074219 113.320312 185.664062 C 113 185.253906 112.699219 184.828125 112.417969 184.386719 C 112.136719 183.949219 111.878906 183.496094 111.644531 183.03125 C 111.410156 182.5625 111.195312 182.085938 111.007812 181.601562 C 110.820312 181.113281 110.652344 180.621094 110.515625 180.117188 C 110.375 179.613281 110.257812 179.105469 110.167969 178.59375 C 110.078125 178.078125 110.015625 177.5625 109.976562 177.039062 C 109.9375 176.519531 109.921875 176 109.933594 175.476562 C 109.933594 175.175781 109.976562 174.875 110 174.566406 C 109.0625 174.410156 108.148438 174.175781 107.253906 173.859375 C 106.355469 173.539062 105.496094 173.144531 104.671875 172.671875 C 103.847656 172.199219 103.074219 171.660156 102.34375 171.046875 C 101.617188 170.4375 100.949219 169.765625 100.34375 169.035156 C 99.738281 168.304688 99.199219 167.523438 98.734375 166.695312 C 98.265625 165.871094 97.875 165.007812 97.5625 164.109375 C 97.25 163.214844 97.019531 162.296875 96.871094 161.355469 C 96.722656 160.417969 96.660156 159.476562 96.679688 158.523438 C 96.714844 156.992188 96.964844 155.492188 97.425781 154.03125 C 94.859375 153.230469 92.652344 151.859375 90.796875 149.914062 L 90.488281 149.597656 C 89.785156 148.859375 89.160156 148.0625 88.613281 147.207031 C 88.066406 146.347656 87.609375 145.445312 87.234375 144.5 C 86.863281 143.554688 86.585938 142.578125 86.402344 141.578125 C 86.21875 140.578125 86.132812 139.570312 86.144531 138.550781 C 86.15625 137.535156 86.269531 136.527344 86.476562 135.53125 C 86.683594 134.535156 86.984375 133.570312 87.378906 132.632812 C 87.773438 131.695312 88.257812 130.804688 88.824219 129.960938 C 89.394531 129.117188 90.035156 128.335938 90.757812 127.617188 L 83.453125 118.605469 C 82.972656 119.136719 82.40625 119.550781 81.753906 119.84375 C 81.097656 120.136719 80.410156 120.28125 79.695312 120.277344 C 78.796875 120.277344 77.957031 120.046875 77.183594 119.589844 L 50.996094 104.320312 C 50.710938 104.15625 50.445312 103.960938 50.199219 103.746094 C 49.953125 103.527344 49.726562 103.285156 49.527344 103.023438 C 49.328125 102.761719 49.15625 102.480469 49.011719 102.1875 C 48.867188 101.890625 48.753906 101.582031 48.671875 101.265625 C 48.585938 100.945312 48.535156 100.621094 48.515625 100.292969 C 48.496094 99.964844 48.507812 99.636719 48.550781 99.3125 C 48.59375 98.984375 48.671875 98.664062 48.777344 98.355469 C 48.886719 98.042969 49.019531 97.746094 49.1875 97.460938 L 93.625 21.242188 C 93.796875 20.949219 93.992188 20.679688 94.21875 20.429688 C 94.441406 20.179688 94.6875 19.953125 94.957031 19.753906 C 95.226562 19.550781 95.515625 19.378906 95.820312 19.234375 C 96.121094 19.09375 96.4375 18.980469 96.765625 18.902344 C 97.089844 18.820312 97.421875 18.773438 97.757812 18.761719 C 98.09375 18.746094 98.429688 18.765625 98.761719 18.820312 C 99.09375 18.875 99.417969 18.960938 99.730469 19.078125 C 100.046875 19.199219 100.34375 19.347656 100.628906 19.527344 L 127.816406 36.613281 C 128.09375 36.785156 128.351562 36.984375 128.589844 37.210938 C 128.828125 37.433594 129.039062 37.679688 129.230469 37.945312 C 129.421875 38.210938 129.582031 38.492188 129.71875 38.789062 C 129.855469 39.089844 129.957031 39.398438 130.035156 39.714844 C 130.109375 40.035156 130.152344 40.355469 130.164062 40.683594 C 130.175781 41.011719 130.15625 41.335938 130.105469 41.65625 C 130.050781 41.980469 129.96875 42.296875 129.855469 42.601562 C 129.742188 42.910156 129.601562 43.203125 129.429688 43.480469 L 126.023438 49.054688 C 130.683594 52.167969 139.136719 56.585938 148.816406 56.167969 C 152.5 52.035156 156.875 48.847656 161.9375 46.609375 C 175.066406 40.554688 191.617188 40.058594 211.128906 45.121094 C 226.816406 48.609375 242.824219 50.316406 249.878906 49.488281 L 247.292969 44.613281 C 247.140625 44.324219 247.015625 44.027344 246.917969 43.714844 C 246.824219 43.40625 246.757812 43.085938 246.726562 42.765625 C 246.691406 42.441406 246.6875 42.117188 246.71875 41.792969 C 246.746094 41.46875 246.804688 41.152344 246.898438 40.839844 C 246.988281 40.527344 247.105469 40.226562 247.257812 39.9375 C 247.40625 39.648438 247.582031 39.378906 247.78125 39.121094 C 247.984375 38.867188 248.207031 38.636719 248.457031 38.421875 C 248.703125 38.210938 248.96875 38.027344 249.25 37.867188 L 276.578125 22.804688 C 276.867188 22.648438 277.167969 22.519531 277.484375 22.417969 C 277.796875 22.320312 278.121094 22.25 278.449219 22.214844 C 278.773438 22.179688 279.101562 22.175781 279.433594 22.203125 C 279.761719 22.230469 280.082031 22.292969 280.398438 22.382812 C 280.714844 22.476562 281.019531 22.597656 281.3125 22.75 C 281.605469 22.902344 281.882812 23.082031 282.136719 23.289062 C 282.394531 23.496094 282.628906 23.722656 282.84375 23.976562 C 283.054688 24.230469 283.238281 24.5 283.398438 24.789062 L 325.929688 102.078125 C 326.265625 102.664062 326.472656 103.292969 326.550781 103.960938 C 326.632812 104.628906 326.582031 105.289062 326.398438 105.9375 Z M 326.398438 105.9375 " fill-opacity="1" fill-rule="nonzero"/><path fill="#2d4b61" d="M 122.082031 125.457031 C 122.058594 126.765625 121.625 127.921875 120.785156 128.929688 L 105.5 143.5625 C 105.226562 143.773438 104.933594 143.957031 104.625 144.113281 C 104.316406 144.269531 103.996094 144.398438 103.664062 144.496094 C 103.332031 144.59375 102.996094 144.660156 102.652344 144.695312 C 102.308594 144.730469 101.964844 144.734375 101.617188 144.707031 C 101.273438 144.679688 100.933594 144.621094 100.601562 144.53125 C 100.265625 144.441406 99.945312 144.320312 99.632812 144.171875 C 99.320312 144.023438 99.023438 143.847656 98.746094 143.644531 C 98.464844 143.441406 98.207031 143.210938 97.96875 142.960938 L 97.667969 142.644531 C 97.410156 142.375 97.183594 142.082031 96.984375 141.769531 C 96.785156 141.453125 96.617188 141.125 96.484375 140.777344 C 96.347656 140.429688 96.25 140.074219 96.183594 139.707031 C 96.121094 139.339844 96.09375 138.972656 96.101562 138.597656 C 96.109375 138.226562 96.152344 137.859375 96.234375 137.496094 C 96.3125 137.132812 96.429688 136.78125 96.578125 136.441406 C 96.726562 136.101562 96.910156 135.777344 97.121094 135.472656 C 97.335938 135.167969 97.574219 134.886719 97.84375 134.628906 L 101.082031 131.53125 L 112.195312 120.921875 C 112.460938 120.664062 112.753906 120.4375 113.070312 120.238281 C 113.382812 120.039062 113.714844 119.871094 114.058594 119.738281 C 114.40625 119.601562 114.765625 119.503906 115.128906 119.4375 C 115.496094 119.375 115.867188 119.347656 116.238281 119.355469 C 116.609375 119.363281 116.976562 119.40625 117.339844 119.488281 C 117.703125 119.566406 118.054688 119.683594 118.398438 119.832031 C 118.738281 119.980469 119.058594 120.164062 119.363281 120.375 C 119.671875 120.589844 119.953125 120.828125 120.210938 121.097656 L 120.511719 121.414062 C 121.03125 121.957031 121.429688 122.578125 121.703125 123.277344 C 121.972656 123.980469 122.101562 124.707031 122.082031 125.457031 Z M 122.082031 125.457031 " fill-opacity="1" fill-rule="nonzero"/><path fill="#2d4b61" d="M 141.085938 139.113281 L 114.820312 164.214844 C 114.054688 164.53125 113.257812 164.683594 112.429688 164.675781 C 111.84375 164.667969 111.269531 164.578125 110.710938 164.402344 C 110.152344 164.226562 109.632812 163.96875 109.152344 163.636719 C 108.667969 163.304688 108.246094 162.90625 107.882812 162.449219 C 107.519531 161.988281 107.234375 161.484375 107.019531 160.941406 C 106.808594 160.394531 106.683594 159.828125 106.640625 159.246094 C 106.597656 158.660156 106.640625 158.082031 106.769531 157.511719 C 106.902344 156.941406 107.113281 156.402344 107.40625 155.894531 C 107.699219 155.386719 108.058594 154.933594 108.488281 154.535156 L 112.269531 150.917969 C 112.503906 150.71875 112.738281 150.527344 112.964844 150.308594 L 127.253906 136.679688 C 127.472656 136.476562 127.664062 136.25 127.867188 136.035156 L 131.671875 132.394531 C 132.160156 131.898438 132.722656 131.503906 133.351562 131.207031 C 133.980469 130.914062 134.644531 130.734375 135.335938 130.675781 C 136.03125 130.617188 136.714844 130.679688 137.382812 130.863281 C 138.054688 131.046875 138.675781 131.339844 139.242188 131.742188 C 139.808594 132.148438 140.285156 132.636719 140.679688 133.214844 C 141.070312 133.789062 141.351562 134.414062 141.519531 135.089844 C 141.6875 135.765625 141.738281 136.449219 141.660156 137.140625 C 141.585938 137.832031 141.394531 138.488281 141.085938 139.113281 Z M 141.085938 139.113281 " fill-opacity="1" fill-rule="nonzero"/><path fill="#2d4b61" d="M 158.003906 150.761719 C 157.988281 151.539062 157.824219 152.28125 157.511719 152.996094 C 157.195312 153.707031 156.757812 154.332031 156.199219 154.867188 L 155.636719 155.402344 C 154.621094 156.007812 153.6875 156.722656 152.832031 157.539062 L 132.703125 176.78125 C 131.847656 177.601562 131.09375 178.503906 130.441406 179.492188 L 129.890625 180.027344 C 129.472656 180.441406 129.003906 180.78125 128.484375 181.050781 C 127.964844 181.320312 127.414062 181.507812 126.839844 181.613281 C 126.261719 181.71875 125.683594 181.734375 125.101562 181.667969 C 124.519531 181.597656 123.960938 181.445312 123.425781 181.210938 C 122.890625 180.972656 122.402344 180.664062 121.957031 180.28125 C 121.515625 179.898438 121.136719 179.460938 120.824219 178.964844 C 120.515625 178.46875 120.28125 177.9375 120.128906 177.371094 C 119.980469 176.804688 119.914062 176.230469 119.933594 175.644531 C 119.960938 174.402344 120.347656 173.289062 121.097656 172.296875 C 121.996094 171.730469 122.835938 171.082031 123.605469 170.347656 L 146.808594 148.132812 C 147.570312 147.402344 148.253906 146.605469 148.859375 145.738281 C 149.304688 145.429688 149.785156 145.183594 150.300781 145.007812 C 150.816406 144.828125 151.34375 144.726562 151.890625 144.695312 C 152.433594 144.664062 152.96875 144.710938 153.5 144.832031 C 154.03125 144.949219 154.535156 145.140625 155.015625 145.402344 C 155.492188 145.664062 155.925781 145.984375 156.316406 146.363281 C 156.703125 146.746094 157.03125 147.175781 157.300781 147.648438 C 157.570312 148.121094 157.769531 148.621094 157.898438 149.152344 C 158.027344 149.679688 158.082031 150.214844 158.0625 150.761719 Z M 158.003906 150.761719 " fill-opacity="1" fill-rule="nonzero"/><path fill="#2d4b61" d="M 167.921875 173.300781 L 147.789062 192.546875 C 147.230469 193.089844 146.585938 193.507812 145.863281 193.796875 C 145.136719 194.089844 144.386719 194.230469 143.605469 194.21875 C 143.359375 194.214844 143.117188 194.199219 142.875 194.164062 C 142.632812 194.128906 142.394531 194.082031 142.160156 194.015625 C 141.921875 193.953125 141.691406 193.875 141.464844 193.78125 C 141.242188 193.6875 141.023438 193.582031 140.808594 193.460938 C 140.597656 193.34375 140.390625 193.210938 140.195312 193.0625 C 140 192.917969 139.8125 192.761719 139.636719 192.589844 C 139.460938 192.421875 139.296875 192.242188 139.140625 192.054688 C 138.988281 191.863281 138.847656 191.664062 138.71875 191.457031 C 138.589844 191.25 138.472656 191.035156 138.371094 190.8125 C 138.269531 190.589844 138.179688 190.363281 138.109375 190.132812 C 138.035156 189.898438 137.976562 189.660156 137.929688 189.421875 C 137.886719 189.179688 137.859375 188.941406 137.84375 188.695312 C 137.832031 188.453125 137.832031 188.207031 137.847656 187.964844 C 137.863281 187.722656 137.898438 187.480469 137.945312 187.238281 C 137.992188 187 138.050781 186.765625 138.128906 186.53125 C 138.203125 186.300781 138.296875 186.074219 138.398438 185.851562 L 149.21875 175.492188 L 161.5625 163.613281 C 162.109375 163.386719 162.675781 163.246094 163.265625 163.191406 C 163.855469 163.136719 164.441406 163.171875 165.023438 163.292969 C 165.601562 163.414062 166.148438 163.621094 166.667969 163.90625 C 167.1875 164.191406 167.652344 164.550781 168.0625 164.976562 C 168.332031 165.253906 168.570312 165.554688 168.777344 165.882812 C 168.984375 166.207031 169.160156 166.550781 169.304688 166.910156 C 169.445312 167.269531 169.550781 167.636719 169.617188 168.019531 C 169.6875 168.398438 169.71875 168.78125 169.710938 169.167969 C 169.703125 169.554688 169.660156 169.9375 169.578125 170.3125 C 169.496094 170.691406 169.378906 171.058594 169.226562 171.414062 C 169.070312 171.765625 168.886719 172.105469 168.664062 172.421875 C 168.445312 172.738281 168.199219 173.03125 167.921875 173.300781 Z M 167.921875 173.300781 " fill-opacity="1" fill-rule="nonzero"/><path fill="#2d4b61" d="M 188.21875 187.71875 C 187.878906 188.160156 187.5 188.5625 187.082031 188.929688 C 186.660156 189.292969 186.210938 189.617188 185.726562 189.894531 C 185.246094 190.167969 184.742188 190.394531 184.210938 190.574219 C 183.683594 190.75 183.144531 190.875 182.59375 190.945312 C 182.042969 191.015625 181.488281 191.03125 180.933594 190.992188 C 180.378906 190.953125 179.832031 190.859375 179.296875 190.710938 C 178.757812 190.566406 178.242188 190.367188 177.742188 190.117188 C 177.246094 189.871094 176.777344 189.574219 176.335938 189.234375 L 170.480469 184.738281 L 174.847656 180.554688 C 176.257812 179.210938 177.378906 177.652344 178.214844 175.890625 C 179.046875 174.128906 179.539062 172.277344 179.683594 170.332031 L 186.042969 175.242188 C 186.242188 175.464844 186.457031 175.664062 186.6875 175.84375 C 187.128906 176.183594 187.53125 176.566406 187.894531 176.984375 C 188.257812 177.402344 188.582031 177.855469 188.855469 178.335938 C 189.132812 178.816406 189.359375 179.324219 189.535156 179.847656 C 189.714844 180.375 189.835938 180.914062 189.910156 181.464844 C 189.980469 182.015625 189.996094 182.570312 189.957031 183.125 C 189.921875 183.679688 189.828125 184.222656 189.683594 184.761719 C 189.539062 185.296875 189.34375 185.8125 189.097656 186.3125 C 188.851562 186.808594 188.558594 187.277344 188.21875 187.71875 Z M 188.21875 187.71875 " fill-opacity="1" fill-rule="nonzero"/><path fill="#2d4b61" d="M 314.683594 102.554688 L 294.980469 113.390625 L 261.214844 49.632812 L 258.398438 44.308594 L 277.03125 34.058594 Z M 314.683594 102.554688 " fill-opacity="1" fill-rule="nonzero"/><path fill="#2d4b61" d="M 283.28125 112.6875 L 269.484375 124.402344 L 213.632812 81.269531 C 213.4375 81.125 213.238281 80.992188 213.027344 80.875 C 199.765625 71.253906 187.316406 67.824219 176.003906 70.683594 C 166.230469 73.195312 159.679688 79.796875 155.921875 84.910156 C 154.433594 86.9375 152.617188 88.613281 150.472656 89.9375 C 148.332031 91.257812 146.019531 92.128906 143.539062 92.546875 C 142.589844 92.75 141.636719 92.785156 140.675781 92.65625 C 140.558594 91.621094 140.675781 87.636719 146.726562 77.195312 C 150.398438 70.84375 154.472656 65.238281 155.242188 64.183594 C 155.34375 64.058594 155.4375 63.921875 155.519531 63.796875 C 155.542969 63.769531 155.5625 63.742188 155.578125 63.714844 C 156.105469 62.925781 168.847656 44.46875 208.652344 54.851562 L 208.828125 54.851562 C 209.253906 54.953125 219.414062 57.203125 230.5 58.601562 C 243.132812 60.191406 250.355469 59.847656 254.714844 58.601562 Z M 283.28125 112.6875 " fill-opacity="1" fill-rule="nonzero"/><path fill="#2d4b61" d="M 270.730469 148.761719 C 270.046875 149.660156 269.222656 150.398438 268.253906 150.976562 C 267.289062 151.554688 266.246094 151.929688 265.132812 152.105469 C 264.109375 152.273438 263.09375 152.234375 262.089844 151.980469 C 261.082031 151.730469 260.167969 151.289062 259.34375 150.660156 L 197.140625 102.621094 C 196.878906 102.421875 196.601562 102.246094 196.304688 102.101562 C 196.007812 101.957031 195.703125 101.839844 195.386719 101.753906 C 195.066406 101.667969 194.742188 101.613281 194.414062 101.59375 C 194.085938 101.570312 193.757812 101.578125 193.433594 101.621094 C 193.105469 101.664062 192.785156 101.738281 192.472656 101.84375 C 192.160156 101.949219 191.863281 102.082031 191.578125 102.246094 C 191.292969 102.410156 191.023438 102.601562 190.777344 102.820312 C 190.527344 103.035156 190.304688 103.273438 190.101562 103.535156 L 190.058594 103.585938 L 190.058594 103.625 C 189.859375 103.886719 189.683594 104.164062 189.535156 104.457031 C 189.386719 104.75 189.269531 105.058594 189.183594 105.375 C 189.097656 105.691406 189.039062 106.015625 189.015625 106.34375 C 188.992188 106.671875 189 107 189.039062 107.324219 C 189.082031 107.652344 189.152344 107.972656 189.257812 108.285156 C 189.359375 108.597656 189.492188 108.894531 189.652344 109.183594 C 189.816406 109.46875 190.003906 109.734375 190.21875 109.984375 C 190.433594 110.234375 190.671875 110.460938 190.929688 110.664062 L 241.5625 149.765625 C 242.257812 150.332031 242.804688 151.015625 243.203125 151.816406 C 243.601562 152.621094 243.816406 153.46875 243.847656 154.367188 C 243.898438 155.503906 243.746094 156.613281 243.394531 157.695312 C 243.042969 158.777344 242.515625 159.761719 241.804688 160.648438 C 238.941406 164.339844 234.199219 165.476562 231.210938 163.160156 L 180.582031 124.050781 C 180.320312 123.851562 180.039062 123.675781 179.746094 123.527344 C 179.449219 123.382812 179.144531 123.265625 178.824219 123.179688 C 178.503906 123.09375 178.183594 123.039062 177.851562 123.015625 C 177.523438 122.996094 177.195312 123.003906 176.867188 123.046875 C 176.542969 123.089844 176.222656 123.164062 175.910156 123.269531 C 175.597656 123.375 175.296875 123.507812 175.011719 123.671875 C 174.726562 123.835938 174.457031 124.027344 174.210938 124.246094 C 173.960938 124.460938 173.734375 124.703125 173.535156 124.964844 L 173.492188 125.023438 C 173.289062 125.28125 173.117188 125.558594 172.96875 125.855469 C 172.820312 126.152344 172.703125 126.457031 172.617188 126.773438 C 172.53125 127.09375 172.476562 127.417969 172.453125 127.746094 C 172.429688 128.074219 172.4375 128.402344 172.480469 128.730469 C 172.523438 129.058594 172.59375 129.378906 172.699219 129.691406 C 172.804688 130.003906 172.9375 130.300781 173.101562 130.589844 C 173.265625 130.875 173.457031 131.140625 173.671875 131.390625 C 173.890625 131.640625 174.128906 131.867188 174.386719 132.066406 L 210.761719 160.171875 C 211.226562 160.503906 211.652344 160.878906 212.042969 161.292969 C 212.429688 161.710938 212.773438 162.164062 213.070312 162.648438 C 213.371094 163.136719 213.617188 163.644531 213.808594 164.183594 C 214.003906 164.71875 214.144531 165.265625 214.226562 165.832031 C 214.3125 166.394531 214.335938 166.960938 214.304688 167.53125 C 214.277344 168.101562 214.1875 168.660156 214.042969 169.210938 C 213.898438 169.765625 213.703125 170.296875 213.449219 170.808594 C 213.199219 171.320312 212.898438 171.800781 212.550781 172.25 C 212.203125 172.703125 211.8125 173.113281 211.378906 173.484375 C 210.949219 173.859375 210.484375 174.183594 209.984375 174.460938 C 209.488281 174.742188 208.96875 174.964844 208.425781 175.140625 C 207.882812 175.3125 207.328125 175.429688 206.757812 175.492188 C 206.191406 175.550781 205.625 175.554688 205.058594 175.503906 C 204.488281 175.449219 203.933594 175.339844 203.386719 175.175781 C 202.84375 175.007812 202.320312 174.789062 201.816406 174.519531 C 201.316406 174.246094 200.847656 173.925781 200.410156 173.5625 L 167.910156 148.460938 C 167.78125 147.488281 167.566406 146.535156 167.257812 145.601562 C 166.953125 144.671875 166.5625 143.777344 166.089844 142.917969 C 165.617188 142.058594 165.070312 141.25 164.445312 140.492188 C 163.824219 139.734375 163.136719 139.039062 162.382812 138.410156 C 161.632812 137.78125 160.828125 137.226562 159.972656 136.746094 C 159.117188 136.265625 158.226562 135.867188 157.296875 135.554688 C 156.367188 135.242188 155.417969 135.015625 154.445312 134.878906 C 153.476562 134.738281 152.5 134.691406 151.519531 134.738281 C 151.453125 134.171875 151.355469 133.609375 151.226562 133.054688 C 151.101562 132.5 150.941406 131.953125 150.757812 131.414062 C 150.570312 130.878906 150.355469 130.351562 150.113281 129.835938 C 149.867188 129.320312 149.597656 128.820312 149.300781 128.335938 C 149.003906 127.847656 148.683594 127.378906 148.335938 126.929688 C 147.988281 126.476562 147.617188 126.046875 147.222656 125.632812 C 146.832031 125.222656 146.417969 124.832031 145.980469 124.464844 C 145.546875 124.097656 145.089844 123.753906 144.617188 123.4375 C 144.148438 123.117188 143.660156 122.828125 143.15625 122.5625 C 142.652344 122.296875 142.136719 122.058594 141.605469 121.847656 C 141.078125 121.636719 140.539062 121.453125 139.988281 121.300781 C 139.441406 121.148438 138.882812 121.027344 138.324219 120.933594 C 137.761719 120.84375 137.195312 120.78125 136.625 120.746094 C 136.058594 120.714844 135.488281 120.714844 134.921875 120.742188 C 134.351562 120.773438 133.785156 120.832031 133.222656 120.921875 C 132.660156 121.011719 132.105469 121.132812 131.554688 121.28125 C 130.871094 118.679688 129.589844 116.410156 127.722656 114.472656 L 127.421875 114.152344 C 126.707031 113.410156 125.929688 112.742188 125.082031 112.152344 C 124.238281 111.5625 123.34375 111.058594 122.398438 110.644531 C 121.457031 110.230469 120.480469 109.910156 119.472656 109.6875 C 118.464844 109.464844 117.449219 109.34375 116.417969 109.320312 C 115.386719 109.300781 114.363281 109.378906 113.347656 109.558594 C 112.332031 109.734375 111.34375 110.011719 110.382812 110.386719 C 109.421875 110.757812 108.507812 111.222656 107.636719 111.777344 C 106.769531 112.332031 105.960938 112.964844 105.214844 113.675781 L 97.96875 120.628906 L 89.015625 109.566406 L 120.71875 57.691406 C 123.894531 59.828125 127.265625 61.59375 130.835938 62.984375 C 134.402344 64.375 138.078125 65.355469 141.863281 65.929688 C 140.527344 68 139.070312 70.347656 137.679688 72.808594 C 130.753906 84.957031 128.976562 93.007812 132.082031 98.144531 C 133.445312 100.398438 136.175781 102.824219 141.605469 102.824219 C 142.785156 102.816406 143.957031 102.71875 145.121094 102.523438 C 146.992188 102.21875 148.820312 101.734375 150.601562 101.074219 C 152.382812 100.410156 154.082031 99.582031 155.699219 98.585938 C 157.316406 97.59375 158.824219 96.449219 160.21875 95.160156 C 161.613281 93.871094 162.871094 92.460938 163.988281 90.925781 C 171.324219 80.96875 184.839844 72.617188 207.574219 89.351562 C 207.683594 89.433594 207.796875 89.511719 207.917969 89.578125 L 269.703125 137.273438 C 273.113281 139.949219 273.582031 145.070312 270.730469 148.761719 Z M 270.730469 148.761719 " fill-opacity="1" fill-rule="nonzero"/><path fill="#2d4b61" d="M 118.21875 42.496094 L 77.9375 108.453125 L 60.332031 98.195312 L 99.625 30.804688 Z M 118.21875 42.496094 " fill-opacity="1" fill-rule="nonzero"/></svg>