<svg xmlns="http://www.w3.org/2000/svg" xmlns:xlink="http://www.w3.org/1999/xlink" width="500" zoomAndPan="magnify" viewBox="0 0 375 374.999991" height="500" preserveAspectRatio="xMidYMid meet" version="1.0"><path fill="#2d4b61" d="M 78.648438 313.488281 L 78.648438 57.996094 C 78.648438 36.027344 95.78125 18.015625 117.53125 16.914062 L 117.53125 0 C 85.675781 0.660156 59.972656 26.800781 59.972656 58.875 L 59.972656 315.90625 C 59.972656 348.417969 86.335938 375 118.847656 375 L 256.152344 375 C 288.664062 375 315.027344 348.417969 315.027344 315.90625 L 315.027344 58.875 C 315.027344 27.019531 289.542969 0.878906 257.6875 0 L 257.6875 16.914062 C 279.21875 18.015625 296.574219 36.027344 296.574219 57.996094 L 296.574219 62.828125 C 296.574219 63.050781 296.574219 63.269531 296.574219 63.488281 C 296.574219 63.707031 296.574219 63.929688 296.574219 64.148438 L 296.574219 313.488281 C 296.574219 336.117188 278.121094 354.789062 255.273438 354.789062 L 119.949219 354.789062 C 97.101562 354.789062 78.648438 336.117188 78.648438 313.488281 Z M 78.648438 313.488281 " fill-opacity="1" fill-rule="evenodd"/><path fill="#2d4b61" d="M 83.261719 65.683594 L 83.261719 313.488281 C 83.261719 333.699219 99.515625 350.175781 119.949219 350.175781 L 255.273438 350.175781 C 275.484375 350.175781 291.960938 333.699219 291.960938 313.488281 L 291.960938 65.683594 Z M 109.84375 207.601562 L 265.378906 207.601562 C 266.476562 207.601562 267.574219 208.699219 267.574219 209.796875 L 267.574219 254.613281 C 267.574219 255.929688 266.695312 256.808594 265.378906 256.808594 L 109.84375 256.808594 C 108.523438 256.808594 107.644531 255.710938 107.644531 254.613281 L 107.644531 209.796875 C 107.644531 208.699219 108.523438 207.601562 109.84375 207.601562 Z M 160.367188 282.074219 L 214.851562 282.074219 C 220.34375 282.074219 224.515625 286.46875 224.515625 291.738281 L 224.515625 300.746094 C 224.515625 306.238281 220.34375 310.414062 214.851562 310.414062 L 160.367188 310.414062 C 155.097656 310.414062 150.703125 306.238281 150.703125 300.746094 L 150.703125 291.738281 C 150.703125 286.46875 155.097656 282.074219 160.367188 282.074219 Z M 170.035156 325.351562 L 204.746094 325.351562 C 206.0625 325.351562 207.160156 326.449219 207.160156 327.546875 C 207.160156 328.867188 206.0625 329.964844 204.746094 329.964844 L 170.035156 329.964844 C 168.9375 329.964844 167.839844 328.867188 167.839844 327.546875 C 167.839844 326.449219 168.9375 325.351562 170.035156 325.351562 Z M 186.070312 182.558594 C 159.929688 163.226562 141.257812 138.839844 141.257812 105.226562 C 141.257812 100.394531 141.476562 92.707031 145.429688 89.191406 C 148.726562 86.335938 153.558594 86.996094 157.511719 87.652344 C 168.9375 88.972656 176.625 88.09375 186.070312 81.0625 C 186.949219 80.402344 188.050781 80.402344 188.707031 81.0625 C 198.375 88.09375 206.28125 88.972656 217.488281 87.652344 C 221.660156 86.996094 226.492188 86.335938 229.789062 89.191406 C 233.742188 92.707031 233.964844 100.394531 233.964844 105.226562 C 233.964844 138.839844 215.289062 163.226562 188.929688 182.558594 C 188.488281 182.777344 188.050781 182.996094 187.609375 182.996094 C 186.949219 182.996094 186.511719 182.996094 186.070312 182.558594 Z M 186.070312 182.558594 " fill-opacity="1" fill-rule="evenodd"/><path fill="#2d4b61" d="M 169.15625 130.929688 L 177.503906 139.5 C 179.921875 141.695312 183.65625 141.476562 185.851562 139.28125 L 206.0625 119.070312 C 208.480469 116.652344 208.480469 113.136719 206.0625 110.941406 C 204.964844 109.84375 203.648438 109.183594 201.890625 109.183594 C 200.351562 109.183594 198.8125 109.84375 197.714844 110.941406 L 183.214844 125.4375 C 182.777344 125.878906 182.117188 126.097656 181.679688 126.097656 C 181.019531 126.097656 180.578125 125.878906 180.140625 125.4375 L 177.285156 122.804688 C 174.867188 120.386719 171.574219 120.386719 169.15625 122.804688 C 166.738281 125 166.738281 128.515625 169.15625 130.929688 Z M 169.15625 130.929688 " fill-opacity="1" fill-rule="evenodd"/><path fill="#2d4b61" d="M 189.148438 142.574219 C 187.171875 144.550781 184.316406 145.648438 181.457031 145.648438 C 178.824219 145.648438 176.40625 144.550781 174.210938 142.792969 L 165.859375 134.007812 C 161.6875 130.050781 161.6875 123.683594 165.859375 119.507812 C 169.816406 115.554688 175.746094 115.332031 179.921875 119.070312 L 181.679688 120.605469 L 194.640625 107.644531 C 196.617188 105.667969 199.253906 104.570312 201.890625 104.570312 C 204.746094 104.570312 207.382812 105.667969 209.359375 107.644531 C 213.53125 111.820312 213.53125 118.191406 209.359375 122.363281 Z M 145.871094 105.226562 C 145.871094 135.765625 162.566406 158.613281 186.070312 176.84375 L 187.609375 177.945312 L 188.929688 176.84375 C 212.652344 158.832031 229.351562 135.765625 229.351562 105.226562 C 229.351562 102.152344 229.351562 94.683594 226.714844 92.488281 C 224.957031 90.949219 220.34375 91.828125 218.144531 92.046875 C 206.941406 93.367188 198.59375 92.707031 188.707031 86.335938 L 187.609375 85.675781 L 186.292969 86.335938 C 176.40625 92.707031 168.277344 93.367188 157.074219 92.046875 C 155.316406 91.828125 153.558594 91.609375 152.019531 91.609375 C 150.703125 91.609375 149.386719 91.609375 148.507812 92.488281 C 145.871094 94.902344 145.871094 102.152344 145.871094 105.226562 Z M 145.871094 105.226562 " fill-opacity="1" fill-rule="evenodd"/><path fill="#2d4b61" d="M 225.835938 41.300781 C 225.835938 44.597656 228.472656 46.792969 231.546875 46.792969 C 234.402344 46.792969 237.039062 44.597656 237.039062 41.300781 C 237.039062 38.226562 234.621094 35.808594 231.546875 35.808594 C 228.25 35.808594 225.835938 38.226562 225.835938 41.300781 Z M 225.835938 41.300781 " fill-opacity="1" fill-rule="evenodd"/><path fill="#2d4b61" d="M 122.144531 0 L 253.074219 0 L 253.074219 16.695312 L 122.144531 16.695312 Z M 122.144531 0 " fill-opacity="1" fill-rule="evenodd"/><path fill="#2d4b61" d="M 199.691406 37.125 L 145.429688 37.125 C 143.015625 37.125 141.035156 39.105469 141.035156 41.300781 C 141.035156 43.71875 143.234375 45.472656 145.429688 45.472656 L 199.691406 45.472656 C 201.890625 45.472656 204.085938 43.71875 204.085938 41.300781 C 204.085938 39.105469 202.109375 37.125 199.691406 37.125 Z M 199.691406 37.125 " fill-opacity="1" fill-rule="evenodd"/><path fill="#2d4b61" d="M 136.421875 41.300781 C 136.421875 36.46875 140.378906 32.511719 145.429688 32.511719 L 199.691406 32.511719 C 204.746094 32.511719 208.699219 36.46875 208.699219 41.300781 C 208.699219 46.351562 204.527344 50.085938 199.691406 50.085938 L 145.429688 50.085938 C 140.597656 50.085938 136.421875 46.132812 136.421875 41.300781 Z M 83.261719 61.292969 L 291.960938 61.292969 L 291.960938 57.996094 C 291.960938 37.785156 275.484375 21.308594 255.273438 21.308594 L 119.949219 21.308594 C 99.515625 21.308594 83.261719 37.785156 83.261719 57.996094 Z M 231.546875 51.40625 C 225.835938 51.40625 221.222656 47.011719 221.222656 41.300781 C 221.222656 35.808594 225.835938 31.195312 231.546875 31.195312 C 237.039062 31.195312 241.652344 35.808594 241.652344 41.300781 C 241.652344 47.011719 237.039062 51.40625 231.546875 51.40625 Z M 231.546875 51.40625 " fill-opacity="1" fill-rule="evenodd"/><path fill="#2d4b61" d="M 262.960938 212.214844 L 112.039062 212.214844 L 112.039062 252.195312 L 262.960938 252.195312 Z M 145.648438 238.796875 L 152.242188 232.207031 L 145.648438 225.613281 C 144.773438 224.738281 144.773438 223.199219 145.648438 222.320312 C 146.527344 221.441406 147.847656 221.441406 148.726562 222.320312 L 153.339844 226.933594 L 153.339844 220.5625 C 153.339844 219.246094 154.4375 218.367188 155.535156 218.367188 C 156.855469 218.367188 157.953125 219.246094 157.953125 220.5625 L 157.953125 226.714844 L 162.347656 222.320312 C 163.226562 221.441406 164.542969 221.441406 165.421875 222.320312 C 166.300781 223.199219 166.300781 224.738281 165.421875 225.613281 L 158.832031 232.207031 L 165.421875 238.796875 C 166.300781 239.675781 166.300781 241.210938 165.421875 242.089844 C 164.980469 242.3125 164.542969 242.75 163.882812 242.75 C 163.226562 242.75 162.566406 242.3125 162.125 242.089844 L 157.953125 237.699219 L 157.953125 243.847656 C 157.953125 245.167969 156.855469 246.046875 155.535156 246.046875 C 154.4375 246.046875 153.339844 245.167969 153.339844 243.847656 L 153.339844 237.476562 L 148.726562 242.089844 C 148.285156 242.3125 147.847656 242.75 147.1875 242.75 C 146.527344 242.75 146.089844 242.3125 145.648438 242.089844 C 144.773438 241.210938 144.773438 239.675781 145.648438 238.796875 Z M 179.261719 242.75 C 178.824219 242.75 178.164062 242.3125 177.722656 242.089844 C 176.84375 241.210938 176.84375 239.675781 177.722656 238.796875 L 184.316406 232.207031 L 177.722656 225.613281 C 176.84375 224.738281 176.84375 223.199219 177.722656 222.320312 C 178.601562 221.441406 180.140625 221.441406 181.019531 222.320312 L 185.191406 226.714844 L 185.191406 220.5625 C 185.191406 219.246094 186.292969 218.367188 187.609375 218.367188 C 188.707031 218.367188 189.808594 219.246094 189.808594 220.5625 L 189.808594 226.933594 L 194.421875 222.320312 C 195.296875 221.441406 196.617188 221.441406 197.496094 222.320312 C 198.375 223.199219 198.59375 224.738281 197.496094 225.613281 L 190.90625 232.207031 L 197.496094 238.796875 C 198.59375 239.675781 198.375 240.992188 197.714844 241.871094 C 197.054688 242.3125 196.617188 242.75 195.957031 242.75 C 195.296875 242.75 194.640625 242.3125 194.199219 242.089844 L 189.808594 237.699219 L 189.808594 243.847656 C 189.808594 245.167969 188.707031 246.046875 187.609375 246.046875 C 186.292969 246.046875 185.191406 245.167969 185.191406 243.847656 L 185.191406 237.699219 L 181.019531 242.089844 C 180.578125 242.3125 179.921875 242.75 179.261719 242.75 Z M 219.683594 246.046875 C 218.367188 246.046875 217.265625 245.167969 217.265625 243.847656 L 217.265625 237.699219 L 213.09375 242.089844 C 212.652344 242.53125 211.996094 242.75 211.335938 242.75 C 210.894531 242.75 210.238281 242.53125 209.796875 242.089844 C 208.917969 240.992188 208.917969 239.675781 209.796875 238.796875 L 216.386719 232.207031 L 209.796875 225.613281 C 208.917969 224.738281 208.917969 223.199219 209.796875 222.320312 C 210.675781 221.441406 212.214844 221.441406 213.09375 222.320312 L 217.265625 226.714844 L 217.265625 220.5625 C 217.265625 219.246094 218.367188 218.367188 219.683594 218.367188 C 220.78125 218.367188 221.878906 219.246094 221.878906 220.5625 L 221.878906 226.714844 L 226.273438 222.320312 C 227.152344 221.441406 228.691406 221.441406 229.570312 222.320312 C 230.449219 223.199219 230.226562 224.738281 229.351562 225.613281 L 222.757812 232.207031 L 229.351562 238.796875 C 230.449219 239.675781 230.226562 241.210938 229.351562 242.089844 C 229.128906 242.3125 228.472656 242.75 227.8125 242.75 C 227.152344 242.75 226.714844 242.53125 226.273438 242.089844 L 221.878906 237.699219 L 221.878906 243.847656 C 221.878906 245.167969 220.78125 246.046875 219.683594 246.046875 Z M 219.683594 246.046875 " fill-opacity="1" fill-rule="evenodd"/><path fill="#2d4b61" d="M 214.851562 286.6875 L 160.367188 286.6875 C 157.511719 286.6875 155.097656 288.882812 155.097656 291.738281 L 155.097656 300.746094 C 155.097656 303.601562 157.511719 306.019531 160.367188 306.019531 L 214.851562 306.019531 C 217.707031 306.019531 220.121094 303.601562 220.121094 300.746094 L 220.121094 291.738281 C 220.121094 288.882812 217.707031 286.6875 214.851562 286.6875 Z M 214.851562 286.6875 " fill-opacity="1" fill-rule="evenodd"/></svg>